<?xml version="1.0" encoding="utf-8"?>
<!-- Generator: Adobe Illustrator 27.8.1, SVG Export Plug-In . SVG Version: 6.00 Build 0)  -->
<svg version="1.1" id="Ebene_1" xmlns="http://www.w3.org/2000/svg" xmlns:xlink="http://www.w3.org/1999/xlink" x="0px" y="0px"
	 viewBox="0 0 26 26" style="enable-background:new 0 0 26 26;" xml:space="preserve">
<style type="text/css">
	.st0{fill:#02ABBC;}
	.st1{fill:#03ABBC;}
	.st2{fill:#04ABBC;}
	.st3{fill:#05ACBC;}
	.st4{fill:#06ACBC;}
	.st5{fill:#07ACBD;}
	.st6{fill:#09ADBD;}
	.st7{fill:#08ADBD;}
	.st8{fill:#0BAEBD;}
	.st9{fill:#0FAEBE;}
	.st10{fill:#11AFBE;}
	.st11{fill:#16B1BF;}
	.st12{fill:#1FB4C1;}
</style>
<g>
	<path class="st0" d="M16.9,9.1C16.9,9.1,16.9,9.1,16.9,9.1C16.9,9.1,16.9,9.1,16.9,9.1C17,9,17,9,17,9c0,0,0,0,0.1,0
		c0,0,0.1-0.1,0.1-0.1c0,0,0,0,0.1,0C17.5,8.8,17.8,8.8,18,9c0,0,0,0,0,0c0,0,0,0,0,0c0,0,0,0,0,0c0,0,0,0.1,0.1,0.1
		c0,0,0,0.1,0,0.1c0,0,0,0,0.1,0c0,0.1,0,0.2,0,0.3c0,0,0,0,0,0c0,0,0,0,0,0c0,0,0,0,0,0c0,0,0,0,0,0c0,0,0,0,0,0.1
		c0,0,0,0.1-0.1,0.1c0,0,0,0-0.1,0c0,0,0,0.1,0,0.1c0,0,0,0,0,0c-0.1,0-0.1,0-0.2,0c0,0-0.1,0-0.1,0c0,0,0,0,0,0
		c-0.1,0-0.2-0.1-0.2-0.1c0,0-0.1,0-0.1-0.1c0,0.1,0,0.1,0,0.2c0,0,0,0,0,0c0,0,0,0,0,0c0,0.1,0,0.1-0.1,0.2c0.1,0,0.2,0.1,0.4,0.2
		c0,0,0.1,0,0.1,0.1c0,0,0.1,0.1,0.1,0.1c-0.1,0.1,0,0.1,0.1,0.2c0,0,0,0,0,0c0,0,0,0.1,0,0.1c0,0,0,0.1,0,0.1c0,0,0,0,0,0
		c0,0,0,0,0,0c0,0,0,0,0,0c0,0,0,0.1,0,0.1c0,0,0,0,0,0c0,0.1,0,0.1,0,0.1c0.2,0.1,0.4,0.2,0.6,0.3c0,0,0,0,0.1,0l0,0
		c0,0,0,0.1,0,0.1c0,0.1,0.1,0.2,0.1,0.3c0,0.3-0.1,0.4-0.4,0.4c-0.2,0-0.4-0.1-0.6-0.1c0,0.2-0.1,0.4-0.1,0.6
		c0.5,0.1,0.9,0.5,0.8,1c0,0.1-0.1,0.3-0.2,0.4l0,0c0,0,0,0,0,0c-0.5,0.2-0.8,0.1-1.1-0.3C17,13.5,17,13.2,17.2,13
		c-0.2-0.1-0.5-0.1-0.7-0.1c-0.1,0.2-0.1,0.4-0.2,0.6c0.3,0,0.6,0,0.8,0.3c0.2,0.4,0.2,0.7-0.1,0.9c-0.3,0.3-0.7,0.4-1,0.2
		c-0.4-0.2-0.5-0.6-0.3-1c0-0.1,0.1-0.1,0.1-0.2c-0.2,0-0.3,0-0.5,0c-0.1,0-0.3-0.1-0.4-0.1c0,0.1,0,0.1,0,0.2
		c0,0.3-0.2,0.5-0.4,0.6c-0.5,0.3-1.1,0.2-1.5-0.1c0,0-0.1,0-0.1,0c0,0,0,0,0,0c0,0,0-0.1,0-0.1c-0.1-0.3-0.1-0.5,0.1-0.7
		c0,0,0.1-0.1,0.1-0.1c-0.3,0-0.7-0.1-1-0.1c0,0.3-0.2,0.6-0.5,0.8c-0.1,0.1-0.2,0.1-0.3,0.2c-0.3,0.1-0.6,0.1-0.9,0
		c-0.4-0.1-0.6-0.5-0.4-0.9c0.1-0.2,0.3-0.3,0.4-0.5c-0.2,0-0.4,0-0.7,0c-0.2,0-0.5-0.1-0.6-0.4c-0.1-0.2,0-0.4,0.2-0.6
		c0.3-0.4,1.1-0.6,1.7-0.3c0-0.1,0-0.3,0.1-0.4c0-0.1,0.1-0.2,0.2-0.3c-0.2-0.1-0.5-0.1-0.7-0.2C10,10.3,10,9.9,10.4,9.6
		c0,0,0.1,0,0.1-0.1c0,0,0,0,0,0c0,0,0.1,0,0.1,0c0,0,0,0,0,0c0,0,0.1,0,0.1,0l0,0c0.1,0,0.3-0.1,0.4-0.1c0.3,0,0.5,0,0.8,0.1
		C11.9,9.3,12,9.1,12.1,9c-0.2,0-0.4-0.1-0.5-0.1c-0.1,0-0.2-0.1-0.3-0.1c-0.3-0.2-0.3-0.3,0-0.5c0.3-0.2,1-0.3,1.4,0
		c0.2,0.1,0.2,0.4,0,0.5c0,0-0.1,0.1-0.1,0.1c0.3,0,0.6,0.1,0.9,0.1c0-0.1,0.1-0.2,0.2-0.3c0.1-0.1,0.2-0.1,0.3-0.1
		c0.3,0,0.7,0,1,0.2c0,0.1,0.1,0.1,0.1,0.2c0,0,0,0,0,0c0,0,0,0,0,0c0,0,0,0,0,0.1c0,0.1,0,0.1,0,0.2c0,0,0,0.1-0.1,0.1
		c0,0,0.1,0,0.1,0c0.2,0.1,0.4,0.1,0.6,0.2c0,0,0-0.1,0-0.1c0-0.1,0-0.2,0.2-0.3c0,0,0,0,0,0c0,0,0,0-0.1,0c0,0,0,0,0,0
		c0-0.1-0.1-0.1-0.1,0c-0.1,0-0.2-0.1-0.3-0.1c0,0,0,0,0,0c-0.1,0-0.1-0.1-0.2-0.1c0,0,0,0,0,0l0,0c0,0,0,0-0.1,0c0,0,0,0,0,0
		c0,0,0,0,0,0c0,0,0,0-0.1,0c0-0.1,0-0.2,0-0.3c0,0,0,0,0,0c0,0,0,0,0,0c0,0,0,0,0.1,0c0,0,0,0,0.1,0c0.1,0,0.1,0,0.2,0c0,0,0,0,0,0
		c0,0,0,0,0,0c0,0,0.1,0,0.1,0c0,0,0,0,0,0c0.2,0.1,0.4,0.1,0.6,0.2c0,0,0.1,0,0.1,0.1l0,0c0,0,0.1,0.1,0.1,0.1l0,0c0,0,0,0.1,0,0.1
		c0,0,0,0,0,0c0,0,0,0.1,0,0.1c0,0,0,0,0,0c0,0,0,0,0,0c0,0,0,0,0,0c0,0,0,0,0,0.1c0,0,0,0.1-0.1,0.1c0,0,0,0,0,0
		c0.2,0.1,0.3,0.1,0.5,0.2c0.1,0.1,0.1,0.2,0.2,0.2c0.1,0,0.1,0.1,0.3,0.1c-0.1-0.1-0.1-0.2-0.2-0.3c0,0,0,0,0,0
		C16.9,9.2,16.9,9.2,16.9,9.1z M16.5,10.5C16.5,10.5,16.6,10.5,16.5,10.5C16.6,10.5,16.6,10.5,16.5,10.5c0.1-0.1,0.1-0.2,0.2-0.3
		c-0.2-0.1-0.4-0.1-0.5-0.2c0,0,0,0.1,0,0.1c0,0,0,0,0,0c0,0.1,0,0.1,0,0.2C16.2,10.4,16.4,10.4,16.5,10.5z M16.1,12.2
		C16.1,12.2,16.1,12.2,16.1,12.2C16.1,12.2,16.1,12.2,16.1,12.2c0-0.1,0-0.3,0.1-0.4c-0.1,0-0.3-0.1-0.4-0.1c0,0.1-0.1,0.3-0.1,0.4
		C15.8,12.1,16,12.2,16.1,12.2z M17.4,11.7C17.4,11.7,17.4,11.7,17.4,11.7C17.4,11.7,17.4,11.7,17.4,11.7
		C17.4,11.7,17.4,11.7,17.4,11.7c0-0.2,0.1-0.3,0.1-0.5c-0.2,0-0.3-0.1-0.5-0.1c0,0.1-0.1,0.3-0.1,0.4
		C17.1,11.6,17.3,11.6,17.4,11.7z M11.7,12.6c0.1-0.2,0.2-0.5,0.2-0.7c-0.3-0.1-0.6-0.1-0.8-0.2c0,0.4-0.2,0.6-0.5,0.8
		C11,12.5,11.4,12.4,11.7,12.6z M14.6,12.5c-0.2,0-0.4-0.1-0.6-0.1c-0.1,0.2-0.2,0.4-0.3,0.5c0.2,0,0.5,0.1,0.7,0.1
		C14.6,12.8,14.6,12.7,14.6,12.5z M12.8,10c-0.2-0.1-0.5-0.1-0.6-0.2c-0.1,0.2-0.2,0.4-0.2,0.5c0.2,0,0.5,0,0.7,0.1
		C12.7,10.3,12.7,10.2,12.8,10z M13.1,11.1c-0.1,0.2-0.1,0.3-0.2,0.4c0.2,0,0.4,0,0.6,0.1c0.1-0.1,0.1-0.3,0.1-0.4
		C13.5,11.2,13.3,11.1,13.1,11.1z M14.3,9.8c0.1-0.1,0.1-0.2,0.2-0.3c-0.2-0.1-0.4-0.1-0.6-0.2c0,0.1-0.1,0.3-0.1,0.4
		C13.9,9.8,14.1,9.8,14.3,9.8z M14.7,10.8c0.2,0,0.3,0.1,0.5,0.1c0-0.1,0.1-0.2,0.1-0.3c-0.2,0-0.3-0.1-0.5-0.1
		C14.8,10.6,14.7,10.7,14.7,10.8z"/>
	<path class="st1" d="M11.3,14c0.1-0.1,0.2-0.1,0.3-0.2c0,0,0.1,0,0.1,0c0.4-0.1,0.8-0.1,1.2,0.3c0,0,0,0,0,0
		c0.3,0.6-0.2,1.2-0.8,1.3c-0.2,0-0.4,0-0.7,0c-0.3,0-0.5-0.2-0.6-0.5c-0.1-0.3,0.1-0.5,0.3-0.7C11.2,14.1,11.2,14.1,11.3,14z"/>
	<path class="st2" d="M9.6,16.6c-0.4,0-0.6-0.1-0.8-0.4c-0.1-0.3,0-0.6,0.2-0.8c0.4-0.4,0.8-0.5,1.3-0.4c0.5,0.1,0.7,0.5,0.4,1
		C10.4,16.3,10.1,16.6,9.6,16.6z"/>
	<path class="st2" d="M8.4,15.1c0,0-0.1,0-0.2,0c-0.4-0.1-0.6-0.5-0.3-0.9c0.4-0.5,0.9-0.7,1.5-0.6c0.5,0,0.6,0.5,0.4,0.9
		C9.5,14.8,8.9,15.1,8.4,15.1z"/>
	<path class="st2" d="M12.7,17c-0.2-0.1-0.4-0.1-0.5-0.2c-0.4-0.2-0.4-0.5-0.2-0.9c0.3-0.4,0.8-0.7,1.3-0.5c0.5,0.1,0.6,0.5,0.4,0.9
		C13.5,16.7,13.2,16.9,12.7,17z"/>
	<path class="st2" d="M7.3,17.7c-0.3,0-0.5-0.1-0.6-0.4c-0.1-0.3,0-0.5,0.1-0.7c0.3-0.4,0.7-0.6,1.2-0.5c0.3,0.1,0.5,0.2,0.5,0.4
		c0.1,0.3,0,0.5-0.2,0.6C8.1,17.5,7.7,17.7,7.3,17.7z"/>
	<path class="st2" d="M14.8,14.3c0.6,0,1,0.4,0.9,0.9c-0.1,0.4-0.4,0.5-0.8,0.6c-0.3,0.1-0.7,0-0.9-0.2c-0.2-0.2-0.2-0.5,0-0.8
		C14.1,14.5,14.5,14.4,14.8,14.3z"/>
	<path class="st2" d="M11,16.5c0.1,0,0.3,0,0.4,0.1c0.3,0.1,0.4,0.4,0.3,0.7c-0.2,0.5-0.9,0.9-1.4,0.7c-0.4-0.1-0.6-0.6-0.3-0.9
		C10.1,16.7,10.5,16.5,11,16.5z"/>
	<path class="st2" d="M8.2,12.3c0.2,0,0.3,0.1,0.5,0.1C8.9,12.5,9,12.7,8.9,13c-0.2,0.5-1,0.9-1.5,0.7c-0.4-0.1-0.5-0.5-0.3-0.8
		C7.4,12.5,7.8,12.3,8.2,12.3z"/>
	<path class="st2" d="M6.9,14.7c0.1,0,0.3,0,0.4,0.1c0.3,0.1,0.3,0.3,0.3,0.6c-0.2,0.5-0.9,0.9-1.3,0.7c-0.4-0.1-0.5-0.4-0.3-0.8
		C6.1,15,6.5,14.8,6.9,14.7z"/>
	<path class="st2" d="M8.8,17.8c0.2,0,0.4,0.1,0.5,0.3c0.1,0.2,0,0.4-0.1,0.6c-0.3,0.3-0.7,0.5-1.1,0.5c-0.2,0-0.4-0.1-0.5-0.3
		c-0.1-0.2,0-0.4,0.1-0.5C8,18,8.4,17.8,8.8,17.8z"/>
	<path class="st2" d="M9.6,10.2c0.1,0,0.1,0,0.2,0c0.1,0.1,0.3,0.2,0.3,0.3c0.1,0.1,0,0.3-0.1,0.4c-0.4,0.3-0.8,0.5-1.3,0.5
		c-0.2,0-0.4-0.1-0.4-0.3c-0.1-0.2,0.1-0.3,0.2-0.4C8.8,10.4,9.2,10.3,9.6,10.2z"/>
	<path class="st2" d="M15.4,17.2c-0.2,0-0.4-0.1-0.5-0.3c-0.1-0.2-0.1-0.4,0-0.6c0.2-0.3,0.6-0.5,1-0.5c0.4,0.1,0.6,0.4,0.4,0.8
		C16.2,17,15.8,17.2,15.4,17.2z"/>
	<path class="st2" d="M13.5,18.3c-0.2,0-0.4-0.1-0.5-0.3c-0.1-0.2-0.1-0.4,0.1-0.6c0.2-0.3,0.7-0.6,1.1-0.5c0.3,0.1,0.5,0.4,0.3,0.7
		C14.3,18,13.9,18.3,13.5,18.3z"/>
	<path class="st2" d="M17.9,15.5c0,0.4-0.3,0.8-0.8,0.8c-0.4,0-0.6-0.3-0.6-0.6c0-0.4,0.3-0.8,0.8-0.8
		C17.6,14.9,17.9,15.1,17.9,15.5z"/>
	<path class="st2" d="M6.2,18c0,0.3-0.2,0.5-0.5,0.6c-0.3,0.1-0.6,0.1-0.9-0.1c-0.1-0.1-0.2-0.3-0.1-0.4c0.1-0.5,0.8-0.8,1.2-0.6
		C6.1,17.6,6.2,17.7,6.2,18z"/>
	<path class="st2" d="M10.5,9.6c-0.2,0-0.4,0-0.6,0c-0.3,0-0.5-0.2-0.5-0.4c0-0.2,0.1-0.4,0.4-0.5c0.4-0.2,0.8-0.2,1.1-0.1
		C11.2,8.7,11.3,9,11,9.2c-0.1,0.1-0.2,0.2-0.3,0.2c0,0,0,0,0,0C10.6,9.5,10.6,9.5,10.5,9.6C10.6,9.5,10.6,9.5,10.5,9.6
		C10.5,9.5,10.5,9.6,10.5,9.6L10.5,9.6z"/>
	<path class="st2" d="M7.6,11.2c0.2,0,0.4,0.1,0.5,0.2c0.1,0.2,0,0.3-0.1,0.5c-0.3,0.4-0.7,0.5-1.2,0.5c-0.2,0-0.3-0.1-0.4-0.3
		c-0.1-0.2,0-0.3,0.2-0.4C6.8,11.3,7.2,11.2,7.6,11.2z"/>
	<path class="st3" d="M11.4,19.4c-0.4,0-0.7-0.4-0.5-0.8c0.2-0.4,0.8-0.6,1.2-0.4c0.2,0.1,0.3,0.3,0.2,0.5
		C12.2,19.1,11.8,19.4,11.4,19.4z"/>
	<path class="st3" d="M8.1,10.4c-0.1,0-0.3-0.1-0.4-0.1C7.5,10.1,7.5,10,7.6,9.8c0.2-0.4,1-0.7,1.5-0.4c0.2,0.1,0.3,0.3,0.1,0.5
		C9,10.2,8.6,10.3,8.1,10.4z"/>
	<path class="st3" d="M5.7,14.7c-0.4,0-0.6-0.3-0.5-0.7c0.2-0.4,0.7-0.7,1.1-0.5c0.3,0.1,0.4,0.3,0.3,0.6
		C6.5,14.4,6.1,14.7,5.7,14.7z"/>
	<path class="st3" d="M6.2,20.3c-0.4,0-0.7-0.4-0.5-0.8c0.2-0.4,0.7-0.6,1.1-0.4C7,19.2,7.1,19.4,7,19.7C6.9,20,6.5,20.3,6.2,20.3z"
		/>
	<path class="st3" d="M18.2,14.1c0.5,0,0.8,0.2,0.8,0.6c0,0.2,0,0.4-0.2,0.6c-0.2,0.2-0.5,0.2-0.7,0C17.8,15,17.8,14.4,18.2,14.1
		C18.2,14.1,18.2,14.1,18.2,14.1C18.2,14.1,18.2,14.1,18.2,14.1z"/>
	<path class="st3" d="M19.1,8.1C19.1,8.1,19.1,8.1,19.1,8.1c0.3,0,0.5,0.1,0.6,0.3c0.1,0.2-0.1,0.4-0.3,0.5
		c-0.2,0.2-0.5,0.3-0.8,0.2c-0.4-0.1-0.5-0.4-0.3-0.7C18.5,8.2,18.7,8.1,19.1,8.1z"/>
	<path class="st3" d="M4.8,16.1c0.4,0,0.6,0.3,0.4,0.6c-0.2,0.3-0.6,0.6-1,0.5c-0.3,0-0.5-0.3-0.3-0.6C4.2,16.2,4.5,16.1,4.8,16.1z"
		/>
	<path class="st2" d="M9.6,19.5c0.3,0,0.4,0.1,0.5,0.2c0.1,0.2,0,0.3-0.1,0.4c-0.3,0.3-0.6,0.5-1,0.4c-0.3-0.1-0.4-0.4-0.2-0.6
		C9,19.6,9.3,19.5,9.6,19.5z"/>
	<path class="st3" d="M18,8.2c-0.1,0-0.2-0.1-0.3-0.1c-0.2-0.1-0.2-0.3-0.1-0.4c0.2-0.4,0.7-0.6,1.1-0.4c0.2,0.1,0.3,0.3,0.2,0.5
		C18.7,8,18.3,8.2,18,8.2z"/>
	<path class="st2" d="M15.9,18c0-0.4,0.4-0.8,0.8-0.7c0.3,0.1,0.4,0.3,0.3,0.6c-0.1,0.2-0.2,0.4-0.4,0.5
		C16.2,18.7,15.9,18.5,15.9,18z"/>
	<path class="st3" d="M19.5,10.1c-0.2,0-0.4-0.1-0.5-0.3c-0.1-0.2,0-0.4,0.2-0.5c0.3-0.2,0.6-0.3,0.9-0.2c0.3,0.1,0.3,0.3,0.2,0.6
		C20,10,19.8,10.1,19.5,10.1z"/>
	<path class="st2" d="M18.5,16.8c0,0.4-0.3,0.7-0.6,0.7c-0.3,0-0.5-0.2-0.5-0.5c0-0.4,0.3-0.7,0.6-0.7
		C18.3,16.3,18.5,16.5,18.5,16.8z"/>
	<path class="st2" d="M16.1,8.6c-0.1-0.1-0.1-0.3,0.1-0.4c0.3-0.2,0.6-0.3,0.9-0.2c0.3,0.1,0.4,0.3,0.2,0.6c-0.3,0.4-0.6,0.5-1,0.2
		c-0.1,0-0.1,0-0.2-0.1c0,0,0,0,0,0C16.2,8.7,16.2,8.7,16.1,8.6C16.2,8.6,16.2,8.6,16.1,8.6C16.2,8.6,16.1,8.6,16.1,8.6L16.1,8.6z"
		/>
	<path class="st3" d="M14.4,19.7c-0.1,0-0.3,0-0.4-0.2c-0.1-0.2-0.1-0.3,0-0.4c0.2-0.3,0.4-0.4,0.7-0.4c0.3,0,0.5,0.3,0.4,0.6
		C15,19.4,14.7,19.7,14.4,19.7z"/>
	<path class="st3" d="M9.1,8.6c-0.1,0-0.1,0-0.2,0C8.9,8.5,8.7,8.5,8.7,8.4c0-0.1,0.1-0.2,0.1-0.3c0.4-0.3,0.8-0.4,1.2-0.2
		c0.1,0,0.2,0.1,0.2,0.2c0,0.1-0.1,0.2-0.2,0.2C9.8,8.5,9.5,8.6,9.1,8.6z"/>
	<path class="st3" d="M6.2,11.1c-0.1,0-0.2,0-0.3-0.1c-0.2-0.1-0.2-0.2-0.1-0.4C6,10.3,6.6,10.1,7,10.2c0.2,0.1,0.3,0.2,0.2,0.4
		C7,11,6.6,11.1,6.2,11.1z"/>
	<path class="st4" d="M18.3,12.7c0-0.3,0.3-0.5,0.6-0.4c0.3,0.2,0.5,0.5,0.5,0.8c-0.1,0.3-0.3,0.4-0.5,0.3
		C18.5,13.3,18.3,13,18.3,12.7z"/>
	<path class="st3" d="M17.8,10.5c-0.1,0-0.2,0-0.1-0.2c0,0,0,0,0-0.1c0,0,0,0,0,0c-0.1-0.2,0-0.3,0.2-0.3c0.2-0.1,0.4-0.1,0.7,0
		c0.3,0.1,0.4,0.3,0.3,0.6c-0.1,0.3-0.4,0.4-0.6,0.3c-0.1-0.1-0.2-0.1-0.3-0.2C17.8,10.6,17.8,10.6,17.8,10.5
		C17.8,10.5,17.8,10.5,17.8,10.5C17.8,10.5,17.8,10.5,17.8,10.5z"/>
	<path class="st3" d="M20.2,11.1c-0.1,0-0.2-0.1-0.3-0.1c-0.2-0.1-0.2-0.3-0.1-0.5c0.2-0.3,0.6-0.5,1-0.3c0.2,0.1,0.3,0.3,0.1,0.5
		C20.8,11,20.5,11.1,20.2,11.1z"/>
	<path class="st3" d="M4.2,21.2c-0.2,0-0.4-0.1-0.5-0.3c-0.1-0.2,0-0.4,0.2-0.5c0.2-0.2,0.6-0.3,0.8-0.1c0.1,0.1,0.1,0.2,0.1,0.4
		C4.8,21,4.4,21.2,4.2,21.2z"/>
	<path class="st3" d="M15.8,8c-0.2,0-0.3-0.1-0.4-0.2c-0.1-0.2,0-0.3,0.1-0.4C15.7,7.1,16,7,16.3,7.1c0.3,0.1,0.4,0.4,0.2,0.6
		C16.3,7.9,16.1,8,15.8,8z"/>
	<path class="st3" d="M5,13.3c-0.3,0-0.5-0.2-0.4-0.5c0.1-0.3,0.6-0.6,0.9-0.6c0.1,0,0.3,0.1,0.3,0.2c0,0.1,0,0.3-0.1,0.3
		C5.5,13.1,5.3,13.3,5,13.3z"/>
	<path class="st4" d="M18.6,16.1c0.1-0.2,0.1-0.3,0.2-0.5c0.2-0.3,0.5-0.2,0.7,0c0.2,0.3,0.1,0.7-0.2,0.9c-0.2,0.1-0.4,0.1-0.6-0.1
		C18.7,16.3,18.7,16.2,18.6,16.1z"/>
	<path class="st4" d="M8,8.4c0.1,0,0.2,0,0.3,0.1c0.1,0.1,0.2,0.2,0.1,0.3C8,9.2,7.6,9.3,7.2,9.3C6.9,9.3,6.8,9,7,8.8
		C7.2,8.6,7.6,8.5,8,8.4z"/>
	<path class="st3" d="M20.5,7.4c0.2,0,0.5,0.1,0.5,0.3c0.1,0.2,0,0.4-0.3,0.5c-0.2,0.2-0.5,0.2-0.7,0.1c-0.2-0.1-0.3-0.3-0.1-0.6
		C20,7.5,20.2,7.4,20.5,7.4z"/>
	<path class="st3" d="M19.6,7.4c-0.1,0-0.2-0.1-0.3-0.1C19.1,7.2,19,7,19.1,6.8c0.2-0.3,0.7-0.5,1-0.3c0.2,0.1,0.3,0.3,0.1,0.5
		C20.1,7.2,19.9,7.4,19.6,7.4z"/>
	<path class="st3" d="M3.6,18.7c0.1,0,0.2,0.1,0.3,0.2c0.1,0.1,0.1,0.3,0,0.4c-0.2,0.3-0.5,0.4-0.8,0.3c-0.2-0.1-0.4-0.3-0.2-0.6
		C3,18.9,3.2,18.7,3.6,18.7z"/>
	<path class="st3" d="M18.5,11.4c0,0,0-0.1,0-0.1c0-0.2,0-0.3,0.2-0.3c0.2,0,0.4,0,0.6,0c0.2,0,0.3,0.2,0.3,0.4
		c0,0.2-0.1,0.4-0.3,0.5c-0.1,0.1-0.3,0.1-0.4,0C18.7,11.7,18.6,11.5,18.5,11.4C18.5,11.4,18.5,11.4,18.5,11.4z"/>
	<path class="st3" d="M4.1,14.7c0.3,0,0.5,0.2,0.3,0.5c-0.2,0.3-0.4,0.5-0.7,0.5c-0.3,0-0.4-0.2-0.3-0.5C3.5,14.9,3.7,14.7,4.1,14.7
		z"/>
	<path class="st3" d="M21,15c-0.3,0-0.5-0.1-0.5-0.3c-0.1-0.2,0-0.4,0.3-0.5c0.2-0.1,0.4-0.2,0.6-0.1c0.3,0.1,0.4,0.4,0.2,0.6
		C21.4,14.9,21.2,15,21,15z"/>
	<path class="st3" d="M19.9,14.1c0,0.3-0.1,0.5-0.3,0.5c-0.2,0.1-0.4,0-0.5-0.2C19,14.2,19,14,19,13.8c0.1-0.3,0.4-0.4,0.6-0.2
		C19.8,13.7,19.9,13.9,19.9,14.1z"/>
	<path class="st3" d="M20.4,13c0.1,0,0.2,0.1,0.3,0.1c0.2,0.1,0.2,0.3,0.1,0.4c-0.1,0.2-0.3,0.4-0.6,0.4c0,0,0,0-0.1,0
		c-0.1,0-0.3-0.2-0.4-0.5c0-0.2,0-0.3,0.2-0.4C20.2,13,20.3,13,20.4,13z"/>
	<path class="st4" d="M7.2,21.6c-0.2-0.1-0.3-0.1-0.4-0.2c-0.1-0.1-0.2-0.2-0.1-0.3c0.1-0.3,0.6-0.5,0.9-0.3
		c0.3,0.1,0.3,0.4,0.1,0.6C7.5,21.5,7.3,21.5,7.2,21.6z"/>
	<path class="st4" d="M17.6,6.3c0.1,0,0.2,0,0.3,0.1c0.2,0.1,0.2,0.3,0.1,0.4c-0.1,0.3-0.6,0.4-0.9,0.3c-0.3-0.1-0.4-0.4-0.1-0.6
		C17.2,6.4,17.4,6.3,17.6,6.3z"/>
	<path class="st4" d="M21.2,11.2c0.2,0,0.4,0.1,0.5,0.3c0.1,0.2,0,0.4-0.2,0.5c-0.2,0.1-0.4,0.2-0.7,0.1c-0.3-0.1-0.3-0.4-0.1-0.6
		C20.8,11.3,21,11.2,21.2,11.2C21.2,11.1,21.2,11.2,21.2,11.2z"/>
	<path class="st4" d="M12.7,19.9c0.2,0,0.4,0.1,0.4,0.3c0.1,0.2,0,0.3-0.2,0.4c-0.2,0.2-0.5,0.2-0.8,0.1c-0.2-0.1-0.2-0.3-0.1-0.4
		C12.1,20,12.4,19.9,12.7,19.9z"/>
	<path class="st4" d="M11.1,8c-0.2,0-0.3,0-0.4-0.1c-0.2-0.1-0.3-0.3-0.1-0.4c0.2-0.2,0.5-0.2,0.8-0.2c0.1,0,0.2,0,0.4,0.1
		c0.1,0,0.2,0.1,0.2,0.2c0,0.1-0.1,0.2-0.2,0.2C11.5,7.9,11.2,8,11.1,8z"/>
	<path class="st3" d="M19.7,11.9c0.3,0,0.5,0.2,0.5,0.4c0,0.2-0.3,0.6-0.5,0.6c-0.2,0-0.5-0.4-0.5-0.6C19.2,12,19.4,11.9,19.7,11.9z
		"/>
	<path class="st4" d="M13.5,8.5c-0.2,0-0.4-0.1-0.6-0.2c-0.1-0.1-0.1-0.2,0-0.3c0.3-0.2,0.9-0.2,1.2,0c0.2,0.2,0.2,0.3,0,0.4
		C13.8,8.4,13.6,8.4,13.5,8.5z"/>
	<path class="st4" d="M20.9,9.2c-0.1,0-0.3,0-0.3-0.2c-0.1-0.2,0-0.3,0.1-0.4c0.2-0.2,0.5-0.3,0.7-0.2c0.2,0.1,0.3,0.3,0.1,0.5
		C21.5,9.2,21.3,9.2,20.9,9.2z"/>
	<path class="st4" d="M21.7,16c-0.2,0-0.4-0.1-0.4-0.2c-0.1-0.2,0-0.3,0.2-0.4c0.2-0.2,0.5-0.2,0.7-0.1c0.2,0.1,0.2,0.2,0.1,0.4
		C22.2,15.9,21.9,16,21.7,16z"/>
	<path class="st5" d="M20.4,15.3C20.4,15.3,20.4,15.4,20.4,15.3c0,0.3-0.2,0.5-0.3,0.5c-0.2,0-0.3-0.2-0.4-0.4c0-0.2,0-0.4,0-0.5
		c0.1-0.2,0.3-0.3,0.4-0.1C20.3,14.9,20.4,15.1,20.4,15.3C20.5,15.3,20.4,15.3,20.4,15.3z"/>
	<path class="st4" d="M21.3,5.7c0.1,0,0.1,0,0.2,0c0.3,0.1,0.3,0.3,0.1,0.5c-0.2,0.2-0.5,0.3-0.8,0.2c-0.2-0.1-0.3-0.2-0.2-0.4
		C20.8,5.8,21,5.7,21.3,5.7z"/>
	<path class="st6" d="M9,7.1c0.1,0,0.2,0,0.3,0.1c0.1,0.1,0.1,0.2,0,0.2C9.1,7.7,8.7,7.8,8.3,7.8c-0.1,0-0.2-0.1-0.2-0.1
		c0-0.1,0-0.2,0.1-0.2C8.4,7.2,8.7,7.2,9,7.1z"/>
	<path class="st4" d="M19,18.1c0,0.3-0.1,0.5-0.3,0.6c-0.2,0.1-0.5,0-0.5-0.3c0-0.2,0.1-0.4,0.3-0.5c0.1-0.1,0.3-0.1,0.3,0
		C18.9,17.9,19,18,19,18.1z"/>
	<path class="st3" d="M21.7,13c-0.2,0-0.3-0.1-0.4-0.2c-0.1-0.2,0-0.3,0.2-0.4c0.2-0.2,0.4-0.2,0.7-0.1c0.2,0.1,0.2,0.3,0.1,0.4
		C22.2,12.9,22,13,21.7,13z"/>
	<path class="st4" d="M15.9,6.4c0,0.1,0,0.1,0,0.2c-0.1,0.3-0.5,0.5-0.8,0.4c-0.2-0.1-0.3-0.2-0.2-0.4c0.1-0.3,0.5-0.4,0.8-0.3
		C15.8,6.3,15.8,6.4,15.9,6.4z"/>
	<path class="st3" d="M18.8,6.4c-0.1-0.1-0.3-0.1-0.3-0.2c-0.1-0.1,0-0.3,0.1-0.4c0.2-0.2,0.4-0.2,0.6-0.2c0.2,0.1,0.3,0.2,0.2,0.4
		C19.3,6.2,19.1,6.3,18.8,6.4C18.8,6.4,18.8,6.4,18.8,6.4z"/>
	<path class="st7" d="M5.5,10.1c-0.1,0-0.2-0.1-0.2-0.1c0-0.1,0-0.2,0.1-0.3c0.2-0.2,0.4-0.4,0.7-0.4c0.1,0,0.2,0.1,0.3,0.1
		c0,0.1-0.1,0.2-0.1,0.3C6.1,10,5.8,10.1,5.5,10.1z"/>
	<path class="st4" d="M17,19.8c-0.2,0-0.3-0.1-0.3-0.3c0-0.3,0.3-0.6,0.6-0.6c0.2,0,0.4,0.2,0.3,0.4C17.4,19.6,17.2,19.8,17,19.8z"
		/>
	<path class="st4" d="M21.7,10.2c-0.1,0-0.3-0.1-0.3-0.2c-0.1-0.2,0.1-0.3,0.2-0.4c0.2-0.1,0.4-0.2,0.6-0.1c0.2,0.1,0.3,0.3,0.1,0.5
		C22.2,10.1,21.9,10.2,21.7,10.2z"/>
	<path class="st4" d="M6.9,8.4c-0.1,0-0.2,0-0.3-0.1c-0.1,0-0.2-0.1-0.1-0.3c0.2-0.2,0.8-0.4,1.1-0.3C7.7,7.8,7.7,8,7.6,8.1
		C7.5,8.3,7.2,8.4,6.9,8.4z"/>
	<path class="st5" d="M4.2,12.1C4.2,12.1,4.1,12,4,12c0-0.1,0-0.2,0-0.3c0.2-0.3,0.4-0.4,0.8-0.4c0.1,0,0.2,0.1,0.2,0.1
		c0,0,0,0.2,0,0.2C4.8,11.9,4.6,12,4.2,12.1z"/>
	<path class="st5" d="M22.4,6.9c0,0.3-0.2,0.4-0.4,0.5c-0.2,0.1-0.4,0.1-0.5-0.1c-0.1-0.1-0.1-0.2-0.1-0.3c0.1-0.3,0.6-0.5,0.8-0.3
		C22.3,6.8,22.4,6.9,22.4,6.9z"/>
	<path class="st4" d="M19.4,17.3c0-0.1,0.1-0.3,0.1-0.4c0.1-0.2,0.4-0.2,0.5,0c0.1,0.2,0.1,0.7-0.2,0.8c-0.2,0.1-0.3,0.1-0.4-0.1
		C19.4,17.5,19.4,17.4,19.4,17.3z"/>
	<path class="st4" d="M2.6,18.1c-0.2,0-0.4-0.1-0.4-0.3c0-0.2,0.3-0.5,0.5-0.5c0.2,0,0.4,0.1,0.4,0.3C3.1,17.9,2.9,18.1,2.6,18.1z"
		/>
	<path class="st7" d="M14.5,7.6c0.3,0,0.5,0.1,0.7,0.3c0.2,0.1,0.1,0.3-0.1,0.4c-0.3,0.1-0.7-0.1-0.9-0.3c-0.1-0.1-0.1-0.3,0.1-0.3
		C14.4,7.6,14.5,7.6,14.5,7.6z"/>
	<path class="st7" d="M21.1,17.2c0.3,0,0.4,0.2,0.4,0.4c0,0.2-0.3,0.5-0.6,0.5c-0.2,0-0.3-0.1-0.2-0.3
		C20.7,17.3,20.8,17.1,21.1,17.2z"/>
	<path class="st5" d="M10.6,21.1c0,0,0.2,0.1,0.2,0.2c0,0.1,0,0.2-0.1,0.3c-0.1,0.2-0.4,0.3-0.6,0.3c-0.1,0-0.2-0.1-0.2-0.2
		c0-0.1,0-0.2,0-0.3C10,21.3,10.2,21.2,10.6,21.1z"/>
	<path class="st4" d="M12.6,7.6c-0.2,0-0.3-0.1-0.5-0.1c-0.2-0.1-0.2-0.2,0-0.3C12.4,7,13,7,13.2,7.3c0.1,0.1,0.1,0.2-0.1,0.2
		C13,7.5,12.8,7.6,12.6,7.6z"/>
	<path class="st7" d="M22.7,16.3c0.1,0.1,0.3,0.1,0.3,0.2c0.1,0.2,0,0.3-0.2,0.4c-0.2,0.1-0.3,0.2-0.5,0.1c-0.2-0.1-0.2-0.2-0.2-0.4
		C22.3,16.5,22.5,16.4,22.7,16.3z"/>
	<path class="st6" d="M3.1,14.3c-0.1,0-0.2-0.1-0.2-0.2c0-0.1,0-0.2,0-0.3c0.1-0.2,0.4-0.3,0.6-0.3c0.2,0.1,0.3,0.2,0.2,0.4
		C3.5,14.2,3.4,14.3,3.1,14.3z"/>
	<path class="st5" d="M22.4,14.1c-0.1,0-0.2-0.1-0.2-0.2c-0.1-0.1,0-0.2,0.1-0.3c0.2-0.2,0.4-0.2,0.6-0.1c0.2,0.1,0.2,0.2,0.1,0.4
		C22.9,14,22.7,14,22.4,14.1z"/>
	<path class="st6" d="M16.8,6.2c-0.2-0.1-0.3-0.1-0.4-0.3c0-0.2,0-0.3,0.2-0.3c0.1-0.1,0.3-0.1,0.5-0.1c0.1,0,0.2,0.1,0.2,0.1
		c0,0.1,0,0.2-0.1,0.3C17.1,6,16.9,6.1,16.8,6.2z"/>
	<path class="st6" d="M15.5,20.2c0.2,0,0.3,0.1,0.3,0.3c0,0.2-0.3,0.5-0.5,0.5c-0.2,0-0.3-0.1-0.3-0.3
		C14.9,20.4,15.2,20.2,15.5,20.2z"/>
	<path class="st4" d="M5.2,21.8C5.3,21.9,5.5,22,5.5,22c0.1,0.1,0,0.3-0.1,0.3c-0.1,0.1-0.3,0.1-0.5,0.2c-0.1,0-0.2-0.1-0.2-0.2
		c0-0.1,0-0.2,0.1-0.3C4.9,22,5.1,21.9,5.2,21.8z"/>
	<path class="st7" d="M20.3,5.6c-0.1-0.1-0.2-0.1-0.3-0.2c0-0.1,0-0.2,0.1-0.3c0.1-0.2,0.4-0.3,0.6-0.2C20.9,5,21,5.1,20.9,5.2
		C20.7,5.4,20.6,5.5,20.3,5.6z"/>
	<path class="st6" d="M2.4,22C2.2,22,2,21.9,2,21.7c0-0.2,0.2-0.4,0.4-0.4c0.2,0,0.3,0.1,0.3,0.3C2.8,21.8,2.6,22,2.4,22z"/>
	<path class="st5" d="M13.4,6c0.1,0.1,0.3,0.1,0.3,0.2c0.1,0.2-0.1,0.3-0.2,0.3c-0.2,0.1-0.4,0.1-0.6,0.1c-0.2-0.1-0.2-0.2-0.1-0.3
		C12.9,6.2,13.1,6.1,13.4,6z"/>
	<path class="st5" d="M22.5,11.1c-0.2,0-0.3-0.1-0.3-0.3c0-0.2,0.2-0.4,0.5-0.4c0.2,0,0.4,0.1,0.4,0.3C23,10.9,22.8,11.1,22.5,11.1z
		"/>
	<path class="st7" d="M10.4,7.2c-0.2,0-0.3-0.1-0.5-0.1c-0.1,0-0.1-0.2,0-0.2c0.3-0.2,0.7-0.2,1,0C11,6.9,11,7,11,7
		c0,0.1-0.1,0.1-0.1,0.1C10.7,7.2,10.6,7.2,10.4,7.2z"/>
	<path class="st4" d="M20.9,16.4c-0.1,0.1-0.1,0.3-0.2,0.4c-0.1,0.1-0.2,0.1-0.3,0c-0.2-0.2-0.2-0.4-0.1-0.7c0-0.1,0.1-0.2,0.2-0.2
		c0.1,0,0.2,0.1,0.2,0.1C20.8,16.2,20.8,16.3,20.9,16.4z"/>
	<path class="st6" d="M22.5,8.4c-0.2,0-0.3-0.1-0.3-0.3c0-0.2,0.2-0.4,0.5-0.4c0.2,0,0.4,0.1,0.3,0.3C23,8.1,22.8,8.4,22.5,8.4z"/>
	<path class="st6" d="M22.5,5.7c-0.2,0-0.3-0.1-0.3-0.2c0-0.2,0.2-0.4,0.5-0.4C22.9,5,23,5.1,23,5.3C23,5.5,22.8,5.7,22.5,5.7z"/>
	<path class="st6" d="M5,9.2c0,0-0.2,0-0.2-0.1c0-0.1,0-0.2,0.1-0.2c0.2-0.1,0.4-0.2,0.6-0.3c0.1,0,0.2,0,0.2,0.1c0,0,0,0.2-0.1,0.2
		C5.5,9.1,5.3,9.2,5,9.2z"/>
	<path class="st6" d="M14,6.9c0.1,0.1,0.3,0.1,0.4,0.2c0,0,0.1,0.2,0,0.2c0,0-0.1,0.1-0.2,0.1c-0.3-0.1-0.5-0.1-0.7-0.2
		c0,0-0.1-0.1-0.1-0.1c0,0,0.1-0.1,0.1-0.1C13.7,6.9,13.9,6.9,14,6.9C14,6.9,14,6.9,14,6.9z"/>
	<path class="st7" d="M21.7,19c-0.2,0-0.3-0.1-0.3-0.2c0-0.2,0.2-0.4,0.4-0.4c0.2,0,0.4,0.1,0.4,0.3C22.2,18.8,22,19,21.7,19z"/>
	<path class="st8" d="M3.9,11c-0.1-0.1-0.2-0.1-0.3-0.2c0-0.1,0-0.2,0.1-0.2c0.1-0.2,0.3-0.3,0.6-0.2c0.2,0,0.2,0.2,0.1,0.3
		C4.2,10.8,4,10.9,3.9,11z"/>
	<path class="st6" d="M23.8,14.7c0,0.2-0.1,0.3-0.3,0.3c-0.2,0.1-0.4,0-0.4-0.1c0,0,0,0,0-0.1c0-0.1,0.1-0.3,0.3-0.4
		C23.5,14.5,23.7,14.5,23.8,14.7C23.8,14.7,23.8,14.7,23.8,14.7z"/>
	<path class="st4" d="M1.9,16.7c-0.2,0-0.3-0.2-0.2-0.4c0.1-0.2,0.2-0.3,0.4-0.3c0.2,0,0.3,0.1,0.2,0.3C2.3,16.5,2.1,16.7,1.9,16.7z
		"/>
	<path class="st6" d="M14.5,5.9c0,0-0.1-0.1-0.2-0.1c0-0.1,0-0.2,0-0.3c0.1-0.2,0.4-0.3,0.6-0.2c0.1,0.1,0.2,0.2,0.1,0.3
		C14.9,5.9,14.8,5.9,14.5,5.9z"/>
	<path class="st6" d="M18.2,5.3c-0.1-0.1-0.2-0.1-0.3-0.2c-0.1-0.1,0-0.2,0.2-0.3c0.2-0.1,0.4-0.1,0.5,0c0,0,0.1,0.1,0.1,0.2
		C18.6,5.2,18.4,5.3,18.2,5.3z"/>
	<path class="st6" d="M23.4,18.1c-0.2,0-0.3-0.1-0.3-0.2c0-0.2,0.2-0.3,0.4-0.3c0.2,0,0.3,0.1,0.3,0.2C23.8,18,23.6,18.1,23.4,18.1z
		"/>
	<path class="st6" d="M2,20.2c0,0.2-0.2,0.4-0.4,0.4c-0.2,0-0.3-0.1-0.3-0.3c0-0.2,0.2-0.4,0.4-0.4C1.9,19.9,2,20,2,20.2z"/>
	<path class="st8" d="M6.1,7.8C6,7.7,6,7.7,5.9,7.6C6,7.6,6,7.5,6,7.5c0.2-0.1,0.5-0.2,0.7-0.3c0.1,0,0.1,0,0.2,0.1
		c0,0.1-0.1,0.2-0.1,0.2C6.6,7.6,6.4,7.7,6.1,7.8z"/>
	<path class="st7" d="M21.8,4.7c-0.1,0-0.3,0-0.3-0.2c0-0.2,0.2-0.4,0.4-0.4c0.2,0,0.3,0.1,0.3,0.2C22.3,4.5,22.1,4.7,21.8,4.7z"/>
	<path class="st4" d="M23.3,12.1c-0.2,0-0.3-0.1-0.3-0.2c0-0.2,0.2-0.3,0.4-0.3c0.2,0,0.3,0.1,0.3,0.2
		C23.8,11.9,23.5,12.1,23.3,12.1z"/>
	<path class="st8" d="M23.5,8.7c0.1,0.1,0.2,0.1,0.3,0.2c0,0.2-0.1,0.2-0.2,0.3c0,0,0,0,0,0c-0.1,0-0.3,0-0.4-0.1c0,0,0-0.1,0-0.2
		C23.1,8.8,23.3,8.7,23.5,8.7z"/>
	<path class="st6" d="M8.1,23c-0.1-0.1-0.3-0.1-0.3-0.2c-0.1-0.1,0.1-0.2,0.2-0.3c0.1,0,0.3-0.1,0.4-0.1c0.2,0,0.2,0.2,0.1,0.3
		C8.3,22.8,8.2,22.9,8.1,23z"/>
	<path class="st8" d="M8.7,6.8c0,0-0.1,0-0.1,0.1C8.3,6.9,8,7,7.8,7.1c0,0-0.1-0.1-0.2-0.1c0,0,0.1-0.1,0.1-0.1
		c0.2-0.1,0.5-0.2,0.7-0.2C8.5,6.6,8.6,6.7,8.7,6.8C8.7,6.7,8.7,6.8,8.7,6.8z"/>
	<path class="st6" d="M13.3,22c-0.1,0-0.2,0-0.2-0.2c0-0.2,0.2-0.4,0.4-0.4c0.2,0,0.3,0.1,0.3,0.2C13.7,21.9,13.5,22,13.3,22z"/>
	<path class="st8" d="M23.3,6.6C23.2,6.5,23,6.5,23,6.4c0-0.1,0.1-0.2,0.1-0.3c0.1-0.1,0.4-0.1,0.5,0c0.1,0,0.1,0.2,0.1,0.2
		C23.6,6.5,23.5,6.5,23.3,6.6z"/>
	<path class="st7" d="M19.9,18.6c0.1-0.2,0.1-0.3,0.2-0.4c0-0.1,0.2-0.1,0.2-0.1c0.1,0,0.2,0.1,0.1,0.2c0,0.2-0.1,0.3-0.2,0.5
		c0,0-0.2,0.1-0.2,0C20,18.8,19.9,18.7,19.9,18.6z"/>
	<path class="st7" d="M2.5,13.1c-0.2,0-0.2-0.1-0.2-0.3c0.1-0.2,0.4-0.3,0.5-0.3c0.1,0,0.2,0.1,0.1,0.3C2.9,12.9,2.7,13.1,2.5,13.1z
		"/>
	<path class="st8" d="M19.4,19.3c0,0.3-0.2,0.5-0.3,0.5c-0.2,0-0.2-0.1-0.2-0.2c0-0.2,0.2-0.4,0.3-0.4
		C19.3,19.2,19.3,19.3,19.4,19.3z"/>
	<path class="st6" d="M11.8,6.9c-0.1,0-0.2,0-0.3-0.1c-0.1,0-0.1-0.1,0-0.2c0.2-0.1,0.5-0.1,0.7-0.1c0.1,0,0.1,0.1,0.1,0.1
		c-0.1,0-0.1,0.1-0.2,0.1C12.1,6.9,11.9,6.9,11.8,6.9z"/>
	<path class="st8" d="M9.7,6.3c0.1,0,0.2,0,0.3,0.1c0,0,0.1,0.1,0.1,0.1c0,0,0,0.1-0.1,0.1c-0.2,0.1-0.5,0.1-0.7,0
		c-0.1-0.1-0.1-0.1,0-0.2C9.5,6.3,9.6,6.3,9.7,6.3z"/>
	<path class="st8" d="M3.2,23.3c-0.1,0-0.3-0.1-0.3-0.2c0-0.1,0.2-0.3,0.3-0.2c0.2,0,0.3,0.1,0.3,0.2C3.6,23.2,3.4,23.3,3.2,23.3z"
		/>
	<path class="st8" d="M19.6,4.5c0,0-0.1-0.1-0.1-0.2c0-0.1,0.2-0.3,0.3-0.3c0.1,0,0.3,0,0.3,0.2C20.1,4.3,19.8,4.5,19.6,4.5z"/>
	<path class="st6" d="M16.1,5.1c-0.1,0-0.2,0-0.2-0.2c0-0.1,0.2-0.3,0.4-0.3c0.1,0,0.2,0,0.2,0.2C16.5,5,16.3,5.1,16.1,5.1z"/>
	<path class="st8" d="M12.7,5.3c0,0,0.1,0.1,0.1,0.2c0,0.1-0.2,0.3-0.4,0.3c-0.1,0-0.2,0-0.2-0.2C12.3,5.4,12.5,5.2,12.7,5.3z"/>
	<path class="st6" d="M18,20.6c0,0.2-0.2,0.4-0.3,0.4c-0.1,0-0.2-0.1-0.2-0.2c0-0.2,0.2-0.3,0.3-0.3C17.9,20.4,18,20.4,18,20.6z"/>
	<path class="st9" d="M4.5,8.5c0-0.1-0.1-0.2-0.1-0.2C4.5,8.2,4.8,8,5,8c0,0,0.1,0,0.1,0.1c0,0,0,0.1,0,0.1C4.9,8.3,4.8,8.4,4.5,8.5
		z"/>
	<path class="st6" d="M24.3,15.6c0.1,0,0.2,0,0.2,0.2c0,0.1-0.2,0.3-0.3,0.3c-0.1,0-0.2-0.1-0.2-0.2C23.9,15.8,24.1,15.6,24.3,15.6z
		"/>
	<path class="st9" d="M24.1,13.1c0,0-0.1-0.1-0.2-0.2c0-0.1,0.1-0.2,0.3-0.3c0.2,0,0.3,0.1,0.3,0.2C24.5,13,24.3,13.1,24.1,13.1z"/>
	<path class="st6" d="M10.8,6.2C11,6,11.2,5.9,11.4,6c0.1,0,0.1,0.1,0.1,0.2c0,0-0.1,0.1-0.1,0.1C11.2,6.3,11,6.3,10.8,6.2z"/>
	<path class="st8" d="M24.2,9.8c0.1,0.1,0.2,0.1,0.2,0.2c0,0.1-0.2,0.3-0.3,0.3c-0.1,0-0.2,0-0.2-0.2C23.8,9.9,24,9.8,24.2,9.8z"/>
	<path class="st9" d="M24,4.8c0,0-0.1-0.1-0.2-0.2c0-0.1,0.2-0.3,0.3-0.2c0.1,0,0.2,0.1,0.3,0.2C24.4,4.6,24.2,4.8,24,4.8z"/>
	<path class="st8" d="M24,7.4c0,0-0.1-0.1-0.1-0.2C23.8,7.1,24,7,24.2,7c0.1,0,0.2,0.1,0.2,0.2C24.4,7.3,24.2,7.4,24,7.4z"/>
	<path class="st9" d="M3.2,10c0-0.2,0.4-0.5,0.6-0.4c0.1,0.1,0.1,0.2,0,0.2C3.6,10,3.4,10,3.2,10z"/>
	<path class="st8" d="M23.3,3.8c0,0-0.1-0.1-0.2-0.2c0-0.1,0.2-0.3,0.3-0.2c0.1,0,0.2,0.1,0.2,0.2C23.7,3.7,23.5,3.8,23.3,3.8z"/>
	<path class="st8" d="M0.9,19c0,0-0.1-0.1-0.1-0.2c0-0.1,0.1-0.3,0.3-0.3c0.1,0,0.2,0.1,0.2,0.2C1.3,18.9,1.1,19,0.9,19z"/>
	<path class="st10" d="M5.5,7.1c0.1-0.2,0.5-0.4,0.8-0.3C6.3,7,5.8,7.2,5.5,7.1z"/>
	<path class="st8" d="M1.3,15.3c0,0-0.1-0.1-0.1-0.1c0-0.1,0.2-0.3,0.3-0.3c0.1,0,0.1,0.1,0.1,0.1C1.7,15.1,1.5,15.3,1.3,15.3z"/>
	<path class="st8" d="M24.2,19.2C24.1,19.1,24,19.1,24,19c0-0.1,0.1-0.2,0.2-0.2c0.1,0,0.3,0,0.2,0.1C24.4,19,24.3,19.1,24.2,19.2z"
		/>
	<path class="st10" d="M0.9,22.7c-0.2-0.1-0.3-0.1-0.2-0.2c0-0.1,0.1-0.2,0.2-0.2c0.1,0,0.2,0.1,0.2,0.2C1.1,22.5,1,22.6,0.9,22.7z"
		/>
	<path class="st10" d="M14,5c-0.1-0.1-0.2-0.1-0.2-0.2c0-0.1,0.1-0.2,0.3-0.2c0.1,0,0.1,0.1,0.2,0.1C14.2,4.8,14.1,4.9,14,5z"/>
	<path class="st11" d="M7.9,6.3C7.8,6.5,7.4,6.6,7.2,6.5C7.3,6.3,7.7,6.2,7.9,6.3z"/>
	<path class="st8" d="M6.9,6.1c0,0-0.1-0.1-0.1-0.1c0-0.1,0.2-0.2,0.3-0.2c0.1,0,0.2,0.1,0.2,0.1C7.3,6,7.1,6.1,6.9,6.1z"/>
	<path class="st9" d="M10.5,5.6c-0.1-0.1-0.1-0.2-0.2-0.2c0.1-0.1,0.2-0.2,0.3-0.2c0,0,0.1,0.1,0.2,0.1C10.7,5.4,10.6,5.5,10.5,5.6z
		"/>
	<path class="st11" d="M17.6,4.3c-0.1-0.1-0.1-0.1-0.2-0.2C17.5,4.1,17.6,4,17.7,4c0,0,0.1,0.1,0.2,0.1C17.8,4.2,17.7,4.2,17.6,4.3z
		"/>
	<path class="st9" d="M2,11.9c0-0.1,0-0.1,0-0.2c0,0,0,0,0-0.1c0.1-0.1,0.2-0.2,0.4-0.1c0,0,0,0.1,0,0.1C2.3,11.8,2.2,11.9,2,11.9
		C2.1,11.9,2.1,11.9,2,11.9z"/>
	<path class="st11" d="M21.2,3.7C21.1,3.6,21,3.6,21,3.5c0.1-0.1,0.2-0.2,0.3-0.2c0,0,0.1,0.1,0.2,0.1C21.4,3.5,21.3,3.6,21.2,3.7z"
		/>
	<path class="st10" d="M16.2,21.7c0,0,0.1,0.1,0.1,0.1c-0.1,0.1-0.2,0.2-0.2,0.3c0-0.1-0.1-0.1-0.1-0.2C15.9,21.8,16,21.7,16.2,21.7
		z"/>
	<path class="st10" d="M11.2,23.2C11.1,23.1,11,23,11.1,23c0.1-0.1,0.1-0.2,0.2-0.2c0,0,0.1,0.1,0.2,0.1
		C11.4,23,11.3,23.1,11.2,23.2z"/>
	<path class="st10" d="M4.1,7.8c0.1-0.2,0.4-0.3,0.6-0.2C4.6,7.7,4.4,7.8,4.1,7.8z"/>
	<path class="st9" d="M22.6,19.6c0.1,0.1,0.2,0.2,0.2,0.2c-0.1,0.1-0.2,0.1-0.2,0.2c0,0-0.1-0.1-0.1-0.2
		C22.4,19.8,22.5,19.7,22.6,19.6z"/>
	<path class="st11" d="M20.3,19.7c0.1-0.1,0.1-0.2,0.2-0.3c0,0,0.1,0,0.1,0c0,0.1,0,0.2,0,0.3c0,0-0.1,0.1-0.1,0.1
		C20.4,19.8,20.4,19.7,20.3,19.7z"/>
	<path class="st9" d="M6.1,23.9c-0.1-0.1-0.1-0.2-0.2-0.2c0.1-0.1,0.1-0.1,0.2-0.2c0.1,0,0.1,0.1,0.2,0.1
		C6.2,23.7,6.1,23.7,6.1,23.9z"/>
	<path class="st10" d="M9.4,6C9.2,6.1,9,6.1,8.8,6C8.9,5.8,9.2,5.8,9.4,6z"/>
	<path class="st9" d="M25,13.7c0.1,0.1,0.2,0.1,0.2,0.2c-0.1,0.1-0.1,0.1-0.2,0.2c0,0-0.1-0.1-0.1-0.2C24.8,13.9,24.9,13.8,25,13.7z
		"/>
	<path class="st10" d="M24.9,8c0.1,0.1,0.1,0.1,0.2,0.2C25,8.2,25,8.3,24.9,8.4c0,0-0.1-0.1-0.1-0.1C24.7,8.1,24.8,8.1,24.9,8z"/>
	<path class="st8" d="M25.2,11c-0.1,0-0.2,0.1-0.3,0.1c0,0-0.1-0.1-0.1-0.2c0-0.1,0.1-0.2,0.2-0.1C25,10.9,25.1,10.9,25.2,11
		C25.2,11,25.2,11,25.2,11z"/>
	<path class="st10" d="M24.8,5.3C24.9,5.4,25,5.4,25,5.5c-0.1,0.1-0.1,0.1-0.2,0.2c0,0-0.1-0.1-0.1-0.1C24.7,5.5,24.8,5.4,24.8,5.3z
		"/>
	<path class="st11" d="M25,16.8c0.1,0.1,0.1,0.1,0.2,0.2c-0.1,0.1-0.1,0.1-0.2,0.2c0,0-0.1-0.1-0.2-0.1C24.9,16.9,25,16.8,25,16.8z"
		/>
	<path class="st11" d="M5.2,6.6c0.2-0.1,0.4-0.2,0.6-0.2C5.7,6.6,5.5,6.7,5.2,6.6z"/>
	<path class="st11" d="M3.4,9C3.3,9.2,3.1,9.2,2.9,9.2C3,9,3.2,8.9,3.4,9z"/>
	<path class="st10" d="M1.9,23.8c-0.1,0.1-0.2,0.1-0.2,0.1c-0.1,0-0.1-0.1-0.1-0.2c0,0,0.1-0.1,0.1-0.1C1.7,23.7,1.8,23.7,1.9,23.8z
		"/>
	<path class="st11" d="M19.3,20.7c0.1-0.1,0.1-0.1,0.2-0.2c0,0,0.1,0.1,0.1,0.1c0,0.1-0.1,0.2-0.2,0.2
		C19.4,20.8,19.4,20.8,19.3,20.7z"/>
	<path class="st11" d="M0.2,21.3c-0.1-0.1-0.1-0.1-0.1-0.2C0.1,21,0.2,21,0.2,21c0,0,0.1,0.1,0.1,0.1C0.3,21.1,0.3,21.2,0.2,21.3z"
		/>
	<path class="st10" d="M0.4,17.6c-0.1-0.1-0.1-0.1-0.1-0.1c0-0.1,0.1-0.1,0.2-0.2c0,0,0.1,0.1,0.1,0.1C0.5,17.5,0.5,17.6,0.4,17.6z"
		/>
	<path class="st12" d="M11.8,4.5c0.1,0,0.2,0,0.3-0.1c0,0,0,0.1,0,0.1C12,4.7,11.9,4.7,11.8,4.5z"/>
	<path class="st11" d="M15.5,3.8c0.1,0,0.1,0.1,0.1,0.1c-0.1,0-0.1,0.1-0.2,0.1c0,0-0.1-0.1-0.1-0.1C15.4,3.9,15.5,3.9,15.5,3.8z"/>
	<path class="st11" d="M1.1,13.8c0,0.1,0.1,0.1,0.1,0.1C1.1,13.9,1,14,0.9,14.1c0,0-0.1-0.1-0.1-0.1C0.9,13.9,1,13.8,1.1,13.8z"/>
	<path class="st12" d="M14.3,23.1c-0.1,0-0.2,0.1-0.3,0.1c0,0,0-0.1,0-0.1C14.1,23,14.2,23,14.3,23.1z"/>
	<path class="st12" d="M25,2.9C24.9,2.9,24.8,3,24.8,3c0,0-0.1-0.1-0.1-0.1c0.1,0,0.1-0.1,0.2-0.1C24.9,2.8,24.9,2.8,25,2.9z"/>
	<path class="st9" d="M18.9,3.4C19,3.3,19,3.2,19.2,3.3c0,0,0,0.1,0,0.1C19.1,3.5,19,3.5,18.9,3.4z"/>
	<path class="st12" d="M8.5,5.4C8.4,5.3,8.4,5.2,8.3,5.2c0.1,0,0.1-0.1,0.2-0.1c0,0,0.1,0.1,0.1,0.1C8.6,5.2,8.5,5.3,8.5,5.4z"/>
	<path class="st12" d="M5.2,5.7C5.1,5.8,5,5.9,5,5.9c0,0-0.1-0.1-0.1-0.1C4.9,5.7,5,5.7,5,5.7C5.1,5.7,5.1,5.7,5.2,5.7z"/>
	<path class="st11" d="M4.2,7.2C4.1,7.2,4,7.3,3.8,7.3c0,0,0-0.1,0-0.1c0.1-0.1,0.2-0.1,0.4-0.2C4.2,7.1,4.2,7.2,4.2,7.2z"/>
	<path class="st12" d="M1.7,10.9c0.1-0.1,0.2-0.1,0.3-0.2c0,0,0,0.1,0.1,0.1C1.9,10.9,1.8,10.9,1.7,10.9C1.7,11,1.7,10.9,1.7,10.9z"
		/>
	<path class="st12" d="M21,20.9c0-0.1-0.1-0.1-0.1-0.1c0,0,0.1-0.1,0.1-0.1c0,0,0.1,0.1,0.1,0.1C21.1,20.7,21,20.8,21,20.9z"/>
	<path class="st10" d="M22.8,2.7c-0.1,0.1-0.2,0.2-0.3,0.1C22.6,2.6,22.6,2.6,22.8,2.7z"/>
	<path class="st4" d="M16.9,9.3c0.1,0.1,0.1,0.2,0.2,0.3c-0.1,0-0.2,0-0.3-0.1c-0.1-0.1-0.1-0.1-0.2-0.2C16.7,9.3,16.8,9.4,16.9,9.3
		C16.9,9.4,16.9,9.3,16.9,9.3z"/>
	<path class="st11" d="M25.9,15c-0.1,0-0.1,0.1-0.2,0.1c0,0-0.1,0-0.1-0.1c0,0,0.1-0.1,0.1-0.1C25.8,14.9,25.9,15,25.9,15z"/>
	<path class="st12" d="M25.7,9.4c-0.1-0.1-0.1-0.1-0.1-0.2c0,0,0.1-0.1,0.1-0.1c0,0,0.1,0,0.1,0.1C25.8,9.2,25.7,9.3,25.7,9.4z"/>
	<path class="st11" d="M25.9,12c-0.1,0.1-0.1,0.1-0.2,0.1c0,0-0.1,0-0.1-0.1c0,0,0.1-0.1,0.1-0.1C25.8,11.9,25.8,12,25.9,12z"/>
	<path class="st4" d="M17.6,9.9c0.1,0,0.1,0,0.2,0C17.8,9.8,17.7,9.8,17.6,9.9z"/>
	<path class="st4" d="M17.6,10.3c0,0-0.1,0-0.1-0.1C17.5,10.2,17.5,10.3,17.6,10.3z"/>
	<path class="st4" d="M17.9,9.8C17.9,9.8,17.9,9.7,17.9,9.8C17.9,9.7,18,9.7,17.9,9.8C17.9,9.8,17.9,9.8,17.9,9.8z"/>
	<path class="st4" d="M17.2,9.7c0,0,0.1,0,0.1,0.1C17.2,9.7,17.2,9.7,17.2,9.7z"/>
	<path class="st4" d="M18.2,9.2C18.2,9.2,18.1,9.2,18.2,9.2C18.1,9.2,18.1,9.2,18.2,9.2C18.2,9.2,18.2,9.2,18.2,9.2z"/>
	<path class="st4" d="M15.3,8.3c-0.1,0-0.1,0-0.2,0C15.2,8.3,15.2,8.3,15.3,8.3z"/>
	<path class="st4" d="M17.2,8.9C17.2,8.9,17.2,8.9,17.2,8.9C17.2,8.9,17.2,8.9,17.2,8.9z"/>
	<path class="st4" d="M16.9,9.1c0,0,0,0.1,0,0.1C16.9,9.2,16.9,9.2,16.9,9.1z"/>
	<path class="st4" d="M17.1,9.9C17.1,9.9,17.1,9.9,17.1,9.9C17.1,9.8,17.1,9.8,17.1,9.9C17.1,9.8,17.1,9.9,17.1,9.9z"/>
	<path class="st4" d="M16.1,9.1C16.1,9.1,16.2,9.1,16.1,9.1C16.2,9.1,16.1,9.1,16.1,9.1z"/>
	<path class="st4" d="M18.1,9C18.1,9,18,9,18.1,9C18,9,18.1,9,18.1,9z"/>
	<path class="st4" d="M17,9C17,9,17,9,17,9C17,9,17,9,17,9z"/>
	<path class="st4" d="M18.1,9.6C18.1,9.6,18.1,9.6,18.1,9.6C18.1,9.6,18.1,9.6,18.1,9.6z"/>
	<path class="st4" d="M18,9.7C18.1,9.6,18.1,9.6,18,9.7C18.1,9.6,18.1,9.6,18,9.7z"/>
	<path class="st4" d="M16.2,8.9C16.2,8.9,16.2,8.9,16.2,8.9C16.2,8.9,16.2,8.9,16.2,8.9z"/>
	<path class="st4" d="M16.2,8.8C16.2,8.8,16.2,8.8,16.2,8.8C16.2,8.8,16.2,8.8,16.2,8.8C16.3,8.8,16.3,8.8,16.2,8.8z"/>
	<path class="st4" d="M18.1,9C18.1,9,18.1,9,18.1,9C18.1,9,18.1,9,18.1,9z"/>
	<path class="st4" d="M16.9,9C16.9,9.1,16.9,9.1,16.9,9C16.9,9.1,16.9,9.1,16.9,9z"/>
	<path class="st4" d="M18.1,9.5C18.1,9.5,18.1,9.5,18.1,9.5C18.1,9.5,18.1,9.5,18.1,9.5z"/>
	<path class="st4" d="M17.5,9.8C17.5,9.8,17.5,9.8,17.5,9.8C17.5,9.8,17.5,9.8,17.5,9.8L17.5,9.8z"/>
	<path class="st4" d="M15,8.4C14.9,8.4,14.9,8.5,15,8.4C14.9,8.5,14.9,8.4,15,8.4z"/>
	<path class="st4" d="M15,8.4C15,8.4,15,8.4,15,8.4C15,8.4,15,8.4,15,8.4z"/>
	<path class="st4" d="M15.4,8.3C15.4,8.3,15.4,8.3,15.4,8.3C15.4,8.3,15.4,8.3,15.4,8.3L15.4,8.3z"/>
	<path class="st4" d="M15.3,8.3C15.3,8.3,15.3,8.3,15.3,8.3C15.3,8.3,15.3,8.3,15.3,8.3z"/>
	<path class="st4" d="M17.9,10.8C17.9,10.8,17.9,10.7,17.9,10.8C17.9,10.7,17.9,10.7,17.9,10.8z"/>
	<path class="st4" d="M17.9,10.8C17.9,10.8,17.9,10.8,17.9,10.8C17.9,10.8,17.9,10.8,17.9,10.8z"/>
	<path class="st4" d="M17.9,10.9C17.9,10.9,17.9,10.9,17.9,10.9C17.9,10.9,17.9,10.9,17.9,10.9z"/>
	<path class="st4" d="M17.7,10.2C17.7,10.3,17.7,10.3,17.7,10.2C17.7,10.3,17.7,10.3,17.7,10.2z"/>
	<path class="st4" d="M16.5,10.5C16.5,10.5,16.6,10.5,16.5,10.5C16.6,10.5,16.6,10.5,16.5,10.5C16.6,10.5,16.5,10.5,16.5,10.5z"/>
	<path class="st4" d="M15.9,9.1c0,0-0.1,0-0.1,0C15.8,9,15.8,9,15.9,9.1z"/>
	<path class="st4" d="M15.1,9.2c0,0,0,0.1,0,0.1c0,0-0.1,0-0.1,0C15.1,9.3,15.1,9.3,15.1,9.2z"/>
	<path class="st4" d="M17.8,10.5C17.8,10.5,17.8,10.5,17.8,10.5C17.8,10.5,17.8,10.5,17.8,10.5C17.8,10.5,17.8,10.5,17.8,10.5z"/>
	<path class="st4" d="M15.7,9.5C15.7,9.5,15.7,9.5,15.7,9.5C15.7,9.5,15.7,9.5,15.7,9.5z"/>
	<path class="st4" d="M15.9,9.2C15.9,9.1,15.9,9.1,15.9,9.2C15.9,9.1,15.9,9.1,15.9,9.2C15.9,9.1,15.9,9.1,15.9,9.2z"/>
	<path class="st4" d="M15.1,8.8C15.1,8.8,15.1,8.8,15.1,8.8C15.1,8.8,15.1,8.8,15.1,8.8z"/>
	<path class="st4" d="M15.1,9C15.1,9,15.1,9,15.1,9C15.1,9,15.1,9,15.1,9z"/>
	<path class="st4" d="M15.4,9C15.4,9,15.4,9,15.4,9C15.4,9,15.4,9,15.4,9z"/>
	<path class="st4" d="M15.1,8.9C15.1,8.9,15.1,8.9,15.1,8.9C15.1,8.9,15.1,8.9,15.1,8.9z"/>
	<path class="st4" d="M15.2,8.9C15.2,8.8,15.2,8.8,15.2,8.9C15.2,8.8,15.2,8.8,15.2,8.9z"/>
	<path class="st4" d="M15.1,8.8C15.1,8.8,15,8.8,15.1,8.8C15,8.8,15.1,8.8,15.1,8.8z"/>
	<path class="st4" d="M16.1,10.1C16.1,10.1,16.1,10.2,16.1,10.1C16.1,10.2,16.1,10.1,16.1,10.1z"/>
</g>
</svg>
