<?xml version="1.0" encoding="utf-8"?>
<!-- Generator: Adobe Illustrator 27.8.1, SVG Export Plug-In . SVG Version: 6.00 Build 0)  -->
<svg version="1.1" id="Ebene_1" xmlns="http://www.w3.org/2000/svg" xmlns:xlink="http://www.w3.org/1999/xlink" x="0px" y="0px"
	 viewBox="0 0 1000 286.6" style="enable-background:new 0 0 1000 286.6;" xml:space="preserve">
<style type="text/css">
	.st0{fill-rule:evenodd;clip-rule:evenodd;fill:#E5E5E5;}
	.st1{fill:#02ABBC;}
	.st2{fill:#03ABBC;}
	.st3{fill:#04ABBC;}
	.st4{fill:#05ACBC;}
	.st5{fill:#06ACBC;}
	.st6{fill:#07ACBD;}
	.st7{fill:#09ADBD;}
	.st8{fill:#08ADBD;}
	.st9{fill:#0BAEBD;}
	.st10{fill:#0FAEBE;}
	.st11{fill:#11AFBE;}
	.st12{fill:#16B1BF;}
	.st13{fill:#1FB4C1;}
	.st14{fill:#3C3C3B;}
	.st15{font-family:'MyriadPro-Bold';}
	.st16{font-size:43px;}
	.st17{font-family:'MyriadPro-Regular';}
	.st18{fill:#777776;}
	.st19{font-size:24px;}
</style>
<path class="st0" d="M0,0h1000v286.6H0V0z"/>
<g>
	<path class="st1" d="M529.4,70c0.1-0.1,0.1-0.2,0.2-0.4c0.1-0.1,0.2-0.1,0.2-0.2c0-0.1,0.1-0.1,0.1-0.1c0.1-0.1,0.2-0.1,0.3-0.2
		c0.3-0.1,0.6-0.3,0.8-0.4c0.1-0.1,0.3-0.1,0.4-0.2c1.6-0.6,3.1-0.7,4.5,0.4c0.1,0.1,0.1,0.1,0.2,0.2c0,0,0,0,0,0
		c0.1,0.1,0.1,0.1,0.2,0.2c0.1,0.2,0.2,0.4,0.3,0.6c-0.1,0.2-0.2,0.3-0.2,0.5c0.1,0,0.2,0,0.4,0c-0.1,0.5-0.2,1-0.2,1.5
		c0,0.1-0.1,0.2-0.1,0.3c0,0.1,0,0.1-0.1,0.2c-0.1,0.1-0.1,0.1-0.2,0.2c0,0,0,0,0,0c-0.1,0.1-0.1,0.2-0.2,0.3
		c-0.1,0.2-0.3,0.3-0.4,0.5c-0.1,0-0.2-0.1-0.3-0.1c-0.1,0.2-0.1,0.3-0.2,0.5c-0.1,0.1-0.2,0.1-0.2,0.2c-0.4,0.1-0.8,0.1-1.3,0.2
		c-0.2,0-0.3-0.1-0.5-0.1c0,0-0.1,0-0.2,0c-0.4-0.2-0.9-0.4-1.3-0.6c-0.2-0.1-0.4-0.2-0.6-0.3c-0.1,0.3-0.1,0.6-0.2,0.9
		c-0.1,0-0.2,0.1-0.3,0.1c0.1,0,0.2,0.1,0.3,0.1c-0.1,0.3-0.2,0.7-0.4,1c0.7,0.3,1.4,0.6,2,0.9c0.2,0.1,0.5,0.3,0.7,0.4
		c0.2,0.1,0.4,0.3,0.6,0.4c-0.4,0.7,0,0.8,0.6,0.9c0.1,0.1,0.1,0.1,0.2,0.2c0.1,0.1,0.2,0.3,0.2,0.4c0.1,0.2,0.1,0.4,0.2,0.6
		c0,0.1,0,0.1,0,0.2c0,0,0,0,0,0c0,0.1,0.1,0.2,0.1,0.2c0,0.2,0,0.3,0,0.5c0,0.1-0.1,0.2-0.1,0.3c-0.1,0.3-0.2,0.6-0.2,0.7
		c1.1,0.7,2.1,1.3,3.2,2c0.1,0.1,0.3,0,0.4,0l0,0c0.1,0.2,0.1,0.5,0.2,0.7c0.2,0.6,0.6,1.1,0.7,1.7c0.3,1.4-0.5,2.5-2,2.5
		c-1.1,0-2.2-0.4-3.1-0.6c-0.2,1-0.4,2.1-0.6,3.3c2.9,0.4,4.9,2.8,4.4,5.4c-0.2,0.8-0.7,1.4-1,2.1l0,0c-0.1,0-0.1-0.1-0.2-0.1
		c-2.9,1.1-4.5,0.7-6.2-1.9c-0.6-1.5-0.6-2.9,0.3-4.3c-1.3-0.3-2.6-0.6-3.7-0.8c-0.4,1.1-0.8,2.3-1.2,3.5c1.7,0,3.3,0.3,4.4,1.8
		c1.1,2.3,1,3.9-0.4,5.4c-1.6,1.6-4,2.1-5.9,1.1c-2.3-1.1-3-3.3-1.8-5.6c0.2-0.4,0.4-0.7,0.7-1.2c-0.9,0-1.8,0.1-2.6,0
		c-0.8-0.1-1.6-0.5-2.5-0.8c-0.1,0.3-0.2,0.6-0.2,1c0,1.6-1,2.6-2.2,3.4c-2.6,1.6-6.1,1.2-8.4-0.8c-0.1-0.1-0.3-0.1-0.5-0.2
		c0,0,0,0,0,0c0-0.1,0.1-0.3,0-0.4c-0.8-1.5-0.3-2.8,0.5-4.1c0.2-0.2,0.3-0.5,0.5-0.7c-1.9-0.2-3.7-0.5-5.6-0.7
		c0.1,1.9-1.2,3.3-2.7,4.4c-0.6,0.3-1.3,0.6-1.9,0.9c-1.7,0.4-3.5,0.7-5.2,0.2c-2.5-0.6-3.7-3-2.4-5.2c0.6-1,1.5-1.9,2.1-2.6
		c-1.1,0.1-2.4,0.2-3.8,0.2c-1.4-0.1-2.6-0.8-3.2-2.1c-0.6-1.4,0.1-2.5,0.9-3.6c1.9-2.4,6.1-3.6,9.4-1.7c0.1-0.7,0.1-1.6,0.4-2.3
		c0.3-0.7,0.8-1.3,1.2-1.8c-1.3-0.3-2.7-0.5-4-1.1c-2.7-1.2-2.8-3.2-0.4-5c0.2-0.1,0.3-0.3,0.4-0.4c0,0,0,0,0,0
		c0.1-0.1,0.3-0.2,0.4-0.2c0,0,0,0,0,0c0.1-0.1,0.3-0.2,0.4-0.2l0,0c0.8-0.1,1.5-0.4,2.3-0.4c1.5,0,3,0.2,4.5,0.3
		c0.5-0.9,1.1-1.9,1.6-2.9c-0.9-0.2-2-0.4-3.1-0.7c-0.5-0.1-1.1-0.4-1.6-0.7c-1.5-0.9-1.5-1.9-0.1-3c1.9-1.4,5.8-1.5,7.8-0.1
		c1.2,0.8,1.3,2,0.3,3c-0.2,0.2-0.4,0.4-0.5,0.5c1.6,0.3,3.3,0.5,4.9,0.8c0.2-0.5,0.4-1.2,0.9-1.6c0.5-0.4,1.3-0.6,2-0.7
		c2-0.3,3.9-0.1,5.6,1.1c0.2,0.3,0.4,0.6,0.6,0.9c0,0.1,0.1,0.1,0.1,0.2c0,0.1,0,0.1,0.1,0.2c0.1,0.1,0.1,0.3,0.2,0.4
		c-0.1,0.4-0.2,0.7-0.3,1.1c-0.1,0.2-0.2,0.4-0.3,0.6c0.2,0.1,0.3,0.1,0.5,0.2c1.1,0.3,2.1,0.6,3.2,0.9c0.1-0.2,0.2-0.4,0.2-0.5
		c-0.1-0.8,0.3-1.2,0.9-1.6c0.1,0,0.1-0.1,0.2-0.1c-0.1,0-0.2,0-0.3-0.1c-0.1,0-0.1,0-0.1,0c-0.1-0.5-0.4-0.6-0.7-0.1
		c-0.6-0.2-1.1-0.4-1.7-0.6c-0.1,0-0.2-0.1-0.3-0.1c-0.4-0.2-0.8-0.4-1.2-0.6c-0.1-0.1-0.2-0.1-0.3-0.2l0,0
		c-0.1-0.1-0.3-0.2-0.4-0.3c0,0,0,0,0,0c-0.1-0.1-0.2-0.1-0.2-0.2c-0.1,0-0.3,0-0.4,0c-0.1-0.5-0.1-1-0.2-1.5
		c0.1-0.1,0.1-0.2,0.2-0.2c0-0.1,0.1-0.1,0.1-0.2c0.1-0.1,0.2-0.1,0.3-0.2c0.1-0.1,0.3-0.1,0.4-0.2c0.3-0.1,0.6-0.1,0.9-0.2
		c0,0,0,0,0,0c0.1,0,0.1,0,0.2,0c0.3,0,0.5,0,0.8,0c0.1,0,0.1,0,0.2,0c1.1,0.4,2.1,0.8,3.2,1.2c0.2,0.1,0.4,0.2,0.6,0.3l0,0
		c0.1,0.1,0.3,0.3,0.4,0.4l0,0c0.1,0.1,0.1,0.3,0.2,0.4c0,0,0,0,0,0c0,0.2,0,0.4,0,0.6c0,0-0.1,0.1-0.1,0.1c0.1,0,0.1,0,0.2,0.1
		c0,0,0,0,0,0c0,0.1,0,0.3,0,0.4c-0.1,0.2-0.3,0.5-0.4,0.7c-0.1,0.1-0.2,0.1-0.3,0.2c1,0.4,2,0.7,3,1.1c0.3,0.4,0.6,0.9,1,1.2
		c0.3,0.3,0.8,0.3,1.5,0.5c-0.4-0.5-0.8-1-1.2-1.4c-0.1-0.1-0.1-0.1,0-0.2C529.4,70.5,529.4,70.2,529.4,70z M527.3,77.7
		c0.1,0.1,0.3,0.2,0.4,0.4c0-0.2,0-0.4,0-0.6c0.1-0.6,0.3-1.2,0.4-1.7c-1.1-0.3-2.1-0.6-3.1-0.9c0,0.3,0,0.5,0,0.7
		c0,0.1-0.1,0.1-0.1,0.2c0,0.3-0.1,0.7-0.1,0.9C525.7,77,526.5,77.4,527.3,77.7z M525.1,87.5C525.2,87.5,525.2,87.5,525.1,87.5
		C525.2,87.5,525.1,87.5,525.1,87.5c0.1-0.8,0.2-1.6,0.3-2.4c-0.8-0.2-1.6-0.4-2.4-0.7c-0.3,0.7-0.5,1.4-0.8,2.2
		C523.2,86.9,524.2,87.2,525.1,87.5z M532.6,84.5C532.6,84.5,532.6,84.6,532.6,84.5C532.6,84.6,532.6,84.6,532.6,84.5
		C532.6,84.6,532.6,84.5,532.6,84.5c0.1-0.9,0.3-1.8,0.4-2.7c-0.9-0.3-2-0.5-2.9-0.8c-0.1,0.8-0.3,1.5-0.4,2.2
		C530.6,83.7,531.6,84.1,532.6,84.5z M500.3,89.6c0.4-1.4,0.9-2.7,1.2-3.8c-1.5-0.3-3.1-0.7-4.8-1.1c0.2,2-0.9,3.5-2.8,4.5
		C496.2,88.7,498.3,88.6,500.3,89.6z M516.7,88.9c-1.1-0.2-2.3-0.4-3.2-0.6c-0.6,1-1.1,2-1.6,2.8c1.4,0.2,2.8,0.5,4.1,0.7
		C516.3,90.9,516.5,89.9,516.7,88.9z M506.3,75.1c-1.3-0.3-2.6-0.7-3.6-0.9c-0.5,1.1-1,2.1-1.4,3c1.2,0.1,2.6,0.2,3.9,0.3
		C505.6,76.6,506,75.8,506.3,75.1z M508.1,81.1c-0.4,0.9-0.8,1.6-1.2,2.4c1.2,0.1,2.4,0.2,3.5,0.4c0.3-0.7,0.5-1.4,0.8-2.1
		C510.1,81.5,509,81.3,508.1,81.1z M514.7,74c0.3-0.6,0.6-1.2,1-1.8c-1.3-0.4-2.5-0.7-3.6-1c-0.2,0.8-0.4,1.5-0.6,2.2
		C512.5,73.5,513.5,73.7,514.7,74z M517.1,79.4c0.9,0.2,1.7,0.4,2.6,0.5c0.2-0.6,0.4-1.1,0.6-1.6c-0.9-0.2-1.8-0.4-2.6-0.6
		C517.4,78.2,517.3,78.8,517.1,79.4z"/>
	<path class="st2" d="M497.7,97.7c0.6-0.3,1.3-0.6,1.9-0.9c0.2,0,0.4,0,0.5,0c2.5-0.8,4.8-0.3,6.7,1.5c0,0,0,0,0,0
		c1.6,3.6-1.2,6.6-4.6,7.2c-1.2,0.2-2.5,0.1-3.8-0.1c-1.6-0.3-3-1-3.4-2.8c-0.4-1.8,0.7-3,1.9-4.1C497.2,98.2,497.4,97.9,497.7,97.7
		z"/>
	<path class="st3" d="M488.3,112.4c-2.1-0.1-3.7-0.7-4.5-2.5c-0.8-1.8-0.2-3.4,1.1-4.7c2-2,4.5-2.8,7.3-2.1c2.8,0.7,3.8,3.1,2.2,5.5
		C492.9,110.7,490.9,112.2,488.3,112.4z"/>
	<path class="st3" d="M481.6,103.8c-0.2,0-0.7-0.1-1.2-0.2c-2.2-0.6-3.2-3-1.8-4.8c2.1-2.7,5-3.9,8.4-3.6c2.7,0.2,3.7,2.9,2.1,5.1
		C487.6,102.2,484.5,103.8,481.6,103.8z"/>
	<path class="st3" d="M505.8,114.2c-1-0.3-2-0.5-2.9-0.9c-2-0.9-2.5-3-1.4-4.9c1.5-2.4,4.6-3.7,7.3-3.1c2.6,0.6,3.7,2.9,2.5,5.2
		C510.2,112.8,508.5,114.1,505.8,114.2z"/>
	<path class="st3" d="M475,118.6c-1.7,0.1-2.9-0.7-3.6-2.1c-0.6-1.4-0.1-2.7,0.8-3.8c1.8-2,4-3.4,6.9-2.8c1.4,0.3,2.6,1,3.1,2.5
		c0.5,1.4-0.1,2.6-1.1,3.5C479.4,117.4,477.4,118.5,475,118.6z"/>
	<path class="st3" d="M517.5,99.4c3.5,0,5.7,2.4,4.9,5c-0.7,2.1-2.4,3.1-4.4,3.6c-1.9,0.5-3.8,0.1-5.2-1.3c-1-1.1-1.1-2.9-0.2-4.4
		C513.8,100.4,515.7,99.5,517.5,99.4z"/>
	<path class="st3" d="M495.9,111.8c0.7,0.2,1.5,0.2,2.1,0.5c1.5,0.7,2.1,2.3,1.5,3.9c-1.2,3.1-5.1,4.9-8.2,3.9
		c-2.4-0.8-3.2-3.3-1.6-5.3C490.9,113.1,493.5,111.9,495.9,111.8z"/>
	<path class="st3" d="M480.4,87.7c0.9,0.3,1.8,0.4,2.6,0.8c1.3,0.6,1.7,1.8,1.2,3.2c-1.2,3-5.4,4.9-8.4,3.9
		c-2.2-0.7-2.8-2.6-1.5-4.4C475.8,89.1,477.8,87.9,480.4,87.7z"/>
	<path class="st3" d="M473,101.6c0.7,0.2,1.5,0.3,2.1,0.6c1.4,0.6,2,1.9,1.5,3.4c-0.9,2.7-4.9,4.9-7.6,4.2c-2.3-0.6-3.1-2.5-1.9-4.6
		C468.5,103.2,470.8,101.7,473,101.6z"/>
	<path class="st3" d="M483.6,118.9c1.4-0.1,2.5,0.5,3.1,1.7c0.6,1.2,0.2,2.3-0.6,3.2c-1.6,1.9-3.7,2.9-6.2,2.8
		c-1.2-0.1-2.1-0.6-2.6-1.7c-0.5-1.1-0.3-2.1,0.4-3C479.1,120,481.2,119.1,483.6,118.9z"/>
	<path class="st3" d="M488.2,76.1c0.4,0,0.8,0,1.1,0.2c0.7,0.5,1.6,1,2,1.7c0.5,0.8-0.2,1.7-0.8,2.2c-2.1,1.9-4.6,2.8-7.5,2.6
		c-1.2-0.1-2.1-0.8-2.4-1.9c-0.3-1.1,0.4-1.8,1.1-2.4C483.6,76.9,485.8,76.3,488.2,76.1z"/>
	<path class="st3" d="M521.2,115.8c-1.3,0-2.4-0.4-3-1.6c-0.7-1.2-0.5-2.4,0.1-3.5c1.1-1.9,3.7-3.1,5.6-2.7c2.1,0.4,3.1,2.4,2.3,4.4
		C525.5,114.3,523.3,115.7,521.2,115.8z"/>
	<path class="st3" d="M510.2,121.9c-1.3,0-2.3-0.5-2.9-1.6c-0.6-1.1-0.3-2.2,0.4-3.2c1.4-1.9,4.2-3.2,6.2-2.7c1.8,0.4,2.7,2.1,2,3.8
		C515.1,120.2,512.5,121.9,510.2,121.9z"/>
	<path class="st3" d="M535.2,106c0,2.4-1.9,4.3-4.3,4.3c-2.1,0-3.7-1.5-3.7-3.6c0-2.4,2-4.5,4.3-4.4
		C533.6,102.3,535.2,103.9,535.2,106z"/>
	<path class="st3" d="M469,120.3c-0.1,1.5-1.1,2.8-2.8,3.4c-1.8,0.7-3.6,0.7-5.2-0.6c-0.8-0.7-0.9-1.6-0.6-2.5
		c0.8-2.7,4.3-4.3,6.9-3.3C468.5,117.7,469.1,118.6,469,120.3z"/>
	<path class="st3" d="M493.2,72.4c-1.2,0-2.4,0.1-3.6,0c-1.8-0.2-2.8-1-3-2.1c-0.1-1.1,0.8-2.4,2.3-3c2.1-0.9,4.3-1.1,6.4-0.3
		c2,0.8,2.3,2.1,0.7,3.6c-0.6,0.5-1.3,0.9-1.9,1.4c0,0,0,0,0,0c-0.1,0.1-0.3,0.2-0.4,0.2c0,0,0,0,0,0
		C493.5,72.2,493.4,72.3,493.2,72.4L493.2,72.4z"/>
	<path class="st3" d="M476.7,81.5c1.1,0,2,0.3,2.6,1.3c0.5,1,0.1,1.9-0.5,2.6c-1.7,2.1-3.9,3-6.7,2.7c-1.1-0.1-1.9-0.7-2.3-1.8
		c-0.3-1.1,0.3-1.9,1-2.5C472.5,82.4,474.6,81.8,476.7,81.5z"/>
	<path class="st4" d="M498.6,128.3c-2.5,0-3.9-2.2-2.8-4.5c1.2-2.4,4.5-3.5,6.7-2.2c1.1,0.7,1.5,1.7,1.1,2.9
		C503,126.6,500.8,128.3,498.6,128.3z"/>
	<path class="st4" d="M479.9,76.8c-0.8-0.3-1.7-0.4-2.5-0.8c-1.1-0.5-1.2-1.5-0.7-2.5c1.3-2.4,5.9-3.8,8.4-2.5
		c1.2,0.6,1.5,1.6,0.7,2.7C484.5,75.9,482.4,76.6,479.9,76.8z"/>
	<path class="st4" d="M466.2,101.5c-2.3,0-3.5-1.8-2.6-3.9c1-2.3,4.1-3.7,6.5-2.8c1.5,0.5,2,1.7,1.4,3.1
		C470.7,99.9,468.3,101.5,466.2,101.5z"/>
	<path class="st4" d="M468.8,132.9c-2.5,0-3.9-2.3-2.9-4.5c1-2.2,3.8-3.2,6-2.2c1.5,0.6,2,1.9,1.5,3.4
		C472.8,131.5,470.8,132.9,468.8,132.9z"/>
	<path class="st4" d="M537,97.9c2.8-0.2,4.5,1,4.8,3.4c0.2,1.3-0.2,2.4-1.2,3.4c-1.2,1.1-2.8,1.2-4,0.2c-2-1.7-2-5,0.1-6.6
		C536.8,98.1,536.9,98,537,97.9C537,97.9,537,97.9,537,97.9z"/>
	<path class="st4" d="M541.7,64c0.1,0,0.2,0,0.3,0c1.5,0.1,2.7,0.8,2.9,1.9c0.3,1.4-0.5,2.3-1.4,3c-1.3,1-2.8,1.4-4.5,1.1
		c-2.1-0.4-2.9-2.2-1.6-4C538.5,64.7,539.9,64,541.7,64z"/>
	<path class="st4" d="M461,109.1c2.4,0,3.5,1.7,2.5,3.5c-0.9,1.8-3.4,3.1-5.4,2.9c-1.8-0.2-2.7-1.9-1.7-3.5
		C457.4,110.2,459.2,109.3,461,109.1z"/>
	<path class="st3" d="M487.9,128.5c1.5,0,2.3,0.4,2.8,1.4c0.5,0.9,0.2,1.8-0.5,2.5c-1.4,1.6-3.2,2.6-5.4,2.1
		c-1.8-0.4-2.4-2.2-1.3-3.6C484.7,129.3,486.4,128.6,487.9,128.5z"/>
	<path class="st4" d="M535.8,64.7c-0.6-0.2-1.4-0.4-1.9-0.7c-0.9-0.6-1.1-1.5-0.7-2.5c1-2.2,4.2-3.4,6.4-2.4
		c1.3,0.6,1.6,1.6,0.9,2.9C539.7,63.5,537.7,64.6,535.8,64.7z"/>
	<path class="st3" d="M523.6,120.4c0-2.5,2.4-4.4,4.6-3.7c1.5,0.5,2.2,1.8,1.8,3.3c-0.4,1.3-1.2,2.3-2.4,3
		C525.5,124,523.6,122.8,523.6,120.4z"/>
	<path class="st4" d="M544.1,75.6c-1.3-0.1-2.4-0.4-2.8-1.6c-0.5-1.2,0.2-2,1-2.8c1.4-1.4,3.5-1.8,5.2-1.1c1.5,0.7,1.8,1.8,0.9,3.2
		C547.3,74.9,545.7,75.6,544.1,75.6z"/>
	<path class="st3" d="M538.4,113.4c0,2-1.7,4.1-3.5,4.1c-1.6,0-2.7-1.1-2.7-2.7c-0.1-2.1,1.7-4.2,3.6-4.2
		C537.3,110.5,538.4,111.7,538.4,113.4z"/>
	<path class="st3" d="M525.1,66.6c-0.5-0.8-0.3-1.5,0.4-2.1c1.6-1.4,3.3-2,5.4-1.3c1.7,0.5,2.2,1.9,1.2,3.4
		c-1.4,2.3-3.1,2.7-5.4,1.3c-0.3-0.2-0.6-0.3-1-0.4c0,0,0,0,0,0c-0.1-0.1-0.1-0.3-0.2-0.4c0,0,0,0,0,0
		C525.4,66.9,525.3,66.8,525.1,66.6L525.1,66.6z"/>
	<path class="st4" d="M515.1,129.6c-0.7,0-1.6-0.2-2-1.1c-0.5-0.9-0.3-1.7,0.2-2.5c1-1.4,2.3-2.3,4-2.4c1.8-0.1,3,1.5,2.3,3.2
		C518.9,128.3,517,129.6,515.1,129.6z"/>
	<path class="st4" d="M485.6,66.8c-0.3,0-0.7,0-0.9-0.1c-0.6-0.3-1.3-0.7-1.5-1.1c-0.1-0.5,0.3-1.3,0.7-1.7c2-1.8,4.4-2.2,7-1.3
		c0.5,0.2,1.1,0.7,1.2,1.1c0.1,0.4-0.5,1.1-0.9,1.4C489.5,66.3,487.6,66.7,485.6,66.8z"/>
	<path class="st4" d="M469.1,81c-0.4-0.1-1.1-0.2-1.7-0.4c-1-0.4-1.2-1.2-0.7-2.1c1.1-1.9,4.5-3.3,6.6-2.5c1.2,0.4,1.5,1.3,1,2.4
		C473.2,80.4,471.4,80.8,469.1,81z"/>
	<path class="st5" d="M537.2,90.2c0-1.9,1.7-3,3.5-2.1c1.7,0.9,2.9,3.1,2.6,4.6c-0.4,1.5-1.5,2.1-2.9,1.6
		C538.7,93.7,537.2,91.8,537.2,90.2z"/>
	<path class="st4" d="M534.5,77.7c-0.6,0-1-0.1-0.6-0.9c0.1-0.1,0.2-0.3,0.2-0.4c0-0.1,0-0.1-0.1-0.2c-0.3-1.2-0.2-1.5,1-1.9
		c1.2-0.4,2.4-0.7,3.7-0.3c1.6,0.5,2.3,1.9,1.7,3.5c-0.7,1.8-2,2.5-3.7,1.7c-0.6-0.3-1.2-0.6-1.9-0.9c-0.1-0.1-0.2-0.3-0.2-0.4
		c0-0.2-0.1-0.3-0.1-0.5C534.6,77.5,534.5,77.6,534.5,77.7z"/>
	<path class="st4" d="M548.2,81.1c-0.4-0.1-1.1-0.3-1.7-0.6c-1-0.6-1.3-1.7-0.7-2.7c1.1-1.9,3.7-2.7,5.6-1.7
		c1.3,0.7,1.7,1.8,0.8,3.1C551.4,80.3,550.1,81,548.2,81.1z"/>
	<path class="st4" d="M457.4,138.5c-1.3,0-2.4-0.7-2.8-1.7c-0.4-1,0.1-2.2,1-3c1.4-1.2,3.5-1.4,4.7-0.4c0.5,0.5,0.8,1.4,0.8,2
		C460.9,136.9,459,138.4,457.4,138.5z"/>
	<path class="st4" d="M523.5,63.4c-1.2,0-1.9-0.4-2.4-1.2c-0.5-0.9-0.1-1.7,0.5-2.3c1.3-1.5,2.8-2.2,4.8-1.7c1.9,0.5,2.4,2,1.1,3.4
		C526.3,62.7,524.9,63.3,523.5,63.4z"/>
	<path class="st4" d="M461.9,93.7c-1.9,0-2.7-1.1-2-2.6c0.8-1.8,3.2-3.4,5.1-3.1c0.6,0.1,1.5,0.5,1.8,1.1c0.2,0.5,0,1.4-0.4,1.9
		C465.2,92.5,463.6,93.4,461.9,93.7z"/>
	<path class="st5" d="M539.4,109.2c0.3-0.9,0.6-1.9,1.1-2.7c1-1.5,3-1.4,3.9,0.2c0.9,1.6,0.4,4.1-1,5.2c-1,0.8-2.5,0.6-3.2-0.6
		C539.8,110.7,539.7,110,539.4,109.2z"/>
	<path class="st5" d="M479,65.9c0.4,0.1,1.2,0.2,1.8,0.5c0.8,0.4,1,1.1,0.4,1.7c-1.9,1.9-4.2,2.8-6.8,2.5c-1.4-0.1-1.8-1.4-0.9-2.5
		C474.8,66.6,476.6,66.1,479,65.9z"/>
	<path class="st4" d="M550,60c1.4,0,2.6,0.7,2.9,1.5c0.3,0.9-0.2,2-1.5,2.9c-1.3,0.9-2.7,1.2-4.2,0.5c-1.4-0.6-1.7-2-0.8-3.1
		C547.3,60.7,548.5,60,550,60z"/>
	<path class="st4" d="M544.7,60c-0.7-0.2-1.4-0.4-1.9-0.7c-0.9-0.5-1.1-1.6-0.6-2.5c1-1.8,3.7-2.7,5.5-1.8c1.3,0.6,1.7,1.9,0.7,3.1
		C547.5,59.2,546.3,59.9,544.7,60z"/>
	<path class="st4" d="M454.2,124.2c0.4,0.2,1.2,0.6,1.7,1.2c0.6,0.8,0.3,1.7-0.1,2.5c-1,1.7-2.8,2.5-4.4,1.9c-1.4-0.5-2-1.9-1.3-3.3
		C450.8,125,452.1,124.3,454.2,124.2z"/>
	<path class="st4" d="M538.5,82.8c-0.1-0.3-0.1-0.5-0.2-0.8c-0.2-1.1,0.2-1.8,1.3-2c1.1-0.1,2.2-0.1,3.3,0.1c1,0.2,1.6,1,1.6,2
		c0.1,1.3-0.7,2.3-1.7,3c-0.8,0.6-1.7,0.3-2.4-0.2C539.8,84.2,539.2,83.5,538.5,82.8C538.5,82.8,538.5,82.8,538.5,82.8z"/>
	<path class="st4" d="M456.8,101.7c1.9,0,2.8,1.4,1.8,3c-0.9,1.5-2.1,2.7-4.1,2.6c-1.7-0.1-2.5-1.4-1.8-2.9
		C453.4,102.8,455,101.7,456.8,101.7z"/>
	<path class="st4" d="M552.8,103.2c-1.5,0-2.7-0.7-3-1.7c-0.3-1,0.2-2,1.5-2.8c1-0.6,2.1-0.9,3.3-0.5c1.7,0.5,2.2,2.2,1,3.6
		C554.9,102.6,553.8,103.1,552.8,103.2z"/>
	<path class="st4" d="M546.6,98.1c0,1.7-0.6,2.6-1.4,2.9c-1,0.3-2.2-0.1-2.9-1.1c-0.8-1.1-1.1-2.4-0.7-3.7c0.5-1.7,2.1-2.1,3.4-1
		C546.1,96.1,546.6,97.2,546.6,98.1z"/>
	<path class="st4" d="M549.5,91.6c0.7,0.2,1.4,0.4,1.9,0.7c1,0.6,1.2,1.5,0.7,2.5c-0.7,1.3-1.8,2.1-3.3,2.5c-0.1,0-0.3,0.1-0.4,0.1
		c-0.7-0.1-1.8-1.4-2-2.6c-0.1-0.9-0.2-1.9,0.9-2.4C548,92.1,548.8,91.9,549.5,91.6z"/>
	<path class="st5" d="M474.3,140.6c-0.9-0.3-1.6-0.5-2.2-0.9c-0.7-0.4-0.9-1.1-0.6-2c0.7-1.9,3.4-3,5.2-2c1.5,0.8,1.7,2.5,0.4,3.5
		C476.3,139.9,475.2,140.2,474.3,140.6z"/>
	<path class="st5" d="M533.6,53.8c0.6,0.2,1.2,0.2,1.7,0.5c1,0.5,1.3,1.5,0.7,2.5c-0.8,1.5-3.3,2.4-4.9,1.8c-1.6-0.6-2-2.2-0.7-3.4
		C531.3,54.3,532.3,53.8,533.6,53.8z"/>
	<path class="st5" d="M553.8,81.5c1.3,0,2.3,0.6,2.6,1.5c0.3,1-0.2,2-1.3,2.8c-1.2,0.8-2.4,1-3.7,0.4c-1.5-0.7-1.8-2.4-0.5-3.4
		c0.8-0.6,1.9-1,2.8-1.5C553.8,81.3,553.8,81.4,553.8,81.5z"/>
	<path class="st5" d="M505.5,130.7c1.1,0,2.2,0.6,2.4,1.5c0.3,1.1-0.1,1.8-0.9,2.5c-1.3,1.1-3.1,1.4-4.3,0.7c-1-0.5-1.3-1.4-0.8-2.4
		C502.4,131.7,504.1,130.7,505.5,130.7z"/>
	<path class="st5" d="M496.4,63.6c-1.1-0.2-1.8-0.2-2.5-0.5c-1.3-0.4-1.5-1.5-0.4-2.4c1.3-1.1,2.9-1.3,4.5-1.1
		c0.7,0.1,1.4,0.3,2,0.6c0.4,0.2,1,0.7,1,1.1c0,0.4-0.5,1-0.9,1.1C498.8,63,497.5,63.3,496.4,63.6z"/>
	<path class="st4" d="M545.4,85.7c1.8,0,3,0.9,3,2.1c0,1.3-1.9,3.4-3,3.4c-1.2,0-2.8-2-2.9-3.6C542.5,86.4,543.5,85.7,545.4,85.7z"
		/>
	<path class="st5" d="M510,66.2c-1.3-0.2-2.5-0.4-3.5-1.3c-0.6-0.6-0.6-1.3,0.1-1.8c1.5-1.2,5.1-1.2,6.6,0c1.1,0.9,1.1,1.8-0.2,2.3
		C512.1,65.8,511.1,65.9,510,66.2z"/>
	<path class="st5" d="M552.5,70.5c-0.6,0-1.5-0.2-1.9-1.2c-0.4-1,0.1-1.8,0.8-2.5c1.1-1.1,2.8-1.5,4.1-0.9c1.3,0.6,1.7,1.9,0.8,3
		C555.4,70,554.2,70.5,552.5,70.5z"/>
	<path class="st5" d="M556.9,109c-1.1-0.1-2-0.4-2.4-1.4c-0.4-0.9,0.2-1.7,0.9-2.3c1.3-1.1,2.7-1.3,4-0.6c1,0.5,1.3,1.4,0.7,2.4
		C559.3,108.3,558.1,108.8,556.9,109z"/>
	<path class="st6" d="M549.5,105.1c0,0.1,0,0.1,0,0.2c-0.1,1.5-0.9,2.5-1.9,2.6c-0.9,0-1.8-0.9-2-2.3c-0.1-1-0.1-2.1,0.2-3.1
		c0.4-1.2,1.6-1.4,2.4-0.5c0.7,0.8,1,1.9,1.5,2.9C549.7,105,549.6,105,549.5,105.1z"/>
	<path class="st5" d="M554.4,50.6c0.3,0.1,0.7,0.1,1,0.2c1.5,0.5,1.8,1.5,0.8,2.8c-1,1.2-2.9,1.9-4.3,1.4c-1.1-0.4-1.5-1.3-0.9-2.4
		C551.7,51.3,552.9,50.7,554.4,50.6z"/>
	<path class="st7" d="M484.9,58.6c0.4,0.1,1.2,0.2,1.9,0.5c0.7,0.3,0.8,0.9,0.2,1.4c-1.8,1.3-3.9,1.9-6.2,1.7c-0.4,0-1-0.5-1.1-0.8
		c-0.1-0.4,0.2-1,0.5-1.3C481.4,59,483,58.7,484.9,58.6z"/>
	<path class="st5" d="M541.4,120.5c-0.1,1.8-0.7,2.9-1.9,3.5c-1.4,0.8-2.9-0.1-2.9-1.7c0-1.3,0.6-2.4,1.7-3.1
		c0.5-0.3,1.4-0.4,1.9-0.2C540.8,119.3,541.2,120.1,541.4,120.5z"/>
	<path class="st4" d="M556.9,92.1c-0.9-0.1-1.8-0.3-2.2-1.3c-0.3-0.9,0.2-1.6,0.9-2.2c1.2-1,2.5-1.2,3.9-0.6
		c1.1,0.5,1.3,1.4,0.6,2.4C559.3,91.4,558.3,92,556.9,92.1z"/>
	<path class="st5" d="M523.8,54.6c-0.1,0.5-0.2,0.7-0.2,0.9c-0.6,1.5-2.9,2.5-4.4,2.1c-1.2-0.4-1.6-1.2-1-2.3
		c0.8-1.6,3.1-2.5,4.6-1.7C523.2,53.7,523.5,54.3,523.8,54.6z"/>
	<path class="st4" d="M540.4,54.4c-0.6-0.4-1.5-0.7-1.9-1.3c-0.5-0.8,0-1.7,0.7-2.3c1-1,2.2-1.3,3.6-0.9c1.2,0.4,1.6,1.3,1,2.4
		c-0.7,1.2-1.8,1.8-3.2,1.8C540.5,54.2,540.5,54.3,540.4,54.4z"/>
	<path class="st8" d="M464.7,75.6c-0.3-0.2-1-0.4-1.2-0.8c-0.2-0.4,0.1-1.1,0.4-1.5c1.1-1.2,2.5-2.1,4.2-2.3
		c0.6-0.1,1.2,0.4,1.9,0.6c-0.2,0.6-0.3,1.2-0.7,1.6C468.1,74.6,466.6,75.3,464.7,75.6z"/>
	<path class="st5" d="M529.9,130.4c-1.2,0-1.8-0.7-1.8-1.9c0-1.6,1.7-3.2,3.3-3.2c1.4,0,2.1,1,1.7,2.3
		C532.6,129.2,531.2,130.4,529.9,130.4z"/>
	<path class="st5" d="M556.8,76c-0.7-0.1-1.6-0.3-1.9-1.3c-0.3-1.1,0.3-1.7,1.1-2.3c1-0.7,2.1-1,3.3-0.5c1.3,0.5,1.6,1.8,0.7,2.8
		C559.3,75.5,558.1,76,556.8,76z"/>
	<path class="st5" d="M472.7,65.7c-0.6-0.1-1.3-0.1-1.9-0.3c-0.8-0.3-0.9-0.8-0.4-1.4c1.1-1.4,4.3-2.3,6-1.7c1,0.3,1.2,1.1,0.5,1.9
		C476.2,65.1,474.8,65.6,472.7,65.7z"/>
	<path class="st6" d="M457.7,86.7c-0.3-0.2-0.9-0.4-1.1-0.7c-0.2-0.4-0.1-1.1,0.2-1.4c1-1.5,2.5-2.3,4.3-2.5
		c0.5-0.1,1.1,0.3,1.4,0.7c0.2,0.3,0.1,1-0.2,1.3C461.2,85.6,459.7,86.4,457.7,86.7z"/>
	<path class="st6" d="M560.7,57.4c-0.3,1.5-1.1,2.2-2.2,2.6c-1,0.5-2.1,0.5-2.9-0.4c-0.3-0.3-0.4-1.1-0.3-1.6
		c0.6-1.8,3.2-2.6,4.7-1.6C560.3,56.8,560.5,57.2,560.7,57.4z"/>
	<path class="st5" d="M543.5,116.2c0.2-0.7,0.4-1.5,0.8-2.2c0.7-1.2,2.1-1.2,2.8,0c0.8,1.3,0.3,3.7-0.9,4.6
		c-0.9,0.6-1.8,0.4-2.2-0.6C543.7,117.5,543.7,116.9,543.5,116.2z"/>
	<path class="st5" d="M448.7,120.9c-1.2,0-2.2-0.8-2.2-1.8c0-1.3,1.5-2.7,3-2.7c1.3,0,2.1,0.7,2.1,1.8
		C451.6,119.7,450.3,120.9,448.7,120.9z"/>
	<path class="st8" d="M516,61c1.5,0.1,2.8,0.5,3.9,1.4c1,0.8,0.7,1.7-0.4,2.1c-1.5,0.5-4.2-0.3-5.1-1.5c-0.6-0.7-0.4-1.5,0.5-1.8
		C515.3,61,515.7,61,516,61z"/>
	<path class="st8" d="M553.3,115.3c1.5,0,2.5,0.9,2.4,2c-0.1,1.3-1.7,2.6-3.3,2.6c-0.9,0-1.4-0.7-1.4-1.8
		C551.1,116.2,551.8,115.3,553.3,115.3z"/>
	<path class="st6" d="M493.6,138c0.2,0.2,1,0.5,1.2,1c0.2,0.5,0,1.3-0.4,1.7c-0.8,1.1-2,1.7-3.4,1.5c-0.5-0.1-1.2-0.5-1.4-0.9
		c-0.2-0.4,0-1.2,0.3-1.6C490.7,138.6,491.8,138.1,493.6,138z"/>
	<path class="st5" d="M505.3,61.3c-0.9-0.3-1.9-0.4-2.7-0.8c-0.9-0.4-0.9-1.1-0.2-1.7c1.4-1.1,4.9-0.8,6.1,0.5
		c0.5,0.5,0.3,1.1-0.3,1.3C507.3,60.9,506.3,61.1,505.3,61.3z"/>
	<path class="st8" d="M562.5,110.6c0.7,0.5,1.6,0.8,1.9,1.4c0.5,0.9-0.3,1.6-1,2.1c-0.9,0.6-1.9,1-3,0.6c-1-0.4-1.4-1.2-0.9-2.2
		C560.1,111.4,561.1,110.9,562.5,110.6z"/>
	<path class="st7" d="M451.2,99.1c-0.3-0.2-1-0.4-1.2-0.9c-0.2-0.4-0.1-1.2,0.2-1.6c0.7-1.3,2.1-1.8,3.3-1.5
		c1.2,0.3,1.6,1.2,0.9,2.3C453.8,98.4,452.8,99,451.2,99.1z"/>
	<path class="st6" d="M560.9,97.8c-0.3-0.2-1-0.5-1.4-1c-0.5-0.7,0-1.4,0.5-2c1-1,2.4-1.2,3.6-0.6c0.9,0.5,1.1,1.2,0.5,2
		C563.4,97.2,562.4,97.7,560.9,97.8z"/>
	<path class="st7" d="M528.7,53.2c-1-0.3-1.9-0.5-2.2-1.4c-0.3-0.9,0.3-1.6,1-1.9c0.8-0.4,1.7-0.6,2.6-0.6c0.4,0,1.2,0.4,1.3,0.8
		c0.2,0.5,0,1.4-0.4,1.7C530.4,52.4,529.5,52.8,528.7,53.2z"/>
	<path class="st7" d="M521.4,132.4c1,0,1.8,0.7,1.8,1.6c0,1.3-1.6,2.6-3,2.6c-1.1,0-1.8-0.7-1.8-1.5
		C518.4,133.8,520,132.4,521.4,132.4z"/>
	<path class="st5" d="M463.4,141.7c0.7,0.5,1.4,0.8,1.7,1.4c0.4,0.7,0,1.5-0.6,1.9c-0.8,0.4-1.8,0.8-2.7,0.9c-0.4,0-1.2-0.6-1.4-1.1
		c-0.2-0.4,0.1-1.3,0.4-1.6C461.5,142.6,462.4,142.3,463.4,141.7z"/>
	<path class="st8" d="M549,49.6c-0.5-0.3-1.3-0.6-1.5-1.1c-0.2-0.5,0-1.3,0.4-1.8c0.8-1.1,2.3-1.4,3.6-0.9c0.9,0.4,1.1,1.2,0.5,2
		C551.3,48.8,550.4,49.4,549,49.6z"/>
	<path class="st7" d="M447.2,143c-1.1,0-1.9-0.8-1.8-1.9c0-1.3,1.1-2.3,2.3-2.3c1.1,0,1.9,0.8,1.9,1.8
		C449.6,141.9,448.5,143,447.2,143z"/>
	<path class="st6" d="M509.5,52.3c0.6,0.4,1.5,0.6,1.8,1.2c0.5,0.9-0.4,1.4-1,2c-1,0.8-2.1,0.8-3.3,0.3c-0.9-0.4-1-0.9-0.6-1.7
		C506.9,53.2,508.1,52.6,509.5,52.3z"/>
	<path class="st6" d="M561.4,81.3c-1.1,0-1.8-0.6-1.8-1.5c0-1.2,1.3-2.3,2.7-2.4c1.2,0,2.1,0.6,2.1,1.5
		C564.4,80.1,562.8,81.3,561.4,81.3z"/>
	<path class="st8" d="M493,59.1c-0.9-0.2-1.9-0.3-2.9-0.7c-0.8-0.3-0.8-0.9-0.1-1.3c1.8-1,3.7-1.1,5.6-0.2c0.3,0.1,0.7,0.7,0.6,0.9
		c0,0.3-0.5,0.7-0.8,0.8C494.6,58.9,493.9,59,493,59.1z"/>
	<path class="st5" d="M552.2,111c-0.3,0.8-0.6,1.7-1,2.4c-0.4,0.7-1.1,0.7-1.6,0.1c-0.9-1.2-1.1-2.5-0.7-3.9c0.1-0.4,0.7-0.9,1.2-1
		c0.3-0.1,0.9,0.4,1.2,0.7C551.6,109.8,551.8,110.4,552.2,111z"/>
	<path class="st7" d="M561.4,65.5c-1,0-1.8-0.6-1.8-1.5c0-1.2,1.4-2.3,2.8-2.3c1.2,0,2,0.7,2,1.5C564.3,64.3,562.7,65.5,561.4,65.5z
		"/>
	<path class="st7" d="M561.5,50.3c-1.1,0-1.8-0.5-1.8-1.4c0-1.1,1.3-2.2,2.7-2.2c1.1,0,2,0.6,2,1.4
		C564.4,49.1,562.8,50.3,561.5,50.3z"/>
	<path class="st7" d="M461.9,70.5c-0.2-0.1-0.9-0.2-0.9-0.5c-0.1-0.4,0.2-1,0.5-1.2c1.1-0.7,2.2-1.3,3.4-1.8c0.4-0.1,1,0.3,1.4,0.6
		c0.1,0.1-0.2,0.9-0.5,1.2C464.8,69.8,463.6,70.4,461.9,70.5z"/>
	<path class="st7" d="M513.2,57c0.8,0.4,1.6,0.8,2.3,1.3c0.3,0.2,0.3,0.9,0.2,1.3c-0.1,0.2-0.7,0.5-1,0.4c-1.4-0.3-2.8-0.8-4.2-1.2
		c-0.2-0.1-0.5-0.5-0.4-0.7c0.1-0.2,0.4-0.5,0.7-0.5c0.8-0.2,1.5-0.2,2.3-0.3C513.1,57.1,513.2,57.1,513.2,57z"/>
	<path class="st8" d="M556.9,125.7c-1.1,0-1.8-0.5-1.8-1.3c0-1,1.2-2.1,2.3-2.1c1.1,0,2.1,0.7,2.1,1.4
		C559.5,124.8,558.2,125.7,556.9,125.7z"/>
	<path class="st9" d="M455.7,80.5c-0.7-0.4-1.3-0.6-1.4-0.9c-0.1-0.4,0.1-1,0.5-1.4c0.8-0.9,1.9-1.5,3.2-1.2c1,0.2,1.3,1.1,0.6,1.7
		C457.7,79.4,456.6,79.9,455.7,80.5z"/>
	<path class="st7" d="M568.5,101.6c-0.1,1-0.8,1.5-1.7,1.8c-1,0.3-2.1,0-2.5-0.7c0-0.1-0.1-0.2-0.1-0.3c-0.2-0.8,0.6-1.7,1.7-2
		c1-0.3,2.2,0.1,2.5,0.8C568.5,101.3,568.5,101.4,568.5,101.6z"/>
	<path class="st5" d="M444.6,112.9c-1.1,0-1.7-1-1.2-2c0.5-1,1.3-1.6,2.4-1.7c1-0.1,1.5,0.5,1.3,1.5
		C446.9,111.7,445.6,112.9,444.6,112.9z"/>
	<path class="st7" d="M516,51.8c-0.2-0.1-0.8-0.3-1-0.7c-0.2-0.4,0-1,0.3-1.4c0.7-1.1,2.2-1.4,3.3-0.9c0.7,0.4,0.9,1,0.4,1.6
		C518.3,51.3,517.4,51.8,516,51.8z"/>
	<path class="st7" d="M536.9,48.4c-0.5-0.4-1.3-0.7-1.5-1.2c-0.4-0.8,0.3-1.3,0.9-1.7c0.9-0.6,2.3-0.7,3,0c0.3,0.3,0.4,0.8,0.3,1.2
		C539.3,47.5,538.1,48.2,536.9,48.4z"/>
	<path class="st7" d="M566.4,120.7c-1.2,0-2-0.5-2-1.3c0-0.9,1.2-1.9,2.2-1.9c1.1,0,1.9,0.6,1.9,1.4
		C568.6,119.9,567.7,120.7,566.4,120.7z"/>
	<path class="st7" d="M445,132.5c0,1.1-1.1,2.2-2.2,2.1c-0.9,0-1.5-0.6-1.5-1.6c0-1.1,1.1-2.1,2.2-2C444.5,131,445,131.6,445,132.5z
		"/>
	<path class="st9" d="M468.6,62.2c-0.5-0.3-0.8-0.5-1.2-0.7c0.2-0.3,0.3-0.8,0.6-0.9c1.3-0.6,2.6-1.1,4-1.6c0.3-0.1,0.8,0.2,1.2,0.4
		c-0.2,0.4-0.4,0.9-0.7,1C471.3,61.1,469.9,61.6,468.6,62.2z"/>
	<path class="st8" d="M557.5,44.8c-0.8,0-1.5-0.1-1.6-1.1c-0.1-1,1.1-2,2.3-2.1c1,0,1.8,0.5,1.8,1.3C560,43.9,558.9,44.8,557.5,44.8
		z"/>
	<path class="st5" d="M565.9,86.7c-1,0-1.7-0.6-1.7-1.3c0-0.9,1.2-1.8,2.4-1.8c1.1,0,1.8,0.5,1.8,1.2
		C568.4,85.8,567.1,86.8,565.9,86.7z"/>
	<path class="st9" d="M566.8,67.4c0.5,0.4,1.4,0.8,1.5,1.3c0.3,0.9-0.6,1.4-1.3,1.7c-0.1,0-0.1,0.1-0.2,0.1
		c-0.8-0.2-1.6-0.3-2.3-0.5c-0.1,0-0.2-0.8-0.1-1C564.8,68.1,565.5,67.5,566.8,67.4z"/>
	<path class="st7" d="M479.5,148.3c-0.7-0.5-1.4-0.8-1.7-1.4c-0.4-0.7,0.3-1.3,1-1.5c0.7-0.3,1.6-0.5,2.3-0.4c1,0.1,1.2,1.1,0.5,1.8
		C481,147.4,480.3,147.8,479.5,148.3z"/>
	<path class="st9" d="M483.1,56.8c-0.3,0.1-0.5,0.3-0.8,0.3c-1.5,0.4-3,0.9-4.5,1.3c-0.3,0.1-0.6-0.3-1-0.5c0.2-0.3,0.4-0.7,0.6-0.8
		c1.4-0.5,2.7-0.9,4.1-1.2c0.4-0.1,0.8,0.2,1.3,0.3C482.9,56.4,483,56.6,483.1,56.8z"/>
	<path class="st7" d="M508.9,143c-0.6,0-1.3-0.1-1.4-1.1c-0.1-0.9,1.2-2,2.4-2c1,0,1.7,0.5,1.6,1.2C511.5,142.1,510.4,143,508.9,143
		z"/>
	<path class="st9" d="M565.6,55.4c-0.5-0.3-1.3-0.6-1.4-1c-0.1-0.4,0.3-1.1,0.7-1.5c0.7-0.7,2-0.8,2.7-0.2c0.3,0.3,0.6,0.9,0.5,1.2
		C567.7,54.9,566.8,55.2,565.6,55.4z"/>
	<path class="st8" d="M546.4,123.7c0.3-0.9,0.5-1.6,0.9-2.3c0.2-0.3,0.9-0.6,1.2-0.5c0.4,0.1,0.9,0.8,0.8,1c-0.2,1-0.6,2-1.1,2.9
		c-0.1,0.2-0.9,0.4-1,0.2C546.9,124.7,546.6,124.2,546.4,123.7z"/>
	<path class="st8" d="M448,92.2c-0.9,0-1.3-0.6-0.9-1.5c0.4-0.9,2-1.8,3-1.7c0.8,0.1,1.1,0.7,0.8,1.4C450.4,91.3,449,92.2,448,92.2z
		"/>
	<path class="st9" d="M543.5,127.7c0,1.5-1,2.9-1.9,2.9c-0.9,0-1.1-0.6-1.1-1.4c0-1.1,1-2.5,1.9-2.3
		C542.8,127,543.3,127.6,543.5,127.7z"/>
	<path class="st7" d="M500.6,57.2c-0.5-0.1-1.2-0.2-1.8-0.5c-0.5-0.2-0.7-0.7,0-1c1.3-0.5,2.7-0.8,4.1-0.3c0.3,0.1,0.5,0.5,0.8,0.7
		c-0.3,0.2-0.6,0.5-0.9,0.6C502.1,57,501.4,57.1,500.6,57.2z"/>
	<path class="st9" d="M488.8,53.6c0.7,0.1,1.3,0.2,1.8,0.4c0.2,0.1,0.5,0.3,0.5,0.5c0,0.2-0.2,0.5-0.4,0.7c-0.9,0.7-3.1,0.7-4,0.1
		c-0.6-0.4-0.6-0.7,0-1C487.5,54,488.2,53.8,488.8,53.6z"/>
	<path class="st9" d="M452.1,150.3c-0.7,0-1.6-0.8-1.7-1.4c0-0.7,0.9-1.4,1.9-1.4c0.9,0,1.5,0.6,1.5,1.3
		C453.9,149.4,452.9,150.3,452.1,150.3z"/>
	<path class="st9" d="M544.8,43.6c-0.2-0.2-0.7-0.5-0.8-1c-0.2-0.7,1-1.5,1.9-1.5c0.7,0,1.4,0,1.5,0.9
		C547.5,42.7,546.2,43.6,544.8,43.6z"/>
	<path class="st7" d="M524.8,47.1c-0.5,0-1.2-0.2-1.2-1c0-0.8,1-1.5,2-1.5c0.7,0,1.3,0.1,1.4,1C527.1,46.3,525.9,47.1,524.8,47.1z"
		/>
	<path class="st9" d="M506,47.9c0.2,0.2,0.7,0.5,0.8,1c0.1,0.8-1.1,1.6-2.1,1.6c-0.6,0-1.1-0.2-1.2-0.9
		C503.4,48.7,504.5,47.9,506,47.9z"/>
	<path class="st7" d="M535.6,134.7c0,0.9-1,2-1.9,2c-0.7,0-1-0.4-1.1-1.1c0-0.9,1-1.9,1.8-1.9C535.1,133.7,535.6,134,535.6,134.7z"
		/>
	<path class="st10" d="M459.5,66.6c-0.2-0.7-0.5-1-0.4-1.3c0.3-0.9,2.2-1.9,3.1-1.9c0.3,0,0.6,0.1,0.7,0.3c0.1,0.2-0.1,0.6-0.3,0.7
		C461.7,65.1,460.8,65.7,459.5,66.6z"/>
	<path class="st7" d="M571.2,106.8c0.5,0.1,1.3,0.1,1.4,1c0.1,0.7-1.1,1.6-2,1.5c-0.7-0.1-1.2-0.3-1.3-1.1
		C569.3,107.4,570.1,106.8,571.2,106.8z"/>
	<path class="st10" d="M570.2,92.3c-0.2-0.2-0.7-0.6-0.9-1.1c-0.2-0.6,0.8-1.4,1.7-1.4c0.9,0,1.6,0.5,1.6,1.1
		C572.4,91.6,571.4,92.3,570.2,92.3z"/>
	<path class="st7" d="M494.8,53.3c1.2-1.3,2.5-1.7,3.5-1.1c0.3,0.2,0.7,0.6,0.6,0.9c0,0.3-0.5,0.7-0.8,0.7
		C497,54,495.9,54,494.8,53.3z"/>
	<path class="st9" d="M570.9,73.4c0.4,0.4,1.1,0.7,1.2,1.1c0.2,0.7-0.9,1.5-2,1.5c-0.6,0-1.2-0.2-1.3-0.9
		C568.9,74.4,569.8,73.6,570.9,73.4z"/>
	<path class="st10" d="M569.8,45.1c-0.2-0.2-0.8-0.4-1-0.9c-0.2-0.5,1-1.5,1.8-1.4c0.5,0.1,1.2,0.5,1.4,0.9
		C572.3,44.3,571,45.1,569.8,45.1z"/>
	<path class="st9" d="M569.7,60.3c-0.2-0.2-0.7-0.5-0.8-1c-0.1-0.6,0.9-1.5,1.7-1.3c0.5,0.1,1.2,0.5,1.4,0.9
		C572.3,59.5,571,60.3,569.7,60.3z"/>
	<path class="st10" d="M451.9,74.9c0-1.4,2.2-2.8,3.2-2.1c0.7,0.4,0.3,0.9,0,1.2C454.1,74.7,453.1,75.1,451.9,74.9z"/>
	<path class="st9" d="M565.5,40c-0.2-0.2-0.7-0.5-0.9-0.9c-0.2-0.6,0.9-1.4,1.8-1.3c0.5,0.1,1.2,0.4,1.3,0.9
		C568,39.2,566.9,40,565.5,40z"/>
	<path class="st9" d="M438.9,126c-0.2-0.2-0.6-0.6-0.7-1.1c-0.1-0.8,0.7-1.5,1.5-1.5c0.7,0,1.1,0.4,1.2,1.1
		C440.9,125.3,440.1,126,438.9,126z"/>
	<path class="st11" d="M465.2,58.5c0.7-1.1,3.1-2.1,4.4-1.8C469.5,57.8,466.4,59.1,465.2,58.5z"/>
	<path class="st9" d="M441.2,104.8c-0.1-0.2-0.4-0.4-0.5-0.8c-0.1-0.7,1.1-1.7,1.8-1.6c0.3,0.1,0.8,0.4,0.8,0.7
		C443.6,103.8,442.3,104.8,441.2,104.8z"/>
	<path class="st9" d="M570.9,127.1c-0.6-0.6-1.2-0.9-1.3-1.3c0-0.7,0.6-1.2,1.3-1.2c0.6,0,1.4,0,1.3,0.8
		C572.2,126,571.5,126.4,570.9,127.1z"/>
	<path class="st11" d="M439.2,146.5c-1-0.3-1.6-0.7-1.4-1.4c0.1-0.4,0.8-1,1.2-0.9c0.4,0,1.1,0.7,1.1,1
		C440.1,145.6,439.5,146.1,439.2,146.5z"/>
	<path class="st11" d="M513.2,46.3c-0.5-0.5-1-0.8-1.1-1.1c-0.2-0.5,0.7-1.3,1.4-1.2c0.4,0.1,0.8,0.5,1.2,0.8
		C514.3,45.2,513.8,45.7,513.2,46.3z"/>
	<path class="st12" d="M478.6,53.9c-0.9,1-3.1,1.6-4.2,1.2C475.1,54.1,477.3,53.4,478.6,53.9z"/>
	<path class="st9" d="M472.9,52.7c-0.1-0.1-0.6-0.4-0.6-0.7c-0.1-0.5,0.9-1.3,1.6-1.2c0.4,0.1,1,0.3,1.1,0.7
		C475.1,51.9,474,52.7,472.9,52.7z"/>
	<path class="st10" d="M493.2,49.8c-0.5-0.6-0.7-0.9-1-1.3c0.5-0.4,0.9-0.9,1.5-1.1c0.3-0.1,0.7,0.4,1.1,0.7
		C494.3,48.6,493.8,49.1,493.2,49.8z"/>
	<path class="st12" d="M533.2,42.7c-0.4-0.4-0.7-0.7-1-1c0.5-0.4,1-0.9,1.6-1.1c0.2-0.1,0.7,0.5,1,0.7
		C534.4,41.8,533.9,42.2,533.2,42.7z"/>
	<path class="st10" d="M445.4,85.7c-0.1-0.3-0.2-0.6-0.2-1c0-0.1,0.2-0.2,0.3-0.3c0.6-0.4,1.2-1.1,2-0.7c0.1,0.1,0.3,0.5,0.2,0.6
		c-0.6,0.5-1.2,1-1.8,1.5C445.7,85.8,445.5,85.8,445.4,85.7z"/>
	<path class="st12" d="M553.7,39.2c-0.5-0.4-0.8-0.7-1.1-1c0.5-0.4,1-0.9,1.5-1.1c0.3-0.1,0.8,0.4,1.1,0.6
		C554.8,38.3,554.3,38.7,553.7,39.2z"/>
	<path class="st11" d="M525.3,141.1c0.1,0.1,0.6,0.6,0.5,0.7c-0.4,0.5-0.9,1-1.3,1.5c-0.3-0.3-0.7-0.5-0.8-0.9
		C523.6,141.6,524.3,141.1,525.3,141.1z"/>
	<path class="st11" d="M497.3,149.7c-0.5-0.6-1-1.2-0.9-1.3c0.4-0.4,0.8-0.9,1.4-1.1c0.2-0.1,0.6,0.5,1,0.7
		C498.4,148.5,498,148.9,497.3,149.7z"/>
	<path class="st11" d="M456.8,62.3c0.7-1.2,2.1-1.8,3.3-1.4C459.8,61.9,458.4,62.5,456.8,62.3z"/>
	<path class="st10" d="M561.9,129.3c0.6,0.6,0.9,0.9,1.2,1.2c-0.5,0.4-0.9,0.8-1.4,1.1c-0.1,0.1-0.8-0.6-0.8-0.9
		C560.9,130.3,561.4,129.9,561.9,129.3z"/>
	<path class="st12" d="M548.9,129.5c0.4-0.5,0.7-1,1.1-1.5c0.1-0.1,0.6,0.1,0.6,0.2c0,0.6,0,1.2-0.2,1.7c-0.1,0.3-0.5,0.4-0.8,0.7
		C549.3,130.3,549.2,130,548.9,129.5z"/>
	<path class="st10" d="M468.1,153.4c-0.5-0.6-0.8-1-1.1-1.3c0.4-0.3,0.8-0.8,1.2-0.9c0.3,0,0.7,0.5,1,0.8
		C468.9,152.3,468.6,152.7,468.1,153.4z"/>
	<path class="st11" d="M486.9,52.1c-1.1,0.8-2.3,0.6-3.5,0.3C484.4,51.1,485.7,51,486.9,52.1z"/>
	<path class="st10" d="M575.2,95.9c0.5,0.5,0.9,0.8,1.2,1.1c-0.4,0.4-0.8,0.8-1.3,1c-0.1,0.1-0.8-0.6-0.8-0.9
		C574.3,96.8,574.8,96.5,575.2,95.9z"/>
	<path class="st11" d="M574.9,63.6c0.5,0.4,0.8,0.6,1.2,0.9c-0.4,0.4-0.8,0.8-1.3,1.1c-0.1,0.1-0.8-0.6-0.8-0.8
		C574,64.3,574.5,64,574.9,63.6z"/>
	<path class="st9" d="M576.3,80.7c-0.5,0.3-0.9,0.7-1.4,0.8c-0.2,0-0.7-0.5-0.8-0.9c-0.1-0.7,0.5-0.9,1.1-0.8
		c0.4,0.1,0.7,0.3,1.1,0.4C576.3,80.4,576.3,80.5,576.3,80.7z"/>
	<path class="st11" d="M574.5,48.2c0.6,0.4,0.9,0.7,1.2,0.9c-0.4,0.4-0.8,0.8-1.3,1c-0.1,0.1-0.8-0.5-0.7-0.7
		C573.7,49.1,574.1,48.7,574.5,48.2z"/>
	<path class="st12" d="M575.7,113.1c0.4,0.5,0.7,0.7,0.9,1c-0.4,0.3-0.7,0.8-1.1,0.9c-0.2,0.1-0.6-0.5-1-0.7
		C574.8,113.9,575.2,113.6,575.7,113.1z"/>
	<path class="st12" d="M463.3,55.7c1.1-0.8,2.1-1.3,3.4-1C466.1,55.6,464.8,56,463.3,55.7z"/>
	<path class="st12" d="M452.9,69.2c-0.6,0.9-1.5,1.4-2.6,1.3C450.5,69.3,451.7,68.7,452.9,69.2z"/>
	<path class="st11" d="M444.7,152.8c-0.6,0.4-1,0.8-1.2,0.8c-0.3-0.1-0.6-0.5-0.8-0.9c0-0.1,0.4-0.6,0.5-0.6
		C443.6,152.2,444,152.5,444.7,152.8z"/>
	<path class="st12" d="M543.3,135.5c0.5-0.4,0.8-0.7,1.2-1c0,0,0.5,0.5,0.5,0.6c-0.3,0.5-0.6,0.9-0.9,1.3
		C543.9,136.2,543.7,135.9,543.3,135.5z"/>
	<path class="st12" d="M435,138.6c-0.3-0.4-0.7-0.8-0.7-0.9c0.2-0.3,0.5-0.6,0.8-0.7c0.2,0,0.7,0.5,0.6,0.6
		C435.7,137.9,435.3,138.2,435,138.6z"/>
	<path class="st11" d="M436,118.2c-0.3-0.4-0.6-0.8-0.6-0.8c0.3-0.4,0.6-0.7,1-0.9c0.1,0,0.6,0.5,0.5,0.5
		C436.8,117.3,436.4,117.6,436,118.2z"/>
	<path class="st13" d="M500.7,43.9c0.5-0.1,1-0.2,1.5-0.3c0,0.2,0.2,0.6,0.1,0.7C501.8,44.7,501.3,45,500.7,43.9z"/>
	<path class="st12" d="M521.8,40c0.3,0.3,0.5,0.4,0.7,0.6c-0.3,0.3-0.6,0.6-1,0.7c-0.1,0.1-0.4-0.3-0.6-0.5
		C521.1,40.5,521.4,40.3,521.8,40z"/>
	<path class="st12" d="M439.8,96.1c0.2,0.4,0.5,0.7,0.5,0.7c-0.4,0.4-0.8,0.7-1.2,1c0,0-0.4-0.4-0.4-0.4
		C438.9,97,439.3,96.6,439.8,96.1z"/>
	<path class="st13" d="M514.7,149.2c-0.5,0.2-1,0.3-1.5,0.5c0-0.2-0.2-0.6-0.1-0.7C513.5,148.6,514,148.2,514.7,149.2z"/>
	<path class="st13" d="M575.6,34.5c-0.7,0.3-1,0.5-1.5,0.6c-0.2,0-0.4-0.4-0.6-0.6c0.4-0.2,0.7-0.5,1.1-0.6
		C574.9,33.9,575.1,34.2,575.6,34.5z"/>
	<path class="st10" d="M540.8,37.4c0.4-0.7,0.9-0.9,1.5-0.7c0.1,0,0.2,0.5,0.1,0.6C542,37.9,541.4,38,540.8,37.4z"/>
	<path class="st13" d="M481.9,48.6c-0.6-0.6-0.8-0.7-1-0.9c0.3-0.2,0.6-0.6,1-0.7c0.1-0.1,0.6,0.3,0.6,0.4
		C482.4,47.7,482.2,48.1,481.9,48.6z"/>
	<path class="st13" d="M463.4,50.7c-0.7,0.3-1,0.6-1.4,0.7c-0.2,0-0.4-0.3-0.6-0.4c0.3-0.2,0.7-0.5,1.1-0.7
		C462.5,50.2,462.8,50.5,463.4,50.7z"/>
	<path class="st12" d="M457.7,59c-0.7,0.3-1.4,0.5-2.1,0.8c-0.1-0.1-0.1-0.3-0.2-0.4c0.7-0.3,1.4-0.6,2.1-0.9
		C457.5,58.6,457.6,58.8,457.7,59z"/>
	<path class="st13" d="M443.3,79.9c0.5-0.3,1-0.6,1.5-1c0.1,0.2,0.2,0.3,0.3,0.5c-0.5,0.3-1,0.7-1.5,1
		C443.5,80.3,443.4,80.1,443.3,79.9z"/>
	<path class="st13" d="M552.5,136.4c-0.3-0.4-0.6-0.7-0.5-0.8c0.2-0.3,0.4-0.5,0.7-0.6c0.2,0,0.4,0.3,0.7,0.5
		C553.1,135.7,552.9,136,552.5,136.4z"/>
	<path class="st11" d="M563,33.6c-0.4,0.7-1,0.9-1.7,0.4C561.8,33.1,562.1,33,563,33.6z"/>
	<path class="st5" d="M529.4,70.9c0.4,0.5,0.7,0.9,1.2,1.4c-0.6-0.2-1.1-0.2-1.5-0.5c-0.4-0.3-0.7-0.8-1-1.2
		c0.4,0.2,0.8,0.5,1.2,0.7C529.4,71.3,529.4,71.1,529.4,70.9z"/>
	<path class="st12" d="M580.7,103.2c-0.5,0.3-0.7,0.5-1,0.5c-0.2,0-0.4-0.3-0.6-0.4c0.3-0.2,0.5-0.5,0.8-0.6
		C580.1,102.6,580.3,102.9,580.7,103.2z"/>
	<path class="st13" d="M579.3,71.3c-0.5-0.6-0.7-0.7-0.8-0.9c0.2-0.2,0.5-0.5,0.7-0.5c0.1,0,0.6,0.3,0.6,0.4
		C579.8,70.5,579.6,70.8,579.3,71.3z"/>
	<path class="st12" d="M580.6,86.2c-0.5,0.3-0.8,0.6-1.1,0.6c-0.2,0-0.4-0.2-0.6-0.4c0.2-0.2,0.4-0.5,0.6-0.6
		C579.7,85.8,580,86,580.6,86.2z"/>
	<path class="st5" d="M533.6,74c0.4-0.1,0.8-0.1,1.3-0.2C534.5,73.9,534.1,74,533.6,74z"/>
	<path class="st5" d="M533.3,76.4c-0.2-0.1-0.5-0.3-0.7-0.4C532.8,76.1,533,76.3,533.3,76.4z"/>
	<path class="st5" d="M535.1,73.7c0.1-0.2,0.1-0.3,0.2-0.5c0.1,0,0.2,0.1,0.3,0.1C535.4,73.5,535.3,73.6,535.1,73.7z"/>
	<path class="st5" d="M531.1,73c0.2,0.1,0.4,0.2,0.6,0.3C531.5,73.2,531.3,73.1,531.1,73z"/>
	<path class="st5" d="M536.8,70.5c-0.1,0-0.2,0-0.4,0c0.1-0.2,0.2-0.3,0.2-0.5C536.7,70.2,536.8,70.3,536.8,70.5z"/>
	<path class="st5" d="M520.2,65.1c-0.3,0.1-0.6,0.1-0.9,0.2C519.6,65.3,519.9,65.2,520.2,65.1z"/>
	<path class="st5" d="M531.5,68.6c-0.1,0.1-0.3,0.1-0.4,0.2C531.2,68.7,531.4,68.6,531.5,68.6z"/>
	<path class="st5" d="M529.4,70c0,0.2,0,0.5,0,0.7C529.4,70.5,529.4,70.2,529.4,70z"/>
	<path class="st5" d="M530.9,74.1c-0.1,0-0.2-0.1-0.3-0.1c0.1,0,0.2-0.1,0.3-0.1C530.9,73.9,530.9,74,530.9,74.1z"/>
	<path class="st5" d="M525.1,69.6c0.1-0.1,0.2-0.1,0.3-0.2C525.3,69.5,525.2,69.6,525.1,69.6z"/>
	<path class="st5" d="M536.2,69.2c-0.1-0.1-0.1-0.1-0.2-0.2C536,69.1,536.1,69.1,536.2,69.2z"/>
	<path class="st5" d="M530.2,69.2c-0.1,0.1-0.2,0.1-0.3,0.2C530,69.3,530.1,69.3,530.2,69.2z"/>
	<path class="st5" d="M536.2,72.6c0.1-0.1,0.1-0.1,0.2-0.2C536.3,72.5,536.2,72.5,536.2,72.6z"/>
	<path class="st5" d="M536,72.9c0.1-0.1,0.1-0.2,0.2-0.3C536.1,72.7,536.1,72.8,536,72.9z"/>
	<path class="st5" d="M525.8,68.7c0-0.1,0-0.3,0-0.4C525.8,68.4,525.8,68.6,525.8,68.7z"/>
	<path class="st5" d="M525.8,68.3c-0.1,0-0.1,0-0.2-0.1c0,0,0.1-0.1,0.1-0.1C525.9,68.2,525.9,68.2,525.8,68.3z"/>
	<path class="st5" d="M536.4,69.4c-0.1-0.1-0.1-0.1-0.2-0.2C536.2,69.3,536.3,69.3,536.4,69.4z"/>
	<path class="st5" d="M529.8,69.4c-0.1,0.1-0.2,0.1-0.2,0.2C529.6,69.5,529.7,69.5,529.8,69.4z"/>
	<path class="st5" d="M536.4,72.2c0-0.1,0.1-0.2,0.1-0.3C536.5,72.1,536.5,72.1,536.4,72.2z"/>
	<path class="st5" d="M533,73.9c0.1,0,0.1,0,0.2,0C533.2,73.9,533.1,73.9,533,73.9L533,73.9z"/>
	<path class="st5" d="M518.5,66c-0.1,0.1-0.1,0.2-0.2,0.2C518.4,66.1,518.5,66,518.5,66z"/>
	<path class="st5" d="M519,65.5c-0.1,0.1-0.2,0.1-0.3,0.2C518.8,65.7,518.9,65.6,519,65.5z"/>
	<path class="st5" d="M521.3,65.1c-0.1,0-0.1,0-0.2,0C521.2,65.1,521.2,65.1,521.3,65.1L521.3,65.1z"/>
	<path class="st5" d="M520.4,65.1c-0.1,0-0.1,0-0.2,0C520.3,65.1,520.3,65.1,520.4,65.1z"/>
	<path class="st5" d="M535.2,79.2c0-0.1,0-0.1,0-0.2C535.2,79,535.2,79.1,535.2,79.2z"/>
	<path class="st5" d="M535.2,79.4c0-0.1-0.1-0.2-0.1-0.2C535.2,79.2,535.2,79.3,535.2,79.4z"/>
	<path class="st5" d="M535.1,80.1c0-0.1,0.1-0.2,0.1-0.3C535.2,79.9,535.2,80,535.1,80.1z"/>
	<path class="st5" d="M534,76.2c0,0.1,0,0.1,0.1,0.2C534,76.4,534,76.3,534,76.2z"/>
	<path class="st5" d="M527.3,77.7c0.2-0.1,0.3-0.1,0.5-0.2c0,0.2,0,0.4,0,0.6C527.5,77.9,527.4,77.8,527.3,77.7z"/>
	<path class="st5" d="M523.6,69.8c-0.2,0-0.4-0.1-0.7-0.1C523.3,69.3,523.5,69.3,523.6,69.8z"/>
	<path class="st5" d="M519.3,70.5c0.1,0.3,0.2,0.5,0.2,0.8c-0.2-0.1-0.3-0.1-0.5-0.2C519.1,70.9,519.2,70.7,519.3,70.5z"/>
	<path class="st5" d="M534.5,77.7c0-0.1,0.1-0.2,0.1-0.2c0,0.2,0.1,0.3,0.1,0.5C534.6,77.8,534.5,77.8,534.5,77.7z"/>
	<path class="st5" d="M522.7,72.2c0.1-0.2,0.2-0.4,0.2-0.5C522.9,71.8,522.8,72,522.7,72.2z"/>
	<path class="st5" d="M523.9,70c0-0.1-0.1-0.1-0.1-0.2c0.1,0,0.2,0,0.3,0.1C524,70,524,70,523.9,70z"/>
	<path class="st5" d="M519.6,68.2c-0.1-0.1-0.3-0.2-0.4-0.3C519.3,68,519.4,68.1,519.6,68.2z"/>
	<path class="st5" d="M519.4,69c0.1,0.1,0.1,0.3,0.2,0.4C519.5,69.3,519.4,69.1,519.4,69z"/>
	<path class="st5" d="M521.3,69.2c-0.1,0-0.2-0.1-0.3-0.1C521.1,69.1,521.2,69.1,521.3,69.2z"/>
	<path class="st5" d="M519.2,68.6c0,0.1,0.1,0.1,0.1,0.2C519.3,68.7,519.2,68.6,519.2,68.6z"/>
	<path class="st5" d="M519.8,68.4c-0.1-0.1-0.2-0.1-0.3-0.2C519.6,68.2,519.7,68.3,519.8,68.4z"/>
	<path class="st5" d="M519.2,67.9c-0.1-0.1-0.2-0.1-0.2-0.2C519,67.8,519.1,67.9,519.2,67.9z"/>
	<path class="st5" d="M525,75.6c0,0.1-0.1,0.1-0.1,0.2C525,75.7,525,75.7,525,75.6z"/>
</g>
<text transform="matrix(1 0 0 1 401.3296 197.5183)"><tspan x="0" y="0" class="st14 st15 st16">iks</tspan><tspan x="53.7" y="0" class="st14 st17 st16">.support</tspan></text>
<text transform="matrix(1 0 0 1 437 245.89)" class="st18 st17 st19">Fernwartung</text>
</svg>
