<?xml version="1.0" encoding="utf-8"?>
<!-- Generator: Adobe Illustrator 27.8.1, SVG Export Plug-In . SVG Version: 6.00 Build 0)  -->
<svg version="1.1" id="Ebene_1" xmlns="http://www.w3.org/2000/svg" xmlns:xlink="http://www.w3.org/1999/xlink" x="0px" y="0px"
	 viewBox="0 0 113.7 26" style="enable-background:new 0 0 113.7 26;" xml:space="preserve">
<style type="text/css">
	.st0{fill:#3C3C3B;}
	.st1{font-family:'MyriadPro-Bold';}
	.st2{font-size:17px;}
	.st3{font-family:'MyriadPro-Regular';}
	.st4{fill:#02ABBC;}
	.st5{fill:#03ABBC;}
	.st6{fill:#04ABBC;}
	.st7{fill:#05ACBC;}
	.st8{fill:#06ACBC;}
	.st9{fill:#07ACBD;}
	.st10{fill:#09ADBD;}
	.st11{fill:#08ADBD;}
	.st12{fill:#0BAEBD;}
	.st13{fill:#0FAEBE;}
	.st14{fill:#11AFBE;}
	.st15{fill:#16B1BF;}
	.st16{fill:#1FB4C1;}
</style>
<text transform="matrix(1 0 0 1 30.1783 18.8196)"><tspan x="0" y="0" class="st0 st1 st2">iks</tspan><tspan x="21.2" y="0" class="st0 st3 st2">.support</tspan></text>
<g>
	<path class="st4" d="M19.2,8.7C19.2,8.7,19.2,8.6,19.2,8.7C19.2,8.6,19.3,8.6,19.2,8.7c0.1-0.1,0.1-0.1,0.1-0.1c0,0,0,0,0.1,0
		c0.1,0,0.1-0.1,0.2-0.1c0,0,0.1,0,0.1,0c0.3-0.1,0.6-0.1,0.8,0.1c0,0,0,0,0,0c0,0,0,0,0,0c0,0,0,0,0,0c0,0,0,0.1,0.1,0.1
		c0,0,0,0.1,0,0.1c0,0,0,0,0.1,0c0,0.1,0,0.2,0,0.3c0,0,0,0,0,0c0,0,0,0,0,0c0,0,0,0,0,0c0,0,0,0,0,0c0,0,0,0,0,0.1
		c0,0,0,0.1-0.1,0.1c0,0,0,0-0.1,0c0,0,0,0.1,0,0.1c0,0,0,0,0,0c-0.1,0-0.2,0-0.2,0c0,0-0.1,0-0.1,0c0,0,0,0,0,0
		c-0.1,0-0.2-0.1-0.2-0.1c0,0-0.1,0-0.1-0.1c0,0.1,0,0.1,0,0.2c0,0,0,0-0.1,0c0,0,0,0,0,0c0,0.1,0,0.1-0.1,0.2
		c0.1,0.1,0.2,0.1,0.4,0.2c0,0,0.1,0,0.1,0.1c0,0,0.1,0.1,0.1,0.1c-0.1,0.1,0,0.2,0.1,0.2c0,0,0,0,0,0c0,0,0,0.1,0,0.1
		c0,0,0,0.1,0,0.1c0,0,0,0,0,0c0,0,0,0,0,0c0,0,0,0,0,0c0,0,0,0.1,0,0.1c0,0,0,0,0,0.1c0,0.1,0,0.1,0,0.1c0.2,0.1,0.4,0.2,0.6,0.4
		c0,0,0,0,0.1,0l0,0c0,0,0,0.1,0,0.1c0,0.1,0.1,0.2,0.1,0.3c0.1,0.3-0.1,0.5-0.4,0.5c-0.2,0-0.4-0.1-0.6-0.1c0,0.2-0.1,0.4-0.1,0.6
		c0.5,0.1,0.9,0.5,0.8,1c0,0.1-0.1,0.3-0.2,0.4l0,0c0,0,0,0,0,0c-0.5,0.2-0.8,0.1-1.1-0.3c-0.1-0.3-0.1-0.5,0.1-0.8
		c-0.2-0.1-0.5-0.1-0.7-0.2c-0.1,0.2-0.1,0.4-0.2,0.6c0.3,0,0.6,0,0.8,0.3c0.2,0.4,0.2,0.7-0.1,1c-0.3,0.3-0.7,0.4-1.1,0.2
		c-0.4-0.2-0.6-0.6-0.3-1c0-0.1,0.1-0.1,0.1-0.2c-0.2,0-0.3,0-0.5,0c-0.2,0-0.3-0.1-0.5-0.1c0,0.1,0,0.1,0,0.2
		c0,0.3-0.2,0.5-0.4,0.6c-0.5,0.3-1.1,0.2-1.5-0.1c0,0-0.1,0-0.1,0c0,0,0,0,0,0c0,0,0-0.1,0-0.1c-0.1-0.3-0.1-0.5,0.1-0.7
		c0,0,0.1-0.1,0.1-0.1c-0.3,0-0.7-0.1-1-0.1c0,0.4-0.2,0.6-0.5,0.8c-0.1,0.1-0.2,0.1-0.4,0.2c-0.3,0.1-0.6,0.1-1,0
		c-0.5-0.1-0.7-0.5-0.4-1c0.1-0.2,0.3-0.3,0.4-0.5c-0.2,0-0.4,0-0.7,0c-0.3,0-0.5-0.1-0.6-0.4c-0.1-0.3,0-0.5,0.2-0.7
		c0.4-0.4,1.1-0.7,1.7-0.3c0-0.1,0-0.3,0.1-0.4c0.1-0.1,0.2-0.2,0.2-0.3c-0.2-0.1-0.5-0.1-0.7-0.2c-0.5-0.2-0.5-0.6-0.1-0.9
		c0,0,0.1-0.1,0.1-0.1c0,0,0,0,0,0c0,0,0.1,0,0.1,0c0,0,0,0,0,0c0,0,0.1,0,0.1,0l0,0C12.8,9,13,9,13.1,9c0.3,0,0.5,0,0.8,0.1
		c0.1-0.2,0.2-0.3,0.3-0.5c-0.2,0-0.4-0.1-0.6-0.1c-0.1,0-0.2-0.1-0.3-0.1c-0.3-0.2-0.3-0.4,0-0.5c0.3-0.3,1.1-0.3,1.4,0
		C15,7.9,15,8.1,14.8,8.3c0,0-0.1,0.1-0.1,0.1c0.3,0,0.6,0.1,0.9,0.1c0-0.1,0.1-0.2,0.2-0.3c0.1-0.1,0.2-0.1,0.4-0.1
		c0.4,0,0.7,0,1,0.2c0,0.1,0.1,0.1,0.1,0.2c0,0,0,0,0,0c0,0,0,0,0,0c0,0,0,0.1,0,0.1c0,0.1,0,0.1,0,0.2c0,0,0,0.1-0.1,0.1
		c0,0,0.1,0,0.1,0C17.6,9,17.8,9,18,9.1c0,0,0-0.1,0-0.1c0-0.1,0.1-0.2,0.2-0.3c0,0,0,0,0,0c0,0,0,0-0.1,0c0,0,0,0,0,0
		c0-0.1-0.1-0.1-0.1,0c-0.1,0-0.2-0.1-0.3-0.1c0,0,0,0-0.1,0c-0.1,0-0.1-0.1-0.2-0.1c0,0,0,0,0,0l0,0c0,0,0,0-0.1-0.1c0,0,0,0,0,0
		c0,0,0,0,0,0c0,0,0,0-0.1,0c0-0.1,0-0.2,0-0.3c0,0,0,0,0,0c0,0,0,0,0,0c0,0,0,0,0.1,0c0,0,0,0,0.1,0c0.1,0,0.1,0,0.2,0c0,0,0,0,0,0
		c0,0,0,0,0,0c0,0,0.1,0,0.1,0c0,0,0,0,0,0C17.9,7.9,18.1,8,18.3,8c0,0,0.1,0,0.1,0.1l0,0c0,0,0.1,0.1,0.1,0.1l0,0c0,0,0,0.1,0,0.1
		c0,0,0,0,0,0c0,0,0,0.1,0,0.1c0,0,0,0,0,0c0,0,0,0,0,0c0,0,0,0,0,0c0,0,0,0,0,0.1c0,0,0,0.1-0.1,0.1c0,0,0,0,0,0
		c0.2,0.1,0.4,0.1,0.5,0.2C19,8.9,19.1,9,19.1,9c0.1,0,0.2,0.1,0.3,0.1c-0.1-0.1-0.1-0.2-0.2-0.3c0,0,0,0,0,0
		C19.2,8.8,19.2,8.7,19.2,8.7z M18.8,10.1C18.8,10.1,18.9,10.2,18.8,10.1C18.9,10.1,18.9,10.1,18.8,10.1c0.1-0.1,0.1-0.3,0.2-0.3
		c-0.2-0.1-0.4-0.1-0.6-0.2c0,0.1,0,0.1,0,0.1c0,0,0,0,0,0c0,0.1,0,0.1,0,0.2C18.5,10,18.7,10.1,18.8,10.1z M18.4,11.9
		C18.4,11.9,18.4,11.9,18.4,11.9C18.4,11.9,18.4,11.9,18.4,11.9c0-0.1,0-0.3,0.1-0.4c-0.1,0-0.3-0.1-0.4-0.1c0,0.1-0.1,0.3-0.1,0.4
		C18.1,11.8,18.2,11.9,18.4,11.9z M19.8,11.4C19.8,11.4,19.8,11.4,19.8,11.4C19.8,11.4,19.8,11.4,19.8,11.4
		C19.8,11.4,19.8,11.4,19.8,11.4c0-0.2,0.1-0.3,0.1-0.5c-0.2,0-0.4-0.1-0.5-0.1c0,0.1-0.1,0.3-0.1,0.4
		C19.4,11.2,19.6,11.3,19.8,11.4z M13.9,12.3c0.1-0.3,0.2-0.5,0.2-0.7c-0.3-0.1-0.6-0.1-0.9-0.2c0,0.4-0.2,0.6-0.5,0.8
		C13.1,12.1,13.5,12.1,13.9,12.3z M16.9,12.2c-0.2,0-0.4-0.1-0.6-0.1c-0.1,0.2-0.2,0.4-0.3,0.5c0.3,0,0.5,0.1,0.8,0.1
		C16.8,12.5,16.8,12.3,16.9,12.2z M15,9.6c-0.2-0.1-0.5-0.1-0.7-0.2C14.2,9.7,14.1,9.8,14,10c0.2,0,0.5,0,0.7,0.1
		C14.8,9.9,14.9,9.8,15,9.6z M15.3,10.7c-0.1,0.2-0.2,0.3-0.2,0.4c0.2,0,0.4,0,0.6,0.1c0.1-0.1,0.1-0.3,0.1-0.4
		C15.6,10.8,15.5,10.8,15.3,10.7z M16.5,9.4c0.1-0.1,0.1-0.2,0.2-0.3C16.4,9,16.2,9,16,8.9c0,0.1-0.1,0.3-0.1,0.4
		C16.1,9.3,16.3,9.4,16.5,9.4z M16.9,10.4c0.2,0,0.3,0.1,0.5,0.1c0-0.1,0.1-0.2,0.1-0.3c-0.2,0-0.3-0.1-0.5-0.1
		C17,10.2,17,10.3,16.9,10.4z"/>
	<path class="st5" d="M13.4,13.8c0.1-0.1,0.2-0.1,0.4-0.2c0,0,0.1,0,0.1,0c0.5-0.1,0.9-0.1,1.2,0.3c0,0,0,0,0,0
		c0.3,0.7-0.2,1.2-0.8,1.3c-0.2,0-0.5,0-0.7,0c-0.3,0-0.6-0.2-0.6-0.5c-0.1-0.3,0.1-0.6,0.3-0.8C13.3,13.9,13.3,13.8,13.4,13.8z"/>
	<path class="st6" d="M11.6,16.5c-0.4,0-0.7-0.1-0.8-0.5c-0.2-0.3,0-0.6,0.2-0.9c0.4-0.4,0.8-0.5,1.3-0.4c0.5,0.1,0.7,0.6,0.4,1
		C12.5,16.2,12.1,16.5,11.6,16.5z"/>
	<path class="st6" d="M10.4,14.9c0,0-0.1,0-0.2,0c-0.4-0.1-0.6-0.6-0.3-0.9c0.4-0.5,0.9-0.7,1.5-0.7c0.5,0,0.7,0.5,0.4,0.9
		C11.5,14.6,10.9,14.9,10.4,14.9z"/>
	<path class="st6" d="M14.9,16.8c-0.2-0.1-0.4-0.1-0.5-0.2c-0.4-0.2-0.5-0.6-0.3-0.9c0.3-0.4,0.8-0.7,1.3-0.6c0.5,0.1,0.7,0.5,0.5,1
		C15.7,16.5,15.3,16.8,14.9,16.8z"/>
	<path class="st6" d="M9.2,17.6c-0.3,0-0.5-0.1-0.7-0.4c-0.1-0.3,0-0.5,0.2-0.7C9,16.1,9.4,15.9,10,16c0.3,0.1,0.5,0.2,0.6,0.5
		c0.1,0.3,0,0.5-0.2,0.6C10,17.4,9.6,17.6,9.2,17.6z"/>
	<path class="st6" d="M17,14.1c0.6,0,1,0.4,0.9,0.9c-0.1,0.4-0.4,0.6-0.8,0.7c-0.4,0.1-0.7,0-1-0.2c-0.2-0.2-0.2-0.5,0-0.8
		C16.3,14.3,16.7,14.1,17,14.1z"/>
	<path class="st6" d="M13,16.4c0.1,0,0.3,0,0.4,0.1c0.3,0.1,0.4,0.4,0.3,0.7c-0.2,0.6-0.9,0.9-1.5,0.7c-0.4-0.2-0.6-0.6-0.3-1
		C12.1,16.6,12.6,16.4,13,16.4z"/>
	<path class="st6" d="M10.2,11.9c0.2,0,0.3,0.1,0.5,0.1c0.2,0.1,0.3,0.3,0.2,0.6c-0.2,0.5-1,0.9-1.5,0.7c-0.4-0.1-0.5-0.5-0.3-0.8
		C9.3,12.2,9.7,12,10.2,11.9z"/>
	<path class="st6" d="M8.8,14.5c0.1,0,0.3,0.1,0.4,0.1c0.3,0.1,0.4,0.4,0.3,0.6c-0.2,0.5-0.9,0.9-1.4,0.8c-0.4-0.1-0.6-0.5-0.3-0.8
		C8,14.8,8.4,14.5,8.8,14.5z"/>
	<path class="st6" d="M10.8,17.7c0.3,0,0.5,0.1,0.6,0.3c0.1,0.2,0,0.4-0.1,0.6c-0.3,0.3-0.7,0.5-1.1,0.5c-0.2,0-0.4-0.1-0.5-0.3
		c-0.1-0.2,0-0.4,0.1-0.5C10,17.9,10.3,17.7,10.8,17.7z"/>
	<path class="st6" d="M11.6,9.8c0.1,0,0.2,0,0.2,0c0.1,0.1,0.3,0.2,0.4,0.3c0.1,0.2,0,0.3-0.1,0.4c-0.4,0.3-0.8,0.5-1.4,0.5
		c-0.2,0-0.4-0.1-0.4-0.4c-0.1-0.2,0.1-0.3,0.2-0.4C10.8,10,11.2,9.8,11.6,9.8z"/>
	<path class="st6" d="M17.7,17.1c-0.2,0-0.4-0.1-0.6-0.3c-0.1-0.2-0.1-0.4,0-0.6c0.2-0.3,0.7-0.6,1-0.5c0.4,0.1,0.6,0.4,0.4,0.8
		C18.5,16.8,18.1,17.1,17.7,17.1z"/>
	<path class="st6" d="M15.7,18.2c-0.2,0-0.4-0.1-0.5-0.3c-0.1-0.2-0.1-0.4,0.1-0.6c0.2-0.4,0.8-0.6,1.1-0.5c0.3,0.1,0.5,0.4,0.4,0.7
		C16.6,17.9,16.1,18.2,15.7,18.2z"/>
	<path class="st6" d="M20.3,15.3c0,0.4-0.4,0.8-0.8,0.8c-0.4,0-0.7-0.3-0.7-0.7c0-0.4,0.4-0.8,0.8-0.8C20,14.6,20.3,14.9,20.3,15.3z
		"/>
	<path class="st6" d="M8.1,17.9c0,0.3-0.2,0.5-0.5,0.6c-0.3,0.1-0.7,0.1-0.9-0.1c-0.1-0.1-0.2-0.3-0.1-0.5c0.1-0.5,0.8-0.8,1.3-0.6
		C8,17.5,8.1,17.6,8.1,17.9z"/>
	<path class="st6" d="M12.6,9.1c-0.2,0-0.4,0-0.7,0c-0.3,0-0.5-0.2-0.5-0.4c0-0.2,0.1-0.4,0.4-0.6C12.2,8,12.5,8,12.9,8.1
		c0.4,0.1,0.4,0.4,0.1,0.7C13,8.9,12.8,9,12.7,9.1c0,0,0,0,0,0C12.7,9.1,12.7,9.1,12.6,9.1C12.6,9.1,12.6,9.1,12.6,9.1
		C12.6,9.1,12.6,9.1,12.6,9.1L12.6,9.1z"/>
	<path class="st6" d="M9.5,10.8c0.2,0,0.4,0.1,0.5,0.2c0.1,0.2,0,0.3-0.1,0.5c-0.3,0.4-0.7,0.6-1.2,0.5c-0.2,0-0.4-0.1-0.4-0.3
		c-0.1-0.2,0-0.3,0.2-0.5C8.8,11,9.1,10.9,9.5,10.8z"/>
	<path class="st7" d="M13.5,19.4c-0.5,0-0.7-0.4-0.5-0.8c0.2-0.4,0.8-0.6,1.2-0.4c0.2,0.1,0.3,0.3,0.2,0.5
		C14.4,19.1,13.9,19.4,13.5,19.4z"/>
	<path class="st7" d="M10.1,10c-0.2,0-0.3-0.1-0.5-0.1C9.5,9.7,9.4,9.5,9.5,9.3c0.2-0.4,1.1-0.7,1.5-0.5c0.2,0.1,0.3,0.3,0.1,0.5
		C11,9.8,10.6,9.9,10.1,10z"/>
	<path class="st7" d="M7.6,14.5c-0.4,0-0.6-0.3-0.5-0.7c0.2-0.4,0.8-0.7,1.2-0.5c0.3,0.1,0.4,0.3,0.3,0.6C8.4,14.2,8,14.5,7.6,14.5z
		"/>
	<path class="st7" d="M8.1,20.3c-0.5,0-0.7-0.4-0.5-0.8C7.7,19,8.2,18.8,8.6,19c0.3,0.1,0.4,0.4,0.3,0.6C8.8,20,8.4,20.3,8.1,20.3z"
		/>
	<path class="st7" d="M20.6,13.8c0.5,0,0.8,0.2,0.9,0.6c0,0.2,0,0.4-0.2,0.6c-0.2,0.2-0.5,0.2-0.7,0C20.1,14.8,20.2,14.2,20.6,13.8
		C20.6,13.9,20.6,13.8,20.6,13.8C20.6,13.8,20.6,13.8,20.6,13.8z"/>
	<path class="st7" d="M21.5,7.6C21.5,7.6,21.5,7.6,21.5,7.6c0.3,0,0.5,0.2,0.6,0.3c0.1,0.3-0.1,0.4-0.3,0.6
		c-0.2,0.2-0.5,0.3-0.8,0.2c-0.4-0.1-0.5-0.4-0.3-0.7C20.9,7.7,21.1,7.6,21.5,7.6z"/>
	<path class="st7" d="M6.6,15.9c0.4,0,0.6,0.3,0.5,0.7c-0.2,0.3-0.6,0.6-1,0.5c-0.3,0-0.5-0.4-0.3-0.6C6,16.1,6.3,15.9,6.6,15.9z"/>
	<path class="st6" d="M11.6,19.4c0.3,0,0.4,0.1,0.5,0.3c0.1,0.2,0,0.3-0.1,0.5c-0.3,0.3-0.6,0.5-1,0.4c-0.3-0.1-0.4-0.4-0.2-0.7
		C11,19.6,11.3,19.5,11.6,19.4z"/>
	<path class="st7" d="M20.4,7.7c-0.1,0-0.2-0.1-0.4-0.1c-0.2-0.1-0.2-0.3-0.1-0.5c0.2-0.4,0.8-0.6,1.2-0.4c0.2,0.1,0.3,0.3,0.2,0.5
		C21.1,7.5,20.7,7.7,20.4,7.7z"/>
	<path class="st6" d="M18.1,17.9c0-0.5,0.4-0.8,0.9-0.7c0.3,0.1,0.4,0.3,0.3,0.6c-0.1,0.2-0.2,0.4-0.4,0.5
		C18.5,18.6,18.1,18.4,18.1,17.9z"/>
	<path class="st7" d="M21.9,9.7c-0.2,0-0.4-0.1-0.5-0.3c-0.1-0.2,0-0.4,0.2-0.5c0.3-0.3,0.6-0.3,0.9-0.2c0.3,0.1,0.3,0.3,0.2,0.6
		C22.5,9.6,22.2,9.7,21.9,9.7z"/>
	<path class="st6" d="M20.9,16.7c0,0.4-0.3,0.7-0.6,0.8c-0.3,0-0.5-0.2-0.5-0.5c0-0.4,0.3-0.8,0.7-0.8
		C20.6,16.1,20.8,16.4,20.9,16.7z"/>
	<path class="st6" d="M18.4,8.1c-0.1-0.2-0.1-0.3,0.1-0.4c0.3-0.3,0.6-0.4,1-0.2c0.3,0.1,0.4,0.4,0.2,0.6c-0.3,0.4-0.6,0.5-1,0.2
		c-0.1,0-0.1,0-0.2-0.1c0,0,0,0,0,0C18.5,8.2,18.5,8.2,18.4,8.1C18.5,8.2,18.5,8.2,18.4,8.1C18.5,8.1,18.4,8.1,18.4,8.1L18.4,8.1z"
		/>
	<path class="st7" d="M16.6,19.6c-0.1,0-0.3,0-0.4-0.2c-0.1-0.2-0.1-0.3,0-0.5c0.2-0.3,0.4-0.4,0.7-0.4c0.3,0,0.5,0.3,0.4,0.6
		C17.3,19.4,16.9,19.6,16.6,19.6z"/>
	<path class="st7" d="M11.1,8.1c-0.1,0-0.1,0-0.2,0C10.9,8,10.7,8,10.7,7.9c0-0.1,0.1-0.2,0.1-0.3c0.4-0.3,0.8-0.4,1.3-0.2
		c0.1,0,0.2,0.1,0.2,0.2c0,0.1-0.1,0.2-0.2,0.3C11.9,8,11.5,8.1,11.1,8.1z"/>
	<path class="st7" d="M8.1,10.7c-0.1,0-0.2,0-0.3-0.1c-0.2-0.1-0.2-0.2-0.1-0.4c0.2-0.4,0.8-0.6,1.2-0.5c0.2,0.1,0.3,0.2,0.2,0.4
		C8.9,10.6,8.5,10.7,8.1,10.7z"/>
	<path class="st8" d="M20.6,12.4c0-0.4,0.3-0.6,0.6-0.4c0.3,0.2,0.5,0.6,0.5,0.8c-0.1,0.3-0.3,0.4-0.5,0.3
		C20.9,13,20.6,12.7,20.6,12.4z"/>
	<path class="st7" d="M20.1,10.1c-0.1,0-0.2,0-0.1-0.2c0,0,0-0.1,0-0.1c0,0,0,0,0,0c-0.1-0.2,0-0.3,0.2-0.3c0.2-0.1,0.4-0.1,0.7,0
		c0.3,0.1,0.4,0.3,0.3,0.6c-0.1,0.3-0.4,0.5-0.7,0.3c-0.1-0.1-0.2-0.1-0.3-0.2C20.2,10.2,20.2,10.2,20.1,10.1
		C20.2,10.1,20.2,10.1,20.1,10.1C20.1,10.1,20.1,10.1,20.1,10.1z"/>
	<path class="st7" d="M22.6,10.7c-0.1,0-0.2-0.1-0.3-0.1c-0.2-0.1-0.2-0.3-0.1-0.5c0.2-0.3,0.7-0.5,1-0.3c0.2,0.1,0.3,0.3,0.1,0.6
		C23.2,10.6,23,10.7,22.6,10.7z"/>
	<path class="st7" d="M6,21.3c-0.2,0-0.4-0.1-0.5-0.3c-0.1-0.2,0-0.4,0.2-0.6c0.3-0.2,0.7-0.3,0.9-0.1c0.1,0.1,0.1,0.3,0.1,0.4
		C6.6,21,6.3,21.3,6,21.3z"/>
	<path class="st7" d="M18.1,7.5c-0.2,0-0.4-0.1-0.4-0.2c-0.1-0.2,0-0.3,0.1-0.4c0.2-0.3,0.5-0.4,0.9-0.3c0.3,0.1,0.4,0.4,0.2,0.6
		C18.6,7.4,18.4,7.5,18.1,7.5z"/>
	<path class="st7" d="M6.8,13c-0.4,0-0.5-0.2-0.4-0.5C6.6,12.2,7,11.9,7.4,12c0.1,0,0.3,0.1,0.3,0.2c0,0.1,0,0.3-0.1,0.4
		C7.4,12.8,7.1,13,6.8,13z"/>
	<path class="st8" d="M21,15.9c0.1-0.2,0.1-0.3,0.2-0.5c0.2-0.3,0.6-0.3,0.7,0c0.2,0.3,0.1,0.7-0.2,1c-0.2,0.1-0.5,0.1-0.6-0.1
		C21.1,16.2,21.1,16,21,15.9z"/>
	<path class="st8" d="M9.9,8c0.1,0,0.2,0,0.3,0.1c0.2,0.1,0.2,0.2,0.1,0.3C10,8.7,9.6,8.9,9.1,8.8c-0.3,0-0.3-0.3-0.2-0.5
		C9.2,8.1,9.5,8,9.9,8z"/>
	<path class="st7" d="M23,6.9c0.3,0,0.5,0.1,0.5,0.3c0.1,0.2,0,0.4-0.3,0.5c-0.2,0.2-0.5,0.2-0.8,0.1c-0.3-0.1-0.3-0.4-0.1-0.6
		C22.5,7,22.7,6.9,23,6.9z"/>
	<path class="st7" d="M22,6.9c-0.1,0-0.2-0.1-0.4-0.1c-0.2-0.1-0.2-0.3-0.1-0.5c0.2-0.3,0.7-0.5,1-0.3c0.2,0.1,0.3,0.3,0.1,0.6
		C22.5,6.7,22.3,6.8,22,6.9z"/>
	<path class="st7" d="M5.4,18.6c0.1,0,0.2,0.1,0.3,0.2c0.1,0.1,0.1,0.3,0,0.5c-0.2,0.3-0.5,0.5-0.8,0.4c-0.3-0.1-0.4-0.3-0.2-0.6
		C4.8,18.8,5,18.7,5.4,18.6z"/>
	<path class="st7" d="M20.9,11c0-0.1,0-0.1,0-0.2c0-0.2,0-0.3,0.2-0.4c0.2,0,0.4,0,0.6,0c0.2,0,0.3,0.2,0.3,0.4
		c0,0.2-0.1,0.4-0.3,0.6c-0.2,0.1-0.3,0.1-0.4,0C21.1,11.3,21,11.2,20.9,11C20.9,11,20.9,11,20.9,11z"/>
	<path class="st7" d="M5.9,14.5c0.4,0,0.5,0.3,0.3,0.5c-0.2,0.3-0.4,0.5-0.7,0.5c-0.3,0-0.5-0.3-0.3-0.5C5.2,14.7,5.5,14.5,5.9,14.5
		z"/>
	<path class="st7" d="M23.5,14.8c-0.3,0-0.5-0.1-0.5-0.3c-0.1-0.2,0-0.4,0.3-0.5c0.2-0.1,0.4-0.2,0.6-0.1c0.3,0.1,0.4,0.4,0.2,0.7
		C23.9,14.7,23.7,14.8,23.5,14.8z"/>
	<path class="st7" d="M22.4,13.9c0,0.3-0.1,0.5-0.3,0.5c-0.2,0.1-0.4,0-0.5-0.2c-0.1-0.2-0.2-0.4-0.1-0.7c0.1-0.3,0.4-0.4,0.6-0.2
		C22.3,13.5,22.4,13.7,22.4,13.9z"/>
	<path class="st7" d="M22.9,12.7c0.1,0,0.3,0.1,0.4,0.1c0.2,0.1,0.2,0.3,0.1,0.5c-0.1,0.2-0.3,0.4-0.6,0.5c0,0-0.1,0-0.1,0
		c-0.1,0-0.3-0.3-0.4-0.5c0-0.2,0-0.3,0.2-0.4C22.6,12.8,22.8,12.7,22.9,12.7z"/>
	<path class="st8" d="M9.1,21.7c-0.2-0.1-0.3-0.1-0.4-0.2c-0.1-0.1-0.2-0.2-0.1-0.4c0.1-0.4,0.6-0.5,1-0.4c0.3,0.2,0.3,0.5,0.1,0.6
		C9.4,21.5,9.2,21.6,9.1,21.7z"/>
	<path class="st8" d="M20,5.7c0.1,0,0.2,0,0.3,0.1c0.2,0.1,0.2,0.3,0.1,0.5c-0.2,0.3-0.6,0.4-0.9,0.3c-0.3-0.1-0.4-0.4-0.1-0.6
		C19.5,5.8,19.7,5.7,20,5.7z"/>
	<path class="st8" d="M23.7,10.8c0.2,0,0.4,0.1,0.5,0.3c0.1,0.2,0,0.4-0.2,0.5c-0.2,0.1-0.4,0.2-0.7,0.1c-0.3-0.1-0.3-0.4-0.1-0.6
		C23.3,10.9,23.5,10.9,23.7,10.8C23.7,10.8,23.7,10.8,23.7,10.8z"/>
	<path class="st8" d="M14.8,19.8c0.2,0,0.4,0.1,0.4,0.3c0.1,0.2,0,0.3-0.2,0.5c-0.2,0.2-0.6,0.3-0.8,0.1c-0.2-0.1-0.2-0.3-0.2-0.4
		C14.2,20,14.5,19.8,14.8,19.8z"/>
	<path class="st8" d="M13.1,7.5c-0.2,0-0.3,0-0.5-0.1c-0.2-0.1-0.3-0.3-0.1-0.4c0.2-0.2,0.5-0.2,0.8-0.2c0.1,0,0.3,0,0.4,0.1
		C13.9,7,14,7,14,7.1c0,0.1-0.1,0.2-0.2,0.2C13.6,7.4,13.3,7.5,13.1,7.5z"/>
	<path class="st7" d="M22.1,11.6c0.3,0,0.6,0.2,0.6,0.4c0,0.2-0.3,0.6-0.6,0.6c-0.2,0-0.5-0.4-0.5-0.7
		C21.6,11.7,21.8,11.6,22.1,11.6z"/>
	<path class="st8" d="M15.6,8c-0.2,0-0.5-0.1-0.6-0.2c-0.1-0.1-0.1-0.2,0-0.3c0.3-0.2,0.9-0.2,1.2,0c0.2,0.2,0.2,0.3,0,0.4
		C16,7.9,15.8,7.9,15.6,8z"/>
	<path class="st8" d="M23.4,8.8c-0.1,0-0.3,0-0.4-0.2c-0.1-0.2,0-0.3,0.1-0.5C23.4,7.9,23.7,7.9,24,8c0.2,0.1,0.3,0.3,0.1,0.6
		C24,8.7,23.7,8.8,23.4,8.8z"/>
	<path class="st8" d="M24.2,15.9c-0.2,0-0.4-0.1-0.4-0.2c-0.1-0.2,0-0.3,0.2-0.4c0.2-0.2,0.5-0.2,0.7-0.1c0.2,0.1,0.2,0.2,0.1,0.4
		C24.7,15.7,24.5,15.8,24.2,15.9z"/>
	<path class="st9" d="M22.9,15.1C22.9,15.1,22.9,15.2,22.9,15.1c0,0.3-0.2,0.5-0.4,0.5c-0.2,0-0.3-0.2-0.4-0.4c0-0.2,0-0.4,0-0.6
		c0.1-0.2,0.3-0.3,0.4-0.1C22.8,14.7,22.8,14.9,22.9,15.1C22.9,15.1,22.9,15.1,22.9,15.1z"/>
	<path class="st8" d="M23.8,5.1c0.1,0,0.1,0,0.2,0c0.3,0.1,0.3,0.3,0.2,0.5c-0.2,0.2-0.5,0.3-0.8,0.3c-0.2-0.1-0.3-0.2-0.2-0.4
		C23.3,5.3,23.5,5.2,23.8,5.1z"/>
	<path class="st10" d="M11,6.6c0.1,0,0.2,0,0.3,0.1c0.1,0.1,0.2,0.2,0,0.3c-0.3,0.2-0.7,0.4-1.1,0.3c-0.1,0-0.2-0.1-0.2-0.1
		c0-0.1,0-0.2,0.1-0.2C10.4,6.7,10.7,6.6,11,6.6z"/>
	<path class="st8" d="M21.4,18c0,0.3-0.1,0.5-0.4,0.6c-0.3,0.1-0.5,0-0.5-0.3c0-0.2,0.1-0.4,0.3-0.6c0.1-0.1,0.3-0.1,0.4,0
		C21.3,17.8,21.4,17.9,21.4,18z"/>
	<path class="st7" d="M24.3,12.7c-0.2,0-0.3-0.1-0.4-0.2c-0.1-0.2,0-0.3,0.2-0.4c0.2-0.2,0.5-0.2,0.7-0.1c0.2,0.1,0.2,0.3,0.1,0.4
		C24.7,12.6,24.5,12.7,24.3,12.7z"/>
	<path class="st8" d="M18.2,5.9c0,0.1,0,0.1,0,0.2c-0.1,0.3-0.5,0.5-0.8,0.4C17.1,6.3,17,6.2,17.1,6c0.1-0.3,0.6-0.5,0.8-0.3
		C18.1,5.7,18.1,5.8,18.2,5.9z"/>
	<path class="st7" d="M21.2,5.8c-0.1-0.1-0.3-0.1-0.3-0.2c-0.1-0.2,0-0.3,0.1-0.4C21.2,5,21.4,4.9,21.7,5c0.2,0.1,0.3,0.2,0.2,0.4
		C21.7,5.7,21.5,5.8,21.2,5.8C21.2,5.8,21.2,5.8,21.2,5.8z"/>
	<path class="st11" d="M7.3,9.7c-0.1,0-0.2-0.1-0.2-0.1c0-0.1,0-0.2,0.1-0.3c0.2-0.2,0.5-0.4,0.8-0.4C8,8.9,8.2,9,8.3,9
		c0,0.1-0.1,0.2-0.1,0.3C7.9,9.5,7.7,9.7,7.3,9.7z"/>
	<path class="st8" d="M19.3,19.8c-0.2,0-0.3-0.1-0.3-0.3c0-0.3,0.3-0.6,0.6-0.6c0.3,0,0.4,0.2,0.3,0.4
		C19.8,19.6,19.5,19.8,19.3,19.8z"/>
	<path class="st8" d="M24.2,9.8c-0.1,0-0.3-0.1-0.4-0.2c-0.1-0.2,0.1-0.3,0.2-0.4C24.3,9,24.5,9,24.7,9c0.2,0.1,0.3,0.3,0.1,0.5
		C24.7,9.7,24.5,9.8,24.2,9.8z"/>
	<path class="st8" d="M8.8,7.9c-0.1,0-0.2,0-0.3-0.1C8.3,7.8,8.3,7.7,8.4,7.6c0.2-0.3,0.8-0.4,1.1-0.3c0.2,0.1,0.2,0.2,0.1,0.3
		C9.4,7.8,9.2,7.9,8.8,7.9z"/>
	<path class="st9" d="M6,11.8c-0.1,0-0.2-0.1-0.2-0.1c0-0.1,0-0.2,0-0.3C6,11.1,6.3,11,6.6,10.9c0.1,0,0.2,0.1,0.3,0.1
		c0,0,0,0.2,0,0.2C6.7,11.6,6.4,11.7,6,11.8z"/>
	<path class="st9" d="M24.9,6.4c0,0.3-0.2,0.4-0.4,0.5C24.3,7,24.1,7,24,6.8c-0.1-0.1-0.1-0.2-0.1-0.3C24,6.2,24.5,6,24.8,6.2
		C24.9,6.3,24.9,6.3,24.9,6.4z"/>
	<path class="st8" d="M21.8,17.2c0-0.1,0.1-0.3,0.1-0.4c0.1-0.2,0.4-0.2,0.5,0c0.2,0.2,0.1,0.7-0.2,0.8c-0.2,0.1-0.3,0.1-0.4-0.1
		C21.8,17.4,21.8,17.3,21.8,17.2z"/>
	<path class="st8" d="M4.4,18C4.1,18,4,17.9,4,17.7c0-0.2,0.3-0.5,0.5-0.5c0.2,0,0.4,0.1,0.4,0.3C4.9,17.8,4.7,18,4.4,18z"/>
	<path class="st11" d="M16.7,7c0.3,0,0.5,0.1,0.7,0.3c0.2,0.2,0.1,0.3-0.1,0.4c-0.3,0.1-0.8-0.1-0.9-0.3c-0.1-0.1-0.1-0.3,0.1-0.3
		C16.6,7.1,16.7,7,16.7,7z"/>
	<path class="st11" d="M23.6,17c0.3,0,0.5,0.2,0.4,0.4c0,0.2-0.3,0.5-0.6,0.5c-0.2,0-0.3-0.1-0.3-0.3C23.2,17.2,23.3,17,23.6,17z"/>
	<path class="st9" d="M12.6,21.2c0,0,0.2,0.1,0.2,0.2c0,0.1,0,0.2-0.1,0.3c-0.2,0.2-0.4,0.3-0.6,0.3c-0.1,0-0.2-0.1-0.3-0.2
		c0-0.1,0-0.2,0-0.3C12.1,21.3,12.3,21.2,12.6,21.2z"/>
	<path class="st8" d="M14.8,7.1c-0.2,0-0.3-0.1-0.5-0.1c-0.2-0.1-0.2-0.2,0-0.3c0.3-0.2,0.9-0.1,1.1,0.1c0.1,0.1,0.1,0.2-0.1,0.2
		C15.1,7,15,7.1,14.8,7.1z"/>
	<path class="st11" d="M25.3,16.1c0.1,0.1,0.3,0.1,0.3,0.3c0.1,0.2-0.1,0.3-0.2,0.4c-0.2,0.1-0.3,0.2-0.5,0.1
		c-0.2-0.1-0.3-0.2-0.2-0.4C24.8,16.3,25,16.2,25.3,16.1z"/>
	<path class="st10" d="M4.8,14c-0.1,0-0.2-0.1-0.2-0.2c0-0.1,0-0.2,0-0.3c0.1-0.2,0.4-0.3,0.6-0.3c0.2,0.1,0.3,0.2,0.2,0.4
		C5.3,13.9,5.1,14,4.8,14z"/>
	<path class="st9" d="M25,13.8c-0.1,0-0.2-0.1-0.2-0.2c-0.1-0.1,0-0.3,0.1-0.4c0.2-0.2,0.4-0.2,0.7-0.1c0.2,0.1,0.2,0.2,0.1,0.4
		C25.4,13.7,25.3,13.8,25,13.8z"/>
	<path class="st10" d="M19.1,5.6c-0.2-0.1-0.3-0.1-0.4-0.3c0-0.2,0.1-0.3,0.2-0.4c0.1-0.1,0.3-0.1,0.5-0.1c0.1,0,0.2,0.1,0.2,0.2
		c0,0.1,0,0.3-0.1,0.3C19.4,5.5,19.2,5.5,19.1,5.6z"/>
	<path class="st10" d="M17.7,20.2c0.2,0,0.3,0.1,0.3,0.3c0,0.2-0.3,0.5-0.6,0.5c-0.2,0-0.3-0.1-0.3-0.3
		C17.2,20.4,17.5,20.2,17.7,20.2z"/>
	<path class="st8" d="M7.1,21.9C7.2,22,7.3,22,7.4,22.1c0.1,0.1,0,0.3-0.1,0.3c-0.2,0.1-0.3,0.1-0.5,0.2c-0.1,0-0.2-0.1-0.2-0.2
		c0-0.1,0-0.2,0.1-0.3C6.7,22,6.9,22,7.1,21.9z"/>
	<path class="st11" d="M22.8,5c-0.1-0.1-0.2-0.1-0.3-0.2c0-0.1,0-0.2,0.1-0.3c0.1-0.2,0.4-0.3,0.7-0.2c0.2,0.1,0.2,0.2,0.1,0.4
		C23.2,4.8,23,4.9,22.8,5z"/>
	<path class="st10" d="M4.1,22.1c-0.2,0-0.3-0.2-0.3-0.3c0-0.2,0.2-0.4,0.4-0.4c0.2,0,0.4,0.1,0.4,0.3C4.5,21.9,4.3,22.1,4.1,22.1z"
		/>
	<path class="st9" d="M15.5,5.5c0.1,0.1,0.3,0.1,0.3,0.2c0.1,0.2-0.1,0.3-0.2,0.4c-0.2,0.1-0.4,0.2-0.6,0.1C14.9,6,14.9,5.9,15,5.8
		C15.1,5.6,15.3,5.5,15.5,5.5z"/>
	<path class="st9" d="M25.1,10.8c-0.2,0-0.3-0.1-0.3-0.3c0-0.2,0.2-0.4,0.5-0.4c0.2,0,0.4,0.1,0.4,0.3
		C25.6,10.6,25.3,10.8,25.1,10.8z"/>
	<path class="st11" d="M12.5,6.7c-0.2,0-0.4-0.1-0.5-0.1c-0.1-0.1-0.2-0.2,0-0.2c0.3-0.2,0.7-0.2,1,0c0.1,0,0.1,0.1,0.1,0.2
		c0,0.1-0.1,0.1-0.2,0.1C12.8,6.7,12.7,6.7,12.5,6.7z"/>
	<path class="st8" d="M23.4,16.2c-0.1,0.2-0.1,0.3-0.2,0.4c-0.1,0.1-0.2,0.1-0.3,0c-0.2-0.2-0.2-0.5-0.1-0.7c0-0.1,0.1-0.2,0.2-0.2
		c0.1,0,0.2,0.1,0.2,0.1C23.3,16,23.3,16.1,23.4,16.2z"/>
	<path class="st10" d="M25.1,7.9c-0.2,0-0.3-0.1-0.3-0.3c0-0.2,0.3-0.4,0.5-0.4c0.2,0,0.4,0.1,0.4,0.3C25.6,7.7,25.3,7.9,25.1,7.9z"
		/>
	<path class="st10" d="M25.1,5.1c-0.2,0-0.3-0.1-0.3-0.2c0-0.2,0.2-0.4,0.5-0.4c0.2,0,0.4,0.1,0.4,0.2C25.6,4.9,25.3,5.1,25.1,5.1z"
		/>
	<path class="st10" d="M6.8,8.8c0,0-0.2,0-0.2-0.1c0-0.1,0-0.2,0.1-0.2c0.2-0.1,0.4-0.2,0.6-0.3c0.1,0,0.2,0,0.3,0.1
		c0,0,0,0.2-0.1,0.2C7.3,8.7,7.1,8.8,6.8,8.8z"/>
	<path class="st10" d="M16.2,6.3c0.1,0.1,0.3,0.1,0.4,0.2c0,0,0.1,0.2,0,0.2c0,0-0.1,0.1-0.2,0.1c-0.3-0.1-0.5-0.1-0.8-0.2
		c0,0-0.1-0.1-0.1-0.1c0,0,0.1-0.1,0.1-0.1C15.9,6.4,16.1,6.4,16.2,6.3C16.2,6.3,16.2,6.3,16.2,6.3z"/>
	<path class="st11" d="M24.2,18.9c-0.2,0-0.3-0.1-0.3-0.2c0-0.2,0.2-0.4,0.4-0.4c0.2,0,0.4,0.1,0.4,0.3
		C24.7,18.8,24.5,18.9,24.2,18.9z"/>
	<path class="st12" d="M5.7,10.6c-0.1-0.1-0.2-0.1-0.3-0.2c0-0.1,0-0.2,0.1-0.3C5.6,10,5.8,9.9,6.1,10c0.2,0,0.2,0.2,0.1,0.3
		C6,10.4,5.8,10.5,5.7,10.6z"/>
	<path class="st10" d="M26.4,14.5c0,0.2-0.1,0.3-0.3,0.3c-0.2,0.1-0.4,0-0.5-0.1c0,0,0,0,0-0.1c0-0.1,0.1-0.3,0.3-0.4
		C26.1,14.2,26.3,14.3,26.4,14.5C26.4,14.4,26.4,14.5,26.4,14.5z"/>
	<path class="st8" d="M3.6,16.6c-0.2,0-0.3-0.2-0.2-0.4c0.1-0.2,0.2-0.3,0.4-0.3c0.2,0,0.3,0.1,0.2,0.3C4,16.4,3.8,16.6,3.6,16.6z"
		/>
	<path class="st10" d="M16.7,5.4c0,0-0.2-0.1-0.2-0.1c0-0.1,0-0.2,0.1-0.3c0.1-0.2,0.4-0.3,0.6-0.2c0.1,0.1,0.2,0.2,0.1,0.3
		C17.2,5.3,17,5.3,16.7,5.4z"/>
	<path class="st10" d="M20.6,4.7c-0.1-0.1-0.2-0.1-0.3-0.2c-0.1-0.1,0.1-0.2,0.2-0.3c0.2-0.1,0.4-0.1,0.5,0c0,0,0.1,0.2,0.1,0.2
		C21,4.6,20.8,4.7,20.6,4.7z"/>
	<path class="st10" d="M26,18c-0.2,0-0.4-0.1-0.4-0.2c0-0.2,0.2-0.3,0.4-0.3c0.2,0,0.4,0.1,0.4,0.3C26.4,17.9,26.2,18,26,18z"/>
	<path class="st10" d="M3.7,20.2c0,0.2-0.2,0.4-0.4,0.4c-0.2,0-0.3-0.1-0.3-0.3c0-0.2,0.2-0.4,0.4-0.4C3.6,19.9,3.7,20,3.7,20.2z"/>
	<path class="st12" d="M8,7.3C7.9,7.2,7.9,7.2,7.8,7.1C7.8,7.1,7.9,7,7.9,7c0.2-0.1,0.5-0.2,0.7-0.3c0.1,0,0.1,0,0.2,0.1
		c0,0.1-0.1,0.2-0.1,0.2C8.5,7.1,8.3,7.2,8,7.3z"/>
	<path class="st11" d="M24.4,4.1c-0.2,0-0.3,0-0.3-0.2c0-0.2,0.2-0.4,0.4-0.4c0.2,0,0.3,0.1,0.3,0.2C24.8,3.9,24.6,4.1,24.4,4.1z"/>
	<path class="st8" d="M25.9,11.8c-0.2,0-0.3-0.1-0.3-0.2c0-0.2,0.2-0.3,0.4-0.3c0.2,0,0.3,0.1,0.3,0.2
		C26.4,11.6,26.1,11.8,25.9,11.8z"/>
	<path class="st12" d="M26.1,8.2c0.1,0.1,0.3,0.1,0.3,0.2c0.1,0.2-0.1,0.3-0.2,0.3c0,0,0,0,0,0c-0.1,0-0.3,0-0.4-0.1
		c0,0,0-0.1,0-0.2C25.7,8.3,25.8,8.2,26.1,8.2z"/>
	<path class="st10" d="M10,23.1c-0.1-0.1-0.3-0.2-0.3-0.3c-0.1-0.1,0.1-0.2,0.2-0.3c0.1,0,0.3-0.1,0.4-0.1c0.2,0,0.2,0.2,0.1,0.3
		C10.3,22.9,10.2,23,10,23.1z"/>
	<path class="st12" d="M10.7,6.3c0,0-0.1,0-0.1,0.1C10.3,6.4,10,6.5,9.7,6.6c0,0-0.1-0.1-0.2-0.1c0,0,0.1-0.1,0.1-0.1
		c0.2-0.1,0.5-0.2,0.8-0.2c0.1,0,0.2,0,0.2,0.1C10.6,6.2,10.7,6.2,10.7,6.3z"/>
	<path class="st10" d="M15.4,22.1c-0.1,0-0.2,0-0.3-0.2c0-0.2,0.2-0.4,0.4-0.4c0.2,0,0.3,0.1,0.3,0.2C15.9,21.9,15.7,22.1,15.4,22.1
		z"/>
	<path class="st12" d="M25.8,6c-0.1-0.1-0.2-0.1-0.3-0.2c0-0.1,0.1-0.2,0.1-0.3c0.1-0.1,0.4-0.2,0.5,0c0.1,0,0.1,0.2,0.1,0.2
		C26.2,5.9,26.1,6,25.8,6z"/>
	<path class="st11" d="M22.3,18.6c0.1-0.2,0.1-0.3,0.2-0.4c0-0.1,0.2-0.1,0.2-0.1c0.1,0,0.2,0.1,0.1,0.2c0,0.2-0.1,0.4-0.2,0.5
		c0,0-0.2,0.1-0.2,0C22.4,18.7,22.4,18.6,22.3,18.6z"/>
	<path class="st11" d="M4.2,12.8c-0.2,0-0.2-0.1-0.2-0.3c0.1-0.2,0.4-0.3,0.5-0.3c0.1,0,0.2,0.1,0.1,0.3C4.7,12.6,4.4,12.8,4.2,12.8
		z"/>
	<path class="st12" d="M21.8,19.3c0,0.3-0.2,0.5-0.4,0.5c-0.2,0-0.2-0.1-0.2-0.3c0-0.2,0.2-0.5,0.3-0.4
		C21.7,19.2,21.7,19.3,21.8,19.3z"/>
	<path class="st10" d="M13.9,6.3c-0.1,0-0.2,0-0.3-0.1c-0.1,0-0.1-0.1,0-0.2C13.8,6,14.1,5.9,14.3,6c0.1,0,0.1,0.1,0.1,0.1
		c-0.1,0-0.1,0.1-0.2,0.1C14.2,6.3,14.1,6.3,13.9,6.3z"/>
	<path class="st12" d="M11.7,5.7c0.1,0,0.2,0,0.3,0.1c0,0,0.1,0.1,0.1,0.1c0,0,0,0.1-0.1,0.1c-0.2,0.1-0.6,0.1-0.7,0
		c-0.1-0.1-0.1-0.1,0-0.2C11.5,5.7,11.6,5.7,11.7,5.7z"/>
	<path class="st12" d="M5,23.4c-0.1,0-0.3-0.1-0.3-0.3c0-0.1,0.2-0.3,0.4-0.3c0.2,0,0.3,0.1,0.3,0.2C5.3,23.3,5.1,23.4,5,23.4z"/>
	<path class="st12" d="M22,3.8c0,0-0.1-0.1-0.2-0.2c0-0.1,0.2-0.3,0.4-0.3c0.1,0,0.3,0,0.3,0.2C22.5,3.7,22.3,3.8,22,3.8z"/>
	<path class="st10" d="M18.4,4.5c-0.1,0-0.2,0-0.2-0.2c0-0.1,0.2-0.3,0.4-0.3c0.1,0,0.2,0,0.3,0.2C18.8,4.3,18.6,4.5,18.4,4.5z"/>
	<path class="st12" d="M14.9,4.6c0,0,0.1,0.1,0.1,0.2c0,0.2-0.2,0.3-0.4,0.3c-0.1,0-0.2,0-0.2-0.2C14.4,4.8,14.6,4.6,14.9,4.6z"/>
	<path class="st10" d="M20.3,20.6c0,0.2-0.2,0.4-0.3,0.4c-0.1,0-0.2-0.1-0.2-0.2c0-0.2,0.2-0.4,0.3-0.4
		C20.2,20.4,20.3,20.4,20.3,20.6z"/>
	<path class="st13" d="M6.4,8.1c0-0.1-0.1-0.2-0.1-0.2c0.1-0.2,0.4-0.4,0.6-0.3c0,0,0.1,0,0.1,0.1c0,0,0,0.1,0,0.1
		C6.8,7.8,6.6,7.9,6.4,8.1z"/>
	<path class="st10" d="M26.9,15.5c0.1,0,0.2,0,0.3,0.2c0,0.1-0.2,0.3-0.4,0.3c-0.1,0-0.2-0.1-0.2-0.2C26.5,15.6,26.7,15.4,26.9,15.5
		z"/>
	<path class="st13" d="M26.7,12.8c0,0-0.1-0.1-0.2-0.2c0-0.1,0.2-0.3,0.3-0.3c0.2,0,0.3,0.1,0.3,0.2C27.1,12.7,26.9,12.8,26.7,12.8z
		"/>
	<path class="st10" d="M12.8,5.6c0.2-0.2,0.5-0.3,0.6-0.2c0.1,0,0.1,0.1,0.1,0.2c0,0-0.1,0.1-0.2,0.1C13.2,5.8,13,5.8,12.8,5.6z"/>
	<path class="st12" d="M26.8,9.3C26.9,9.4,27,9.4,27,9.5c0,0.1-0.2,0.3-0.4,0.3c-0.1,0-0.2,0-0.2-0.2C26.4,9.5,26.6,9.4,26.8,9.3z"
		/>
	<path class="st13" d="M26.6,4.1c0,0-0.1-0.1-0.2-0.2c0-0.1,0.2-0.3,0.3-0.3c0.1,0,0.2,0.1,0.3,0.2C27.1,4,26.8,4.1,26.6,4.1z"/>
	<path class="st12" d="M26.6,6.9c0,0-0.1-0.1-0.1-0.2c0-0.1,0.2-0.3,0.3-0.2c0.1,0,0.2,0.1,0.3,0.2C27.1,6.8,26.8,6.9,26.6,6.9z"/>
	<path class="st13" d="M5,9.6c0-0.3,0.4-0.5,0.6-0.4c0.1,0.1,0.1,0.2,0,0.2C5.4,9.6,5.2,9.6,5,9.6z"/>
	<path class="st12" d="M25.8,3.2c0,0-0.1-0.1-0.2-0.2c0-0.1,0.2-0.3,0.3-0.2c0.1,0,0.2,0.1,0.2,0.2C26.3,3,26.1,3.2,25.8,3.2z"/>
	<path class="st12" d="M2.6,19c0,0-0.1-0.1-0.1-0.2c0-0.1,0.1-0.3,0.3-0.3c0.1,0,0.2,0.1,0.2,0.2C2.9,18.8,2.8,19,2.6,19z"/>
	<path class="st14" d="M7.4,6.6C7.5,6.4,8,6.2,8.2,6.2C8.2,6.5,7.6,6.7,7.4,6.6z"/>
	<path class="st12" d="M3,15.1c0,0-0.1-0.1-0.1-0.1c0-0.1,0.2-0.3,0.3-0.3c0.1,0,0.1,0.1,0.2,0.1C3.4,14.9,3.2,15.1,3,15.1z"/>
	<path class="st12" d="M26.8,19.2c-0.1-0.1-0.2-0.2-0.2-0.2c0-0.1,0.1-0.2,0.2-0.2c0.1,0,0.3,0,0.2,0.2C27.1,19,26.9,19.1,26.8,19.2
		z"/>
	<path class="st14" d="M2.6,22.8c-0.2-0.1-0.3-0.1-0.3-0.3c0-0.1,0.1-0.2,0.2-0.2c0.1,0,0.2,0.1,0.2,0.2C2.8,22.6,2.7,22.7,2.6,22.8
		z"/>
	<path class="st14" d="M16.2,4.3C16.1,4.2,16,4.2,16,4.1c0-0.1,0.1-0.2,0.3-0.2c0.1,0,0.1,0.1,0.2,0.1C16.4,4.1,16.3,4.2,16.2,4.3z"
		/>
	<path class="st15" d="M9.9,5.7C9.7,5.9,9.3,6,9.1,5.9C9.2,5.8,9.6,5.7,9.9,5.7z"/>
	<path class="st12" d="M8.8,5.5c0,0-0.1-0.1-0.1-0.1c0-0.1,0.2-0.2,0.3-0.2c0.1,0,0.2,0.1,0.2,0.1C9.2,5.4,9,5.5,8.8,5.5z"/>
	<path class="st13" d="M12.5,5c-0.1-0.1-0.1-0.2-0.2-0.2c0.1-0.1,0.2-0.2,0.3-0.2c0,0,0.1,0.1,0.2,0.1C12.7,4.8,12.7,4.9,12.5,5z"/>
	<path class="st15" d="M19.9,3.7c-0.1-0.1-0.1-0.1-0.2-0.2c0.1-0.1,0.2-0.2,0.3-0.2c0,0,0.1,0.1,0.2,0.1C20.1,3.5,20,3.6,19.9,3.7z"
		/>
	<path class="st13" d="M3.8,11.6c0-0.1,0-0.1,0-0.2c0,0,0,0,0-0.1c0.1-0.1,0.2-0.2,0.4-0.1c0,0,0,0.1,0,0.1
		C4.1,11.4,4,11.5,3.8,11.6C3.8,11.6,3.8,11.6,3.8,11.6z"/>
	<path class="st15" d="M23.7,3c-0.1-0.1-0.1-0.1-0.2-0.2c0.1-0.1,0.2-0.2,0.3-0.2c0.1,0,0.1,0.1,0.2,0.1C23.9,2.9,23.8,2.9,23.7,3z"
		/>
	<path class="st14" d="M18.4,21.7c0,0,0.1,0.1,0.1,0.1c-0.1,0.1-0.2,0.2-0.2,0.3c-0.1-0.1-0.1-0.1-0.1-0.2
		C18.1,21.9,18.3,21.8,18.4,21.7z"/>
	<path class="st14" d="M13.3,23.3c-0.1-0.1-0.2-0.2-0.2-0.2c0.1-0.1,0.2-0.2,0.3-0.2c0,0,0.1,0.1,0.2,0.1
		C13.5,23.1,13.4,23.2,13.3,23.3z"/>
	<path class="st14" d="M5.9,7.3C6,7,6.3,6.9,6.5,7C6.4,7.2,6.2,7.3,5.9,7.3z"/>
	<path class="st13" d="M25.2,19.6c0.1,0.1,0.2,0.2,0.2,0.2c-0.1,0.1-0.2,0.2-0.3,0.2c0,0-0.2-0.1-0.1-0.2
		C25,19.8,25.1,19.7,25.2,19.6z"/>
	<path class="st15" d="M22.8,19.6c0.1-0.1,0.1-0.2,0.2-0.3c0,0,0.1,0,0.1,0c0,0.1,0,0.2,0,0.3c0,0.1-0.1,0.1-0.2,0.1
		C22.9,19.8,22.8,19.7,22.8,19.6z"/>
	<path class="st13" d="M7.9,24c-0.1-0.1-0.2-0.2-0.2-0.2c0.1-0.1,0.1-0.1,0.2-0.2c0.1,0,0.1,0.1,0.2,0.1C8.1,23.8,8,23.9,7.9,24z"/>
	<path class="st14" d="M11.4,5.4c-0.2,0.1-0.4,0.1-0.6,0.1C10.9,5.2,11.2,5.2,11.4,5.4z"/>
	<path class="st13" d="M27.6,13.5c0.1,0.1,0.2,0.1,0.2,0.2c-0.1,0.1-0.1,0.2-0.2,0.2c0,0-0.2-0.1-0.2-0.2
		C27.4,13.6,27.5,13.6,27.6,13.5z"/>
	<path class="st14" d="M27.5,7.5c0.1,0.1,0.2,0.1,0.2,0.2c-0.1,0.1-0.1,0.1-0.2,0.2c0,0-0.1-0.1-0.1-0.2C27.4,7.7,27.5,7.6,27.5,7.5
		z"/>
	<path class="st12" d="M27.8,10.7c-0.1,0-0.2,0.1-0.3,0.1c0,0-0.1-0.1-0.1-0.2c0-0.1,0.1-0.2,0.2-0.1C27.7,10.5,27.7,10.5,27.8,10.7
		C27.8,10.6,27.8,10.6,27.8,10.7z"/>
	<path class="st14" d="M27.5,4.7c0.1,0.1,0.2,0.1,0.2,0.2c-0.1,0.1-0.2,0.1-0.2,0.2c0,0-0.1-0.1-0.1-0.1C27.3,4.8,27.4,4.8,27.5,4.7
		z"/>
	<path class="st15" d="M27.7,16.6c0.1,0.1,0.1,0.1,0.2,0.2c-0.1,0.1-0.1,0.1-0.2,0.2c0,0-0.1-0.1-0.2-0.1
		C27.5,16.8,27.6,16.7,27.7,16.6z"/>
	<path class="st15" d="M7.1,6.1c0.2-0.1,0.4-0.2,0.6-0.2C7.6,6.1,7.3,6.1,7.1,6.1z"/>
	<path class="st15" d="M5.1,8.5C5,8.7,4.9,8.8,4.7,8.8C4.7,8.6,4.9,8.5,5.1,8.5z"/>
	<path class="st14" d="M3.6,23.9c-0.1,0.1-0.2,0.2-0.2,0.1c-0.1,0-0.1-0.1-0.1-0.2c0,0,0.1-0.1,0.1-0.1C3.4,23.8,3.5,23.8,3.6,23.9z
		"/>
	<path class="st15" d="M21.8,20.7c0.1-0.1,0.2-0.1,0.2-0.2c0,0,0.1,0.1,0.1,0.1c0,0.1-0.1,0.2-0.2,0.2
		C21.9,20.8,21.8,20.8,21.8,20.7z"/>
	<path class="st15" d="M1.8,21.3c-0.1-0.1-0.1-0.1-0.1-0.2c0-0.1,0.1-0.1,0.2-0.1c0,0,0.1,0.1,0.1,0.1C2,21.2,1.9,21.2,1.8,21.3z"/>
	<path class="st14" d="M2,17.5c-0.1-0.1-0.1-0.1-0.1-0.2C2,17.3,2,17.3,2.1,17.2c0,0,0.1,0.1,0.1,0.1C2.2,17.4,2.1,17.4,2,17.5z"/>
	<path class="st16" d="M13.9,3.9c0.1,0,0.2,0,0.3-0.1c0,0,0,0.1,0,0.1C14.1,4.1,14,4.1,13.9,3.9z"/>
	<path class="st15" d="M17.8,3.2c0.1,0,0.1,0.1,0.1,0.1c-0.1,0-0.1,0.1-0.2,0.1c0,0-0.1-0.1-0.1-0.1C17.7,3.3,17.7,3.2,17.8,3.2z"/>
	<path class="st15" d="M2.7,13.5c0,0.1,0.1,0.1,0.1,0.1c-0.1,0.1-0.1,0.1-0.2,0.2c0,0-0.1-0.1-0.1-0.1C2.6,13.7,2.6,13.6,2.7,13.5z"
		/>
	<path class="st16" d="M16.5,23.2c-0.1,0-0.2,0.1-0.3,0.1c0,0,0-0.1,0-0.1C16.3,23.1,16.4,23.1,16.5,23.2z"/>
	<path class="st16" d="M27.7,2.2c-0.1,0.1-0.2,0.1-0.3,0.1c0,0-0.1-0.1-0.1-0.1c0.1,0,0.1-0.1,0.2-0.1C27.5,2.1,27.6,2.1,27.7,2.2z"
		/>
	<path class="st13" d="M21.3,2.7c0.1-0.1,0.2-0.2,0.3-0.1c0,0,0,0.1,0,0.1C21.5,2.8,21.4,2.8,21.3,2.7z"/>
	<path class="st16" d="M10.5,4.8c-0.1-0.1-0.2-0.1-0.2-0.2c0.1,0,0.1-0.1,0.2-0.1c0,0,0.1,0.1,0.1,0.1C10.6,4.6,10.5,4.7,10.5,4.8z"
		/>
	<path class="st16" d="M7.1,5.2C6.9,5.2,6.9,5.3,6.8,5.3c0,0-0.1-0.1-0.1-0.1c0.1,0,0.1-0.1,0.2-0.1C6.9,5.1,7,5.1,7.1,5.2z"/>
	<path class="st15" d="M6,6.7c-0.1,0-0.3,0.1-0.4,0.1c0,0,0-0.1,0-0.1C5.7,6.7,5.9,6.6,6,6.6C6,6.6,6,6.6,6,6.7z"/>
	<path class="st16" d="M3.4,10.5c0.1-0.1,0.2-0.1,0.3-0.2c0,0,0,0.1,0.1,0.1C3.6,10.5,3.5,10.6,3.4,10.5C3.4,10.6,3.4,10.6,3.4,10.5
		z"/>
	<path class="st16" d="M23.4,20.9c0-0.1-0.1-0.1-0.1-0.1c0,0,0.1-0.1,0.1-0.1c0,0,0.1,0.1,0.1,0.1C23.6,20.8,23.5,20.8,23.4,20.9z"
		/>
	<path class="st14" d="M25.4,2c-0.1,0.1-0.2,0.2-0.3,0.1C25.1,1.9,25.2,1.9,25.4,2z"/>
	<path class="st8" d="M19.2,8.9c0.1,0.1,0.1,0.2,0.2,0.3c-0.1,0-0.2,0-0.3-0.1C19.1,9,19,8.9,19,8.8C19,8.9,19.1,8.9,19.2,8.9
		C19.2,8.9,19.2,8.9,19.2,8.9z"/>
	<path class="st15" d="M28.6,14.8c-0.1,0-0.1,0.1-0.2,0.1c0,0-0.1-0.1-0.1-0.1c0,0,0.1-0.1,0.2-0.1C28.5,14.7,28.6,14.7,28.6,14.8z"
		/>
	<path class="st16" d="M28.4,8.9c-0.1-0.1-0.1-0.1-0.2-0.2c0,0,0.1-0.1,0.1-0.1c0,0,0.1,0.1,0.1,0.1C28.4,8.8,28.4,8.8,28.4,8.9z"/>
	<path class="st15" d="M28.6,11.7c-0.1,0.1-0.1,0.1-0.2,0.1c0,0-0.1,0-0.1-0.1c0,0,0.1-0.1,0.1-0.1C28.4,11.6,28.5,11.6,28.6,11.7z"
		/>
	<path class="st8" d="M20,9.4c0.1,0,0.2,0,0.2,0C20.1,9.4,20.1,9.4,20,9.4z"/>
	<path class="st8" d="M19.9,9.9c0,0-0.1,0-0.1-0.1C19.8,9.8,19.9,9.8,19.9,9.9z"/>
	<path class="st8" d="M20.2,9.4C20.3,9.3,20.3,9.3,20.2,9.4C20.3,9.3,20.3,9.3,20.2,9.4C20.3,9.3,20.3,9.4,20.2,9.4z"/>
	<path class="st8" d="M19.5,9.2c0,0,0.1,0,0.1,0.1C19.6,9.3,19.5,9.3,19.5,9.2z"/>
	<path class="st8" d="M20.6,8.8C20.5,8.8,20.5,8.8,20.6,8.8C20.5,8.8,20.5,8.7,20.6,8.8C20.5,8.7,20.5,8.8,20.6,8.8z"/>
	<path class="st8" d="M17.5,7.8c-0.1,0-0.1,0-0.2,0C17.4,7.8,17.5,7.8,17.5,7.8z"/>
	<path class="st8" d="M19.6,8.4C19.6,8.4,19.5,8.5,19.6,8.4C19.5,8.5,19.6,8.4,19.6,8.4z"/>
	<path class="st8" d="M19.2,8.7c0,0,0,0.1,0,0.1C19.2,8.8,19.2,8.7,19.2,8.7z"/>
	<path class="st8" d="M19.5,9.4C19.5,9.4,19.4,9.4,19.5,9.4C19.4,9.4,19.5,9.4,19.5,9.4C19.5,9.4,19.5,9.4,19.5,9.4z"/>
	<path class="st8" d="M18.4,8.6C18.4,8.6,18.4,8.6,18.4,8.6C18.4,8.6,18.4,8.6,18.4,8.6z"/>
	<path class="st8" d="M20.4,8.5C20.4,8.5,20.4,8.5,20.4,8.5C20.4,8.5,20.4,8.5,20.4,8.5z"/>
	<path class="st8" d="M19.3,8.6C19.3,8.6,19.3,8.6,19.3,8.6C19.3,8.6,19.3,8.6,19.3,8.6z"/>
	<path class="st8" d="M20.4,9.2C20.5,9.2,20.5,9.1,20.4,9.2C20.5,9.1,20.5,9.2,20.4,9.2z"/>
	<path class="st8" d="M20.4,9.2C20.4,9.2,20.4,9.2,20.4,9.2C20.4,9.2,20.4,9.2,20.4,9.2z"/>
	<path class="st8" d="M18.5,8.5C18.5,8.4,18.5,8.4,18.5,8.5C18.5,8.4,18.5,8.4,18.5,8.5z"/>
	<path class="st8" d="M18.5,8.4C18.5,8.4,18.5,8.4,18.5,8.4C18.5,8.4,18.5,8.4,18.5,8.4C18.5,8.4,18.5,8.4,18.5,8.4z"/>
	<path class="st8" d="M20.5,8.6C20.5,8.6,20.5,8.6,20.5,8.6C20.5,8.6,20.5,8.6,20.5,8.6z"/>
	<path class="st8" d="M19.3,8.6C19.3,8.6,19.2,8.6,19.3,8.6C19.2,8.6,19.3,8.6,19.3,8.6z"/>
	<path class="st8" d="M20.5,9.1C20.5,9.1,20.5,9.1,20.5,9.1C20.5,9.1,20.5,9.1,20.5,9.1z"/>
	<path class="st8" d="M19.9,9.4C19.9,9.4,19.9,9.4,19.9,9.4C19.9,9.4,19.9,9.4,19.9,9.4L19.9,9.4z"/>
	<path class="st8" d="M17.2,8C17.2,8,17.2,8,17.2,8C17.2,8,17.2,8,17.2,8z"/>
	<path class="st8" d="M17.3,7.9C17.3,7.9,17.2,7.9,17.3,7.9C17.2,7.9,17.3,7.9,17.3,7.9z"/>
	<path class="st8" d="M17.7,7.8C17.7,7.8,17.7,7.8,17.7,7.8C17.7,7.8,17.7,7.8,17.7,7.8L17.7,7.8z"/>
	<path class="st8" d="M17.5,7.8C17.5,7.8,17.5,7.8,17.5,7.8C17.5,7.8,17.5,7.8,17.5,7.8z"/>
	<path class="st8" d="M20.3,10.4C20.3,10.4,20.2,10.4,20.3,10.4C20.3,10.4,20.3,10.4,20.3,10.4z"/>
	<path class="st8" d="M20.3,10.4C20.3,10.4,20.3,10.4,20.3,10.4C20.3,10.4,20.3,10.4,20.3,10.4z"/>
	<path class="st8" d="M20.2,10.6C20.3,10.5,20.3,10.5,20.2,10.6C20.3,10.5,20.3,10.5,20.2,10.6z"/>
	<path class="st8" d="M20,9.8C20,9.9,20,9.9,20,9.8C20,9.9,20,9.9,20,9.8z"/>
	<path class="st8" d="M18.8,10.1C18.8,10.1,18.9,10.1,18.8,10.1C18.9,10.1,18.9,10.1,18.8,10.1C18.9,10.2,18.8,10.1,18.8,10.1z"/>
	<path class="st8" d="M18.1,8.7c0,0-0.1,0-0.1,0C18.1,8.6,18.1,8.6,18.1,8.7z"/>
	<path class="st8" d="M17.3,8.8c0,0,0,0.1,0,0.1c0,0-0.1,0-0.1,0C17.3,8.9,17.3,8.8,17.3,8.8z"/>
	<path class="st8" d="M20.1,10.1C20.1,10.1,20.1,10.1,20.1,10.1C20.2,10.1,20.2,10.1,20.1,10.1C20.2,10.1,20.1,10.1,20.1,10.1z"/>
	<path class="st8" d="M18,9.1C18,9.1,18,9,18,9.1C18,9,18,9.1,18,9.1z"/>
	<path class="st8" d="M18.2,8.7C18.2,8.7,18.2,8.7,18.2,8.7C18.2,8.7,18.2,8.7,18.2,8.7C18.2,8.7,18.2,8.7,18.2,8.7z"/>
	<path class="st8" d="M17.4,8.4C17.4,8.3,17.3,8.3,17.4,8.4C17.3,8.3,17.4,8.3,17.4,8.4z"/>
	<path class="st8" d="M17.4,8.5C17.4,8.5,17.4,8.6,17.4,8.5C17.4,8.6,17.4,8.5,17.4,8.5z"/>
	<path class="st8" d="M17.7,8.5C17.7,8.5,17.7,8.5,17.7,8.5C17.7,8.5,17.7,8.5,17.7,8.5z"/>
	<path class="st8" d="M17.3,8.4C17.3,8.4,17.3,8.5,17.3,8.4C17.3,8.5,17.3,8.4,17.3,8.4z"/>
	<path class="st8" d="M17.4,8.4C17.4,8.4,17.4,8.4,17.4,8.4C17.4,8.4,17.4,8.4,17.4,8.4z"/>
	<path class="st8" d="M17.3,8.3C17.3,8.3,17.3,8.3,17.3,8.3C17.3,8.3,17.3,8.3,17.3,8.3z"/>
	<path class="st8" d="M18.4,9.7C18.4,9.7,18.4,9.8,18.4,9.7C18.4,9.8,18.4,9.7,18.4,9.7z"/>
</g>
</svg>
