<?xml version="1.0" encoding="utf-8"?>
<!-- Generator: Adobe Illustrator 27.8.1, SVG Export Plug-In . SVG Version: 6.00 Build 0)  -->
<svg version="1.1"
	 id="svg11" xmlns:inkscape="http://www.inkscape.org/namespaces/inkscape" xmlns:svg="http://www.w3.org/2000/svg" xmlns:sodipodi="http://sodipodi.sourceforge.net/DTD/sodipodi-0.dtd" inkscape:export-filename="216333102-4d10c195-be66-4fa0-97ca-70a71756b25e.png" inkscape:export-xdpi="3733.2917" inkscape:export-ydpi="3733.2917" inkscape:version="1.2.2 (b0a84865, 2022-12-01)" sodipodi:docname="design.svg"
	 xmlns="http://www.w3.org/2000/svg" xmlns:xlink="http://www.w3.org/1999/xlink" x="0px" y="0px" viewBox="0 0 32 32"
	 style="enable-background:new 0 0 32 32;" xml:space="preserve">
<style type="text/css">
	.st0{fill:#FFFFFF;}
	.st1{fill:#02ABBC;}
	.st2{fill:#03ABBC;}
	.st3{fill:#04ABBC;}
	.st4{fill:#05ACBC;}
	.st5{fill:#06ACBC;}
	.st6{fill:#07ACBD;}
	.st7{fill:#09ADBD;}
	.st8{fill:#08ADBD;}
	.st9{fill:#0BAEBD;}
	.st10{fill:#0FAEBE;}
	.st11{fill:#11AFBE;}
	.st12{fill:#16B1BF;}
	.st13{fill:#1FB4C1;}
</style>
<sodipodi:namedview  bordercolor="#000000" borderopacity="0.25" id="namedview13" inkscape:current-layer="svg11" inkscape:cx="11.119001" inkscape:cy="90.307984" inkscape:deskcolor="#d1d1d1" inkscape:pagecheckerboard="0" inkscape:pageopacity="0.0" inkscape:showpageshadow="2" inkscape:window-height="847" inkscape:window-maximized="1" inkscape:window-width="1440" inkscape:window-x="0" inkscape:window-y="25" inkscape:zoom="1.8436908" pagecolor="#ffffff" showgrid="false" showguides="true">
	</sodipodi:namedview>
<g id="g763" transform="translate(52.008497,8.73577)" inkscape:export-filename="../../Desktop/path9.png" inkscape:export-xdpi="768" inkscape:export-ydpi="768">
	<g id="g761" inkscape:export-filename="./g369.png" inkscape:export-xdpi="3733.2917" inkscape:export-ydpi="3733.2917">
		<path id="rect757" class="st0" d="M-47-8.7h22c2.8,0,5,2.2,5,5v22c0,2.8-2.2,5-5,5h-22c-2.8,0-5-2.2-5-5v-22
			C-52-6.5-49.8-8.7-47-8.7z"/>
		<g>
			<path class="st1" d="M-31.7,1.9C-31.7,1.9-31.7,1.9-31.7,1.9c0.1-0.1,0.1-0.1,0.1-0.1c0,0,0,0,0,0c0,0,0,0,0.1,0
				c0.1,0,0.1-0.1,0.2-0.1c0,0,0.1,0,0.1,0c0.3-0.1,0.6-0.1,0.9,0.1c0,0,0,0,0,0c0,0,0,0,0,0c0,0,0,0,0,0c0,0,0,0.1,0.1,0.1
				c0,0,0,0.1,0,0.1c0,0,0,0,0.1,0c0,0.1,0,0.2,0,0.3c0,0,0,0,0,0.1c0,0,0,0,0,0c0,0,0,0,0,0c0,0,0,0,0,0c0,0,0,0,0,0.1
				c0,0-0.1,0.1-0.1,0.1c0,0,0,0-0.1,0c0,0,0,0.1,0,0.1c0,0,0,0,0,0c-0.1,0-0.2,0-0.3,0c0,0-0.1,0-0.1,0c0,0,0,0,0,0
				c-0.1,0-0.2-0.1-0.3-0.1c0,0-0.1,0-0.1-0.1c0,0.1,0,0.1,0,0.2c0,0,0,0-0.1,0c0,0,0,0,0.1,0c0,0.1,0,0.1-0.1,0.2
				c0.1,0.1,0.3,0.1,0.4,0.2c0,0,0.1,0.1,0.1,0.1c0,0,0.1,0.1,0.1,0.1c-0.1,0.1,0,0.2,0.1,0.2c0,0,0,0,0,0c0,0,0,0.1,0,0.1
				c0,0,0,0.1,0,0.1c0,0,0,0,0,0c0,0,0,0,0,0c0,0,0,0,0,0c0,0,0,0.1,0,0.1c0,0,0,0,0,0.1c0,0.1,0,0.1,0,0.1c0.2,0.1,0.4,0.3,0.6,0.4
				c0,0,0.1,0,0.1,0l0,0c0,0,0,0.1,0,0.1c0,0.1,0.1,0.2,0.1,0.3c0.1,0.3-0.1,0.5-0.4,0.5c-0.2,0-0.4-0.1-0.6-0.1
				c0,0.2-0.1,0.4-0.1,0.7c0.6,0.1,1,0.6,0.9,1.1c0,0.2-0.1,0.3-0.2,0.4l0,0c0,0,0,0,0,0c-0.6,0.2-0.9,0.1-1.2-0.4
				c-0.1-0.3-0.1-0.6,0.1-0.9c-0.3-0.1-0.5-0.1-0.7-0.2c-0.1,0.2-0.2,0.5-0.2,0.7c0.3,0,0.7,0.1,0.9,0.4c0.2,0.5,0.2,0.8-0.1,1.1
				c-0.3,0.3-0.8,0.4-1.2,0.2c-0.5-0.2-0.6-0.7-0.4-1.1c0-0.1,0.1-0.1,0.2-0.2c-0.2,0-0.4,0-0.5,0c-0.2,0-0.3-0.1-0.5-0.2
				c0,0.1,0,0.1,0,0.2c0,0.3-0.2,0.5-0.5,0.7C-35,8.1-35.7,8-36.1,7.6c0,0-0.1,0-0.1,0c0,0,0,0,0,0c0,0,0-0.1,0-0.1
				c-0.2-0.3-0.1-0.6,0.1-0.8c0,0,0.1-0.1,0.1-0.1c-0.4,0-0.7-0.1-1.1-0.1c0,0.4-0.2,0.7-0.5,0.9c-0.1,0.1-0.3,0.1-0.4,0.2
				c-0.3,0.1-0.7,0.1-1,0c-0.5-0.1-0.7-0.6-0.5-1.1c0.1-0.2,0.3-0.4,0.4-0.5c-0.2,0-0.5,0-0.8,0c-0.3,0-0.5-0.2-0.6-0.4
				c-0.1-0.3,0-0.5,0.2-0.7c0.4-0.5,1.2-0.7,1.9-0.3c0-0.2,0-0.3,0.1-0.5c0.1-0.1,0.2-0.3,0.2-0.4c-0.3-0.1-0.5-0.1-0.8-0.2
				c-0.5-0.2-0.6-0.6-0.1-1c0,0,0.1-0.1,0.1-0.1c0,0,0,0,0,0c0,0,0.1,0,0.1,0c0,0,0,0,0,0c0,0,0.1,0,0.1,0l0,0
				c0.2,0,0.3-0.1,0.5-0.1c0.3,0,0.6,0,0.9,0.1c0.1-0.2,0.2-0.4,0.3-0.6c-0.2,0-0.4-0.1-0.6-0.1c-0.1,0-0.2-0.1-0.3-0.1
				c-0.3-0.2-0.3-0.4,0-0.6c0.4-0.3,1.2-0.3,1.6,0c0.2,0.2,0.3,0.4,0.1,0.6c0,0-0.1,0.1-0.1,0.1c0.3,0.1,0.7,0.1,1,0.2
				c0-0.1,0.1-0.2,0.2-0.3c0.1-0.1,0.3-0.1,0.4-0.1c0.4-0.1,0.8,0,1.1,0.2c0,0.1,0.1,0.1,0.1,0.2c0,0,0,0,0,0c0,0,0,0,0,0
				c0,0,0,0.1,0,0.1c0,0.1,0,0.1-0.1,0.2c0,0,0,0.1-0.1,0.1c0,0,0.1,0,0.1,0c0.2,0.1,0.4,0.1,0.6,0.2c0,0,0-0.1,0-0.1
				c0-0.2,0.1-0.3,0.2-0.3c0,0,0,0,0,0c0,0,0,0-0.1,0c0,0,0,0,0,0c0-0.1-0.1-0.1-0.1,0c-0.1,0-0.2-0.1-0.3-0.1c0,0,0,0-0.1,0
				c-0.1,0-0.2-0.1-0.2-0.1c0,0,0,0-0.1,0l0,0c0,0-0.1,0-0.1-0.1c0,0,0,0,0,0c0,0,0,0,0,0c0,0-0.1,0-0.1,0c0-0.1,0-0.2,0-0.3
				c0,0,0,0,0,0c0,0,0,0,0,0c0,0,0,0,0.1,0c0,0,0.1,0,0.1,0c0.1,0,0.1,0,0.2,0c0,0,0,0,0,0c0,0,0,0,0,0c0.1,0,0.1,0,0.2,0
				c0,0,0,0,0,0c0.2,0.1,0.4,0.2,0.6,0.2c0,0,0.1,0,0.1,0.1l0,0c0,0,0.1,0.1,0.1,0.1l0,0c0,0,0,0.1,0,0.1c0,0,0,0,0,0
				c0,0,0,0.1,0,0.1c0,0,0,0,0,0c0,0,0,0,0,0c0,0,0,0,0,0c0,0,0,0.1,0,0.1c0,0-0.1,0.1-0.1,0.1c0,0,0,0-0.1,0
				c0.2,0.1,0.4,0.1,0.6,0.2c0.1,0.1,0.1,0.2,0.2,0.2c0.1,0.1,0.2,0.1,0.3,0.1c-0.1-0.1-0.2-0.2-0.2-0.3c0,0,0,0,0,0
				C-31.7,2-31.7,2-31.7,1.9z M-32.1,3.5C-32.1,3.5-32.1,3.5-32.1,3.5C-32,3.5-32,3.5-32.1,3.5c0.1-0.2,0.2-0.3,0.2-0.4
				C-32.2,3-32.4,3-32.6,2.9c0,0.1,0,0.1,0,0.1c0,0,0,0,0,0c0,0.1,0,0.1,0,0.2C-32.4,3.3-32.3,3.4-32.1,3.5z M-32.5,5.4
				C-32.5,5.4-32.5,5.4-32.5,5.4C-32.5,5.4-32.5,5.4-32.5,5.4c0-0.2,0-0.3,0.1-0.5c-0.2,0-0.3-0.1-0.5-0.1C-33,5-33.1,5.1-33.1,5.3
				C-32.9,5.3-32.7,5.4-32.5,5.4z M-31.1,4.8C-31,4.8-31,4.9-31.1,4.8C-31,4.9-31,4.9-31.1,4.8C-31,4.9-31,4.8-31.1,4.8
				c0-0.2,0.1-0.4,0.1-0.5c-0.2-0.1-0.4-0.1-0.6-0.2c0,0.2-0.1,0.3-0.1,0.5C-31.4,4.7-31.3,4.8-31.1,4.8z M-37.5,5.9
				c0.1-0.3,0.2-0.5,0.2-0.8c-0.3-0.1-0.6-0.1-1-0.2c0,0.4-0.2,0.7-0.6,0.9C-38.3,5.7-37.9,5.7-37.5,5.9z M-34.2,5.7
				c-0.2,0-0.5-0.1-0.6-0.1C-35,5.8-35.1,6-35.2,6.2c0.3,0,0.6,0.1,0.8,0.1C-34.3,6.1-34.3,5.9-34.2,5.7z M-36.3,2.9
				c-0.3-0.1-0.5-0.1-0.7-0.2c-0.1,0.2-0.2,0.4-0.3,0.6c0.2,0,0.5,0,0.8,0.1C-36.5,3.3-36.4,3.1-36.3,2.9z M-36,4.2
				c-0.1,0.2-0.2,0.3-0.2,0.5c0.2,0,0.5,0,0.7,0.1c0.1-0.1,0.1-0.3,0.2-0.4C-35.6,4.2-35.8,4.2-36,4.2z M-34.6,2.7
				c0.1-0.1,0.1-0.2,0.2-0.4c-0.3-0.1-0.5-0.1-0.7-0.2c0,0.2-0.1,0.3-0.1,0.4C-35.1,2.6-34.9,2.7-34.6,2.7z M-34.2,3.8
				c0.2,0,0.3,0.1,0.5,0.1c0-0.1,0.1-0.2,0.1-0.3c-0.2,0-0.4-0.1-0.5-0.1C-34.1,3.6-34.1,3.7-34.2,3.8z"/>
			<path class="st2" d="M-38,7.5c0.1-0.1,0.3-0.1,0.4-0.2c0,0,0.1,0,0.1,0c0.5-0.2,1-0.1,1.3,0.3c0,0,0,0,0,0
				c0.3,0.7-0.2,1.3-0.9,1.4c-0.2,0-0.5,0-0.8,0c-0.3-0.1-0.6-0.2-0.7-0.6c-0.1-0.4,0.1-0.6,0.4-0.8C-38.1,7.6-38.1,7.5-38,7.5z"/>
			<path class="st3" d="M-39.9,10.4c-0.4,0-0.7-0.1-0.9-0.5c-0.2-0.4,0-0.7,0.2-1c0.4-0.4,0.9-0.6,1.5-0.4c0.6,0.1,0.8,0.6,0.4,1.1
				C-39,10.1-39.4,10.4-39.9,10.4z"/>
			<path class="st3" d="M-41.3,8.7c0,0-0.1,0-0.2,0c-0.4-0.1-0.6-0.6-0.4-1c0.4-0.5,1-0.8,1.7-0.7c0.5,0,0.7,0.6,0.4,1
				C-40.1,8.4-40.7,8.7-41.3,8.7z"/>
			<path class="st3" d="M-36.4,10.8c-0.2-0.1-0.4-0.1-0.6-0.2c-0.4-0.2-0.5-0.6-0.3-1c0.3-0.5,0.9-0.7,1.5-0.6
				c0.5,0.1,0.7,0.6,0.5,1C-35.5,10.5-35.9,10.8-36.4,10.8z"/>
			<path class="st3" d="M-42.6,11.7c-0.3,0-0.6-0.1-0.7-0.4c-0.1-0.3,0-0.5,0.2-0.8c0.4-0.4,0.8-0.7,1.4-0.6
				c0.3,0.1,0.5,0.2,0.6,0.5c0.1,0.3,0,0.5-0.2,0.7C-41.7,11.4-42.1,11.7-42.6,11.7z"/>
			<path class="st3" d="M-34.1,7.8c0.7,0,1.1,0.5,1,1c-0.1,0.4-0.5,0.6-0.9,0.7c-0.4,0.1-0.8,0-1-0.3c-0.2-0.2-0.2-0.6,0-0.9
				C-34.8,8-34.4,7.8-34.1,7.8z"/>
			<path class="st3" d="M-38.4,10.3c0.1,0,0.3,0,0.4,0.1c0.3,0.1,0.4,0.5,0.3,0.8c-0.2,0.6-1,1-1.6,0.8c-0.5-0.2-0.6-0.7-0.3-1.1
				C-39.4,10.6-38.9,10.3-38.4,10.3z"/>
			<path class="st3" d="M-41.5,5.5c0.2,0.1,0.4,0.1,0.5,0.2c0.3,0.1,0.3,0.4,0.2,0.6c-0.2,0.6-1.1,1-1.7,0.8
				c-0.4-0.1-0.6-0.5-0.3-0.9C-42.4,5.8-42,5.5-41.5,5.5z"/>
			<path class="st3" d="M-43,8.3c0.1,0,0.3,0.1,0.4,0.1c0.3,0.1,0.4,0.4,0.3,0.7c-0.2,0.5-1,1-1.5,0.8c-0.5-0.1-0.6-0.5-0.4-0.9
				C-43.9,8.6-43.4,8.3-43,8.3z"/>
			<path class="st3" d="M-40.9,11.7c0.3,0,0.5,0.1,0.6,0.3c0.1,0.2,0,0.5-0.1,0.6c-0.3,0.4-0.7,0.6-1.3,0.6c-0.2,0-0.4-0.1-0.5-0.3
				c-0.1-0.2-0.1-0.4,0.1-0.6C-41.8,12-41.4,11.8-40.9,11.7z"/>
			<path class="st3" d="M-39.9,3.2c0.1,0,0.2,0,0.2,0c0.1,0.1,0.3,0.2,0.4,0.3c0.1,0.2,0,0.3-0.2,0.4c-0.4,0.4-0.9,0.6-1.5,0.5
				c-0.2,0-0.4-0.2-0.5-0.4c-0.1-0.2,0.1-0.4,0.2-0.5C-40.9,3.3-40.4,3.2-39.9,3.2z"/>
			<path class="st3" d="M-33.3,11.1c-0.3,0-0.5-0.1-0.6-0.3c-0.1-0.2-0.1-0.5,0-0.7c0.2-0.4,0.7-0.6,1.1-0.5
				c0.4,0.1,0.6,0.5,0.5,0.9C-32.5,10.8-32.9,11.1-33.3,11.1z"/>
			<path class="st3" d="M-35.5,12.3c-0.3,0-0.5-0.1-0.6-0.3c-0.1-0.2-0.1-0.4,0.1-0.6c0.3-0.4,0.8-0.6,1.2-0.5
				c0.4,0.1,0.5,0.4,0.4,0.8C-34.6,12-35.1,12.3-35.5,12.3z"/>
			<path class="st3" d="M-30.5,9.2c0,0.5-0.4,0.9-0.9,0.9c-0.4,0-0.7-0.3-0.7-0.7c0-0.5,0.4-0.9,0.9-0.9
				C-30.8,8.4-30.5,8.7-30.5,9.2z"/>
			<path class="st3" d="M-43.8,12c0,0.3-0.2,0.6-0.6,0.7c-0.4,0.1-0.7,0.1-1-0.1c-0.2-0.1-0.2-0.3-0.1-0.5c0.2-0.5,0.9-0.9,1.4-0.7
				C-43.9,11.5-43.8,11.7-43.8,12z"/>
			<path class="st3" d="M-38.9,2.4c-0.2,0-0.5,0-0.7,0c-0.4,0-0.6-0.2-0.6-0.4c0-0.2,0.2-0.5,0.5-0.6c0.4-0.2,0.9-0.2,1.3-0.1
				c0.4,0.2,0.5,0.4,0.1,0.7c-0.1,0.1-0.3,0.2-0.4,0.3c0,0,0,0,0,0C-38.8,2.3-38.8,2.4-38.9,2.4C-38.9,2.4-38.8,2.4-38.9,2.4
				C-38.9,2.4-38.9,2.4-38.9,2.4L-38.9,2.4z"/>
			<path class="st3" d="M-42.3,4.2c0.2,0,0.4,0.1,0.5,0.3c0.1,0.2,0,0.4-0.1,0.5c-0.3,0.4-0.8,0.6-1.3,0.5c-0.2,0-0.4-0.1-0.5-0.4
				c-0.1-0.2,0.1-0.4,0.2-0.5C-43.1,4.4-42.7,4.3-42.3,4.2z"/>
			<path class="st4" d="M-37.9,13.6c-0.5,0-0.8-0.4-0.6-0.9c0.2-0.5,0.9-0.7,1.3-0.4c0.2,0.1,0.3,0.3,0.2,0.6
				C-37,13.3-37.4,13.6-37.9,13.6z"/>
			<path class="st4" d="M-41.6,3.3c-0.2-0.1-0.3-0.1-0.5-0.2c-0.2-0.1-0.2-0.3-0.1-0.5c0.3-0.5,1.2-0.8,1.7-0.5
				c0.2,0.1,0.3,0.3,0.1,0.5C-40.7,3.1-41.1,3.3-41.6,3.3z"/>
			<path class="st4" d="M-44.4,8.2c-0.5,0-0.7-0.4-0.5-0.8c0.2-0.5,0.8-0.7,1.3-0.6c0.3,0.1,0.4,0.3,0.3,0.6
				C-43.4,7.9-43.9,8.3-44.4,8.2z"/>
			<path class="st4" d="M-43.8,14.6c-0.5,0-0.8-0.5-0.6-0.9c0.2-0.4,0.8-0.6,1.2-0.4c0.3,0.1,0.4,0.4,0.3,0.7
				C-43,14.3-43.4,14.6-43.8,14.6z"/>
			<path class="st4" d="M-30.2,7.5c0.6,0,0.9,0.2,1,0.7c0,0.3,0,0.5-0.2,0.7c-0.2,0.2-0.6,0.2-0.8,0C-30.6,8.6-30.6,7.9-30.2,7.5
				C-30.2,7.6-30.2,7.5-30.2,7.5C-30.2,7.5-30.2,7.5-30.2,7.5z"/>
			<path class="st4" d="M-29.2,0.7C-29.2,0.7-29.2,0.7-29.2,0.7c0.4,0,0.6,0.2,0.6,0.4c0.1,0.3-0.1,0.5-0.3,0.6
				c-0.3,0.2-0.6,0.3-0.9,0.2c-0.4-0.1-0.6-0.4-0.3-0.8C-29.9,0.9-29.6,0.7-29.2,0.7z"/>
			<path class="st4" d="M-45.4,9.8c0.5,0,0.7,0.3,0.5,0.7c-0.2,0.4-0.7,0.6-1.1,0.6c-0.4,0-0.5-0.4-0.4-0.7
				C-46.1,10-45.8,9.8-45.4,9.8z"/>
			<path class="st3" d="M-40,13.7c0.3,0,0.5,0.1,0.6,0.3c0.1,0.2,0,0.4-0.1,0.5c-0.3,0.3-0.6,0.5-1.1,0.4c-0.4-0.1-0.5-0.4-0.3-0.7
				C-40.6,13.8-40.3,13.7-40,13.7z"/>
			<path class="st4" d="M-30.4,0.9c-0.1,0-0.3-0.1-0.4-0.1C-31,0.6-31,0.4-30.9,0.2c0.2-0.5,0.8-0.7,1.3-0.5
				c0.3,0.1,0.3,0.3,0.2,0.6C-29.6,0.6-30,0.8-30.4,0.9z"/>
			<path class="st3" d="M-32.8,12c0-0.5,0.5-0.9,0.9-0.8c0.3,0.1,0.4,0.4,0.4,0.7c-0.1,0.3-0.2,0.5-0.5,0.6
				C-32.5,12.8-32.8,12.5-32.8,12z"/>
			<path class="st4" d="M-28.7,3.1C-29,3-29.2,3-29.3,2.8c-0.1-0.2,0-0.4,0.2-0.6c0.3-0.3,0.7-0.4,1-0.2c0.3,0.1,0.4,0.4,0.2,0.6
				C-28.1,2.9-28.4,3.1-28.7,3.1z"/>
			<path class="st3" d="M-29.9,10.6c0,0.4-0.3,0.8-0.7,0.8c-0.3,0-0.5-0.2-0.5-0.6c0-0.4,0.3-0.8,0.7-0.8
				C-30.1,10.1-29.9,10.3-29.9,10.6z"/>
			<path class="st3" d="M-32.5,1.3c-0.1-0.2-0.1-0.3,0.1-0.4c0.3-0.3,0.7-0.4,1.1-0.3C-31,0.7-31,1-31.1,1.3
				c-0.3,0.5-0.6,0.5-1.1,0.3c-0.1,0-0.1-0.1-0.2-0.1c0,0,0,0,0,0C-32.4,1.4-32.4,1.4-32.5,1.3C-32.5,1.3-32.5,1.3-32.5,1.3
				C-32.5,1.3-32.5,1.3-32.5,1.3L-32.5,1.3z"/>
			<path class="st4" d="M-34.6,13.9c-0.1,0-0.3,0-0.4-0.2c-0.1-0.2-0.1-0.3,0-0.5c0.2-0.3,0.5-0.5,0.8-0.5c0.4,0,0.6,0.3,0.5,0.6
				C-33.8,13.6-34.2,13.9-34.6,13.9z"/>
			<path class="st4" d="M-40.5,1.3c-0.1,0-0.1,0-0.2,0C-40.8,1.2-40.9,1.1-41,1c0-0.1,0.1-0.3,0.1-0.3c0.4-0.4,0.9-0.4,1.4-0.3
				c0.1,0,0.2,0.1,0.2,0.2c0,0.1-0.1,0.2-0.2,0.3C-39.7,1.2-40.1,1.3-40.5,1.3z"/>
			<path class="st4" d="M-43.8,4.1c-0.1,0-0.2,0-0.3-0.1c-0.2-0.1-0.2-0.2-0.1-0.4c0.2-0.4,0.9-0.7,1.3-0.5c0.2,0.1,0.3,0.3,0.2,0.5
				C-42.9,4-43.3,4.1-43.8,4.1z"/>
			<path class="st5" d="M-30.1,6c0-0.4,0.3-0.6,0.7-0.4c0.3,0.2,0.6,0.6,0.5,0.9c-0.1,0.3-0.3,0.4-0.6,0.3
				C-29.8,6.7-30.1,6.3-30.1,6z"/>
			<path class="st4" d="M-30.7,3.5c-0.1,0-0.2,0-0.1-0.2c0,0,0-0.1,0-0.1c0,0,0,0,0,0c-0.1-0.2,0-0.3,0.2-0.4
				c0.2-0.1,0.5-0.1,0.7-0.1c0.3,0.1,0.5,0.4,0.3,0.7c-0.1,0.4-0.4,0.5-0.7,0.3c-0.1-0.1-0.2-0.1-0.4-0.2
				C-30.6,3.6-30.6,3.5-30.7,3.5C-30.6,3.5-30.6,3.5-30.7,3.5C-30.7,3.4-30.7,3.5-30.7,3.5z"/>
			<path class="st4" d="M-27.9,4.2c-0.1,0-0.2-0.1-0.3-0.1c-0.2-0.1-0.3-0.3-0.1-0.6c0.2-0.4,0.7-0.5,1.1-0.3
				c0.3,0.1,0.3,0.4,0.2,0.6C-27.3,4-27.5,4.1-27.9,4.2z"/>
			<path class="st4" d="M-46.1,15.7c-0.3,0-0.5-0.1-0.6-0.3c-0.1-0.2,0-0.4,0.2-0.6c0.3-0.2,0.7-0.3,0.9-0.1
				c0.1,0.1,0.2,0.3,0.2,0.4C-45.4,15.4-45.8,15.7-46.1,15.7z"/>
			<path class="st4" d="M-32.9,0.6c-0.2,0-0.4-0.1-0.5-0.2c-0.1-0.2,0-0.3,0.1-0.5c0.3-0.3,0.6-0.4,1-0.3c0.4,0.1,0.5,0.4,0.2,0.7
				C-32.3,0.5-32.6,0.6-32.9,0.6z"/>
			<path class="st4" d="M-45.2,6.7c-0.4,0-0.5-0.2-0.4-0.5c0.2-0.4,0.7-0.7,1-0.6c0.1,0,0.3,0.1,0.4,0.2c0,0.1,0,0.3-0.1,0.4
				C-44.6,6.4-44.9,6.6-45.2,6.7z"/>
			<path class="st5" d="M-29.7,9.8c0.1-0.2,0.1-0.4,0.2-0.5c0.2-0.3,0.6-0.3,0.8,0c0.2,0.3,0.1,0.8-0.2,1c-0.2,0.2-0.5,0.1-0.6-0.1
				C-29.6,10.1-29.6,10-29.7,9.8z"/>
			<path class="st5" d="M-41.8,1.1c0.1,0,0.2,0,0.4,0.1c0.2,0.1,0.2,0.2,0.1,0.3c-0.4,0.4-0.8,0.6-1.4,0.5c-0.3,0-0.4-0.3-0.2-0.5
				C-42.6,1.3-42.3,1.1-41.8,1.1z"/>
			<path class="st4" d="M-27.6-0.1c0.3,0,0.5,0.1,0.6,0.3c0.1,0.2,0,0.4-0.3,0.6c-0.3,0.2-0.5,0.2-0.8,0.1c-0.3-0.1-0.3-0.4-0.2-0.6
				C-28.1,0.1-27.9-0.1-27.6-0.1z"/>
			<path class="st4" d="M-28.6-0.1c-0.1,0-0.3-0.1-0.4-0.1c-0.2-0.1-0.2-0.3-0.1-0.5c0.2-0.4,0.7-0.5,1.1-0.4
				c0.3,0.1,0.3,0.4,0.1,0.6C-28.1-0.2-28.3-0.1-28.6-0.1z"/>
			<path class="st4" d="M-46.8,12.8c0.1,0,0.2,0.1,0.3,0.2c0.1,0.2,0.1,0.3,0,0.5c-0.2,0.3-0.6,0.5-0.9,0.4
				c-0.3-0.1-0.4-0.4-0.3-0.7C-47.4,13-47.2,12.8-46.8,12.8z"/>
			<path class="st4" d="M-29.9,4.5c0-0.1,0-0.1,0-0.2c0-0.2,0-0.4,0.3-0.4c0.2,0,0.4,0,0.7,0c0.2,0,0.3,0.2,0.3,0.4
				c0,0.3-0.1,0.5-0.3,0.6c-0.2,0.1-0.3,0.1-0.5,0C-29.6,4.8-29.7,4.6-29.9,4.5C-29.9,4.5-29.9,4.5-29.9,4.5z"/>
			<path class="st4" d="M-46.2,8.3c0.4,0,0.6,0.3,0.4,0.6c-0.2,0.3-0.4,0.5-0.8,0.5c-0.3,0-0.5-0.3-0.4-0.6
				C-46.9,8.5-46.6,8.3-46.2,8.3z"/>
			<path class="st4" d="M-27,8.6c-0.3,0-0.5-0.2-0.6-0.4c-0.1-0.2,0-0.4,0.3-0.6c0.2-0.1,0.4-0.2,0.7-0.1c0.3,0.1,0.4,0.4,0.2,0.7
				C-26.6,8.5-26.8,8.6-27,8.6z"/>
			<path class="st4" d="M-28.2,7.6c0,0.3-0.1,0.5-0.3,0.6c-0.2,0.1-0.4,0-0.6-0.2c-0.2-0.2-0.2-0.5-0.1-0.7c0.1-0.3,0.4-0.4,0.7-0.2
				C-28.3,7.2-28.2,7.4-28.2,7.6z"/>
			<path class="st4" d="M-27.7,6.3c0.1,0,0.3,0.1,0.4,0.1c0.2,0.1,0.2,0.3,0.1,0.5c-0.1,0.3-0.4,0.4-0.7,0.5c0,0-0.1,0-0.1,0
				c-0.1,0-0.4-0.3-0.4-0.5c0-0.2,0-0.4,0.2-0.5C-28,6.4-27.8,6.3-27.7,6.3z"/>
			<path class="st5" d="M-42.7,16.1c-0.2-0.1-0.3-0.1-0.4-0.2c-0.1-0.1-0.2-0.2-0.1-0.4c0.1-0.4,0.7-0.6,1-0.4
				c0.3,0.2,0.3,0.5,0.1,0.7C-42.3,15.9-42.5,16-42.7,16.1z"/>
			<path class="st5" d="M-30.8-1.3c0.1,0,0.2,0,0.3,0.1c0.2,0.1,0.3,0.3,0.1,0.5c-0.2,0.3-0.7,0.5-1,0.4c-0.3-0.1-0.4-0.4-0.1-0.7
				C-31.3-1.2-31.1-1.3-30.8-1.3z"/>
			<path class="st5" d="M-26.8,4.2c0.3,0,0.5,0.1,0.5,0.3c0.1,0.2,0,0.4-0.3,0.6c-0.2,0.2-0.5,0.2-0.7,0.1c-0.3-0.1-0.4-0.5-0.1-0.7
				C-27.2,4.4-27,4.3-26.8,4.2C-26.8,4.2-26.8,4.2-26.8,4.2z"/>
			<path class="st5" d="M-36.5,14.1c0.2,0,0.4,0.1,0.5,0.3c0.1,0.2,0,0.4-0.2,0.5c-0.3,0.2-0.6,0.3-0.9,0.1
				c-0.2-0.1-0.3-0.3-0.2-0.5C-37.1,14.3-36.8,14.1-36.5,14.1z"/>
			<path class="st5" d="M-38.3,0.7c-0.2,0-0.4,0-0.5-0.1c-0.3-0.1-0.3-0.3-0.1-0.5c0.3-0.2,0.6-0.3,0.9-0.2c0.1,0,0.3,0.1,0.4,0.1
				c0.1,0,0.2,0.1,0.2,0.2c0,0.1-0.1,0.2-0.2,0.2C-37.8,0.5-38.1,0.6-38.3,0.7z"/>
			<path class="st4" d="M-28.5,5.1c0.4,0,0.6,0.2,0.6,0.4c0,0.3-0.4,0.7-0.6,0.7c-0.2,0-0.6-0.4-0.6-0.7
				C-29.1,5.2-28.9,5.1-28.5,5.1z"/>
			<path class="st5" d="M-35.6,1.2c-0.3,0-0.5-0.1-0.7-0.3c-0.1-0.1-0.1-0.3,0-0.4c0.3-0.2,1-0.2,1.3,0c0.2,0.2,0.2,0.4,0,0.5
				C-35.2,1.1-35.4,1.1-35.6,1.2z"/>
			<path class="st5" d="M-27.1,2c-0.1,0-0.3,0-0.4-0.2c-0.1-0.2,0-0.4,0.2-0.5c0.2-0.2,0.6-0.3,0.8-0.2c0.3,0.1,0.3,0.4,0.2,0.6
				C-26.5,1.9-26.7,2-27.1,2z"/>
			<path class="st5" d="M-26.2,9.7c-0.2,0-0.4-0.1-0.5-0.3c-0.1-0.2,0-0.3,0.2-0.5c0.3-0.2,0.5-0.3,0.8-0.1c0.2,0.1,0.3,0.3,0.1,0.5
				C-25.7,9.6-25.9,9.7-26.2,9.7z"/>
			<path class="st6" d="M-27.7,9C-27.7,9-27.7,9-27.7,9c0,0.3-0.2,0.6-0.4,0.6c-0.2,0-0.4-0.2-0.4-0.5c0-0.2,0-0.4,0-0.6
				c0.1-0.2,0.3-0.3,0.5-0.1C-27.8,8.5-27.7,8.7-27.7,9C-27.6,8.9-27.6,9-27.7,9z"/>
			<path class="st5" d="M-26.7-1.9c0.1,0,0.1,0,0.2,0c0.3,0.1,0.4,0.3,0.2,0.6c-0.2,0.2-0.6,0.4-0.9,0.3c-0.2-0.1-0.3-0.3-0.2-0.5
				C-27.2-1.8-27-1.9-26.7-1.9z"/>
			<path class="st7" d="M-40.6-0.3c0.1,0,0.2,0,0.4,0.1c0.1,0.1,0.2,0.2,0,0.3c-0.4,0.3-0.8,0.4-1.2,0.3c-0.1,0-0.2-0.1-0.2-0.2
				c0-0.1,0-0.2,0.1-0.3C-41.3-0.3-41-0.3-40.6-0.3z"/>
			<path class="st5" d="M-29.3,12c0,0.4-0.1,0.6-0.4,0.7c-0.3,0.2-0.6,0-0.6-0.3c0-0.3,0.1-0.5,0.3-0.6c0.1-0.1,0.3-0.1,0.4,0
				C-29.4,11.8-29.3,12-29.3,12z"/>
			<path class="st4" d="M-26.2,6.4c-0.2,0-0.4-0.1-0.4-0.3c-0.1-0.2,0-0.3,0.2-0.4c0.2-0.2,0.5-0.2,0.8-0.1c0.2,0.1,0.3,0.3,0.1,0.5
				C-25.7,6.2-25.9,6.3-26.2,6.4z"/>
			<path class="st5" d="M-32.8-1.2c0,0.1,0,0.1,0,0.2c-0.1,0.3-0.6,0.5-0.9,0.4C-34-0.6-34-0.8-33.9-1c0.2-0.3,0.6-0.5,0.9-0.3
				C-32.9-1.3-32.9-1.2-32.8-1.2z"/>
			<path class="st4" d="M-29.5-1.2c-0.1-0.1-0.3-0.1-0.4-0.3c-0.1-0.2,0-0.3,0.1-0.5c0.2-0.2,0.4-0.3,0.7-0.2
				c0.2,0.1,0.3,0.3,0.2,0.5C-28.9-1.4-29.2-1.2-29.5-1.2C-29.5-1.2-29.5-1.2-29.5-1.2z"/>
			<path class="st8" d="M-44.7,3.1c-0.1,0-0.2-0.1-0.2-0.2c0-0.1,0-0.2,0.1-0.3c0.2-0.2,0.5-0.4,0.8-0.5c0.1,0,0.3,0.1,0.4,0.1
				c0,0.1-0.1,0.2-0.1,0.3C-44,2.8-44.3,3-44.7,3.1z"/>
			<path class="st5" d="M-31.6,14c-0.2,0-0.4-0.1-0.4-0.4c0-0.3,0.3-0.6,0.7-0.6c0.3,0,0.4,0.2,0.3,0.5C-31,13.8-31.3,14-31.6,14z"
				/>
			<path class="st5" d="M-26.2,3.1c-0.1,0-0.3-0.1-0.4-0.3c-0.1-0.2,0.1-0.3,0.2-0.5c0.2-0.1,0.4-0.2,0.7-0.1
				c0.3,0.1,0.3,0.4,0.1,0.6C-25.7,3-25.9,3.1-26.2,3.1z"/>
			<path class="st5" d="M-43.1,1.1c-0.1,0-0.3,0-0.4-0.1c-0.2-0.1-0.2-0.2-0.1-0.3c0.2-0.3,0.9-0.5,1.2-0.3c0.2,0.1,0.2,0.2,0.1,0.4
				C-42.4,1-42.6,1.1-43.1,1.1z"/>
			<path class="st6" d="M-46.1,5.3c-0.1,0-0.2-0.1-0.2-0.1c0-0.1,0-0.2,0-0.3c0.2-0.3,0.5-0.5,0.9-0.5c0.1,0,0.2,0.1,0.3,0.1
				c0,0.1,0,0.2,0,0.3C-45.4,5.1-45.7,5.2-46.1,5.3z"/>
			<path class="st6" d="M-25.4-0.6c-0.1,0.3-0.2,0.4-0.4,0.5c-0.2,0.1-0.4,0.1-0.6-0.1c-0.1-0.1-0.1-0.2-0.1-0.3
				c0.1-0.4,0.6-0.5,0.9-0.3C-25.5-0.7-25.5-0.6-25.4-0.6z"/>
			<path class="st5" d="M-28.9,11.2c0-0.1,0.1-0.3,0.2-0.4c0.1-0.2,0.4-0.2,0.6,0c0.2,0.3,0.1,0.7-0.2,0.9c-0.2,0.1-0.4,0.1-0.5-0.1
				C-28.8,11.5-28.8,11.3-28.9,11.2z"/>
			<path class="st5" d="M-47.9,12.1c-0.2,0-0.4-0.2-0.4-0.4c0-0.3,0.3-0.5,0.6-0.6c0.3,0,0.4,0.1,0.4,0.4
				C-47.3,11.9-47.5,12.1-47.9,12.1z"/>
			<path class="st8" d="M-34.4,0.1c0.3,0,0.6,0.1,0.8,0.3c0.2,0.2,0.1,0.3-0.1,0.4c-0.3,0.1-0.8-0.1-1-0.3c-0.1-0.1-0.1-0.3,0.1-0.4
				C-34.5,0.1-34.4,0.1-34.4,0.1z"/>
			<path class="st8" d="M-26.9,11c0.3,0,0.5,0.2,0.5,0.4c0,0.3-0.3,0.5-0.7,0.5c-0.2,0-0.3-0.1-0.3-0.4C-27.3,11.2-27.2,11-26.9,11z
				"/>
			<path class="st6" d="M-38.9,15.6c0,0,0.2,0.1,0.2,0.2c0,0.1,0,0.3-0.1,0.3c-0.2,0.2-0.4,0.3-0.7,0.3c-0.1,0-0.2-0.1-0.3-0.2
				c0-0.1,0-0.2,0.1-0.3C-39.5,15.7-39.2,15.6-38.9,15.6z"/>
			<path class="st5" d="M-36.5,0.2c-0.2-0.1-0.4-0.1-0.5-0.2c-0.2-0.1-0.2-0.2,0-0.3c0.3-0.2,1-0.2,1.2,0.1c0.1,0.1,0.1,0.2-0.1,0.3
				C-36.1,0.1-36.3,0.1-36.5,0.2z"/>
			<path class="st8" d="M-25.1,10.1c0.1,0.1,0.3,0.2,0.4,0.3c0.1,0.2-0.1,0.3-0.2,0.4c-0.2,0.1-0.4,0.2-0.6,0.1
				c-0.2-0.1-0.3-0.2-0.2-0.4C-25.5,10.2-25.3,10.1-25.1,10.1z"/>
			<path class="st7" d="M-47.4,7.8c-0.1,0-0.2-0.1-0.2-0.2c0-0.1,0-0.2,0-0.3c0.1-0.3,0.4-0.4,0.7-0.3c0.2,0.1,0.3,0.2,0.2,0.5
				C-46.8,7.6-47,7.7-47.4,7.8z"/>
			<path class="st6" d="M-25.4,7.5c-0.1,0-0.2-0.1-0.3-0.2c-0.1-0.1,0-0.3,0.1-0.4c0.2-0.2,0.5-0.2,0.7-0.1c0.2,0.1,0.2,0.2,0.1,0.4
				C-24.9,7.4-25.1,7.5-25.4,7.5z"/>
			<path class="st7" d="M-31.8-1.4c-0.2-0.1-0.4-0.1-0.4-0.3c-0.1-0.2,0.1-0.3,0.2-0.4c0.2-0.1,0.3-0.1,0.5-0.1
				c0.1,0,0.2,0.1,0.3,0.2c0,0.1,0,0.3-0.1,0.3C-31.5-1.6-31.7-1.5-31.8-1.4z"/>
			<path class="st7" d="M-33.3,14.4c0.2,0,0.4,0.1,0.4,0.3c0,0.3-0.3,0.5-0.6,0.5c-0.2,0-0.4-0.1-0.4-0.3
				C-33.9,14.7-33.6,14.4-33.3,14.4z"/>
			<path class="st5" d="M-44.9,16.3c0.1,0.1,0.3,0.2,0.3,0.3c0.1,0.1,0,0.3-0.1,0.4c-0.2,0.1-0.4,0.2-0.5,0.2
				c-0.1,0-0.2-0.1-0.3-0.2c0-0.1,0-0.3,0.1-0.3C-45.3,16.5-45.1,16.4-44.9,16.3z"/>
			<path class="st8" d="M-27.8-2.1c-0.1-0.1-0.3-0.1-0.3-0.2c0-0.1,0-0.3,0.1-0.4c0.2-0.2,0.5-0.3,0.7-0.2c0.2,0.1,0.2,0.2,0.1,0.4
				C-27.3-2.3-27.5-2.2-27.8-2.1z"/>
			<path class="st7" d="M-48.2,16.6c-0.2,0-0.4-0.2-0.4-0.4c0-0.3,0.2-0.5,0.5-0.5c0.2,0,0.4,0.2,0.4,0.4
				C-47.7,16.3-47.9,16.6-48.2,16.6z"/>
			<path class="st6" d="M-35.7-1.6c0.1,0.1,0.3,0.1,0.4,0.2c0.1,0.2-0.1,0.3-0.2,0.4c-0.2,0.2-0.4,0.2-0.7,0.1
				c-0.2-0.1-0.2-0.2-0.1-0.3C-36.2-1.4-36-1.6-35.7-1.6z"/>
			<path class="st6" d="M-25.3,4.2c-0.2,0-0.4-0.1-0.4-0.3c0-0.2,0.3-0.5,0.5-0.5c0.2,0,0.4,0.1,0.4,0.3C-24.7,4-25,4.2-25.3,4.2z"
				/>
			<path class="st8" d="M-39-0.2c-0.2,0-0.4-0.1-0.6-0.1c-0.2-0.1-0.2-0.2,0-0.3c0.4-0.2,0.7-0.2,1.1,0c0.1,0,0.1,0.1,0.1,0.2
				c0,0.1-0.1,0.1-0.2,0.2C-38.7-0.3-38.8-0.3-39-0.2z"/>
			<path class="st5" d="M-27.1,10.2c-0.1,0.2-0.1,0.3-0.2,0.5c-0.1,0.1-0.2,0.1-0.3,0c-0.2-0.2-0.2-0.5-0.1-0.8
				c0-0.1,0.1-0.2,0.2-0.2c0.1,0,0.2,0.1,0.2,0.1C-27.2,9.9-27.2,10-27.1,10.2z"/>
			<path class="st7" d="M-25.3,1c-0.2,0-0.4-0.1-0.4-0.3c0-0.2,0.3-0.5,0.6-0.5c0.2,0,0.4,0.1,0.4,0.3C-24.7,0.8-25,1-25.3,1z"/>
			<path class="st7" d="M-25.3-2c-0.2,0-0.4-0.1-0.4-0.3c0-0.2,0.3-0.4,0.5-0.4c0.2,0,0.4,0.1,0.4,0.3C-24.7-2.3-25-2-25.3-2z"/>
			<path class="st7" d="M-45.2,2c0,0-0.2,0-0.2-0.1c0-0.1,0-0.2,0.1-0.2c0.2-0.1,0.4-0.3,0.7-0.4c0.1,0,0.2,0.1,0.3,0.1
				c0,0,0,0.2-0.1,0.2C-44.6,1.9-44.9,2-45.2,2z"/>
			<path class="st7" d="M-34.9-0.7c0.2,0.1,0.3,0.2,0.5,0.3c0.1,0,0.1,0.2,0,0.3c0,0-0.1,0.1-0.2,0.1c-0.3-0.1-0.6-0.2-0.8-0.2
				c0,0-0.1-0.1-0.1-0.1c0,0,0.1-0.1,0.1-0.1C-35.3-0.6-35.1-0.6-34.9-0.7C-35-0.6-34.9-0.7-34.9-0.7z"/>
			<path class="st8" d="M-26.2,13.1c-0.2,0-0.4-0.1-0.4-0.3c0-0.2,0.2-0.4,0.5-0.4c0.2,0,0.4,0.1,0.4,0.3
				C-25.7,12.9-25.9,13.1-26.2,13.1z"/>
			<path class="st9" d="M-46.5,4c-0.1-0.1-0.3-0.1-0.3-0.2c0-0.1,0-0.2,0.1-0.3c0.2-0.2,0.4-0.3,0.6-0.2c0.2,0,0.3,0.2,0.1,0.3
				C-46.1,3.8-46.3,3.9-46.5,4z"/>
			<path class="st7" d="M-23.8,8.3c0,0.2-0.2,0.3-0.3,0.4c-0.2,0.1-0.4,0-0.5-0.1c0,0,0,0,0-0.1c0-0.2,0.1-0.3,0.3-0.4
				C-24.2,8-23.9,8-23.8,8.3C-23.8,8.2-23.8,8.2-23.8,8.3z"/>
			<path class="st5" d="M-48.7,10.5c-0.2,0-0.3-0.2-0.2-0.4c0.1-0.2,0.3-0.3,0.5-0.3c0.2,0,0.3,0.1,0.3,0.3
				C-48.2,10.3-48.5,10.5-48.7,10.5z"/>
			<path class="st7" d="M-34.4-1.7c0,0-0.2-0.1-0.2-0.1c0-0.1,0-0.2,0.1-0.3c0.1-0.2,0.4-0.3,0.7-0.2c0.1,0.1,0.2,0.2,0.1,0.3
				C-33.9-1.8-34.1-1.7-34.4-1.7z"/>
			<path class="st7" d="M-30.2-2.4c-0.1-0.1-0.3-0.1-0.3-0.2c-0.1-0.2,0.1-0.3,0.2-0.3c0.2-0.1,0.5-0.1,0.6,0
				c0.1,0.1,0.1,0.2,0.1,0.2C-29.7-2.6-29.9-2.4-30.2-2.4z"/>
			<path class="st7" d="M-24.3,12.1c-0.2,0-0.4-0.1-0.4-0.3c0-0.2,0.2-0.4,0.5-0.4c0.2,0,0.4,0.1,0.4,0.3
				C-23.8,11.9-24,12.1-24.3,12.1z"/>
			<path class="st7" d="M-48.6,14.5c0,0.2-0.2,0.4-0.4,0.4c-0.2,0-0.3-0.1-0.3-0.3c0-0.2,0.2-0.4,0.4-0.4
				C-48.7,14.2-48.6,14.3-48.6,14.5z"/>
			<path class="st9" d="M-43.9,0.4c-0.1-0.1-0.2-0.1-0.2-0.1c0-0.1,0.1-0.2,0.1-0.2c0.3-0.1,0.5-0.2,0.8-0.3c0.1,0,0.2,0,0.2,0.1
				C-43-0.1-43,0-43.1,0C-43.3,0.2-43.6,0.3-43.9,0.4z"/>
			<path class="st8" d="M-26-3.1c-0.2,0-0.3,0-0.3-0.2c0-0.2,0.2-0.4,0.5-0.4c0.2,0,0.4,0.1,0.4,0.3C-25.5-3.3-25.8-3.1-26-3.1z"/>
			<path class="st5" d="M-24.4,5.3c-0.2,0-0.3-0.1-0.3-0.3c0-0.2,0.2-0.4,0.5-0.4c0.2,0,0.4,0.1,0.4,0.2
				C-23.9,5.1-24.1,5.3-24.4,5.3z"/>
			<path class="st9" d="M-24.2,1.4c0.1,0.1,0.3,0.2,0.3,0.3c0.1,0.2-0.1,0.3-0.3,0.4c0,0,0,0,0,0c-0.2,0-0.3-0.1-0.5-0.1
				c0,0,0-0.2,0-0.2C-24.6,1.6-24.4,1.4-24.2,1.4z"/>
			<path class="st7" d="M-41.7,17.6c-0.1-0.1-0.3-0.2-0.3-0.3c-0.1-0.1,0.1-0.3,0.2-0.3c0.1-0.1,0.3-0.1,0.5-0.1
				c0.2,0,0.2,0.2,0.1,0.4C-41.4,17.5-41.5,17.5-41.7,17.6z"/>
			<path class="st9" d="M-41-0.7c-0.1,0-0.1,0.1-0.2,0.1c-0.3,0.1-0.6,0.2-0.9,0.3c-0.1,0-0.1-0.1-0.2-0.1c0-0.1,0.1-0.1,0.1-0.2
				c0.3-0.1,0.5-0.2,0.8-0.3c0.1,0,0.2,0,0.3,0.1C-41-0.8-41-0.8-41-0.7z"/>
			<path class="st7" d="M-35.8,16.6c-0.1,0-0.3,0-0.3-0.2c0-0.2,0.2-0.4,0.5-0.4c0.2,0,0.3,0.1,0.3,0.2
				C-35.3,16.4-35.5,16.6-35.8,16.6z"/>
			<path class="st9" d="M-24.4-1c-0.1-0.1-0.3-0.1-0.3-0.2c0-0.1,0.1-0.2,0.2-0.3c0.1-0.1,0.4-0.2,0.5,0c0.1,0.1,0.1,0.2,0.1,0.2
				C-24-1.1-24.2-1-24.4-1z"/>
			<path class="st8" d="M-28.3,12.7c0.1-0.2,0.1-0.3,0.2-0.5c0-0.1,0.2-0.1,0.2-0.1c0.1,0,0.2,0.2,0.2,0.2c0,0.2-0.1,0.4-0.2,0.6
				c0,0-0.2,0.1-0.2,0C-28.2,12.9-28.2,12.8-28.3,12.7z"/>
			<path class="st8" d="M-48,6.4c-0.2,0-0.3-0.1-0.2-0.3c0.1-0.2,0.4-0.4,0.6-0.4c0.2,0,0.2,0.1,0.2,0.3C-47.5,6.2-47.8,6.4-48,6.4z
				"/>
			<path class="st9" d="M-28.9,13.5c0,0.3-0.2,0.6-0.4,0.6c-0.2,0-0.2-0.1-0.2-0.3c0-0.2,0.2-0.5,0.4-0.5
				C-29,13.4-28.9,13.5-28.9,13.5z"/>
			<path class="st7" d="M-37.5-0.6c-0.1,0-0.2,0-0.4-0.1c-0.1,0-0.1-0.1,0-0.2C-37.6-1-37.3-1.1-37-1c0.1,0,0.1,0.1,0.2,0.1
				c-0.1,0-0.1,0.1-0.2,0.1C-37.2-0.7-37.3-0.7-37.5-0.6z"/>
			<path class="st9" d="M-39.8-1.4c0.1,0,0.3,0,0.4,0.1c0,0,0.1,0.1,0.1,0.1c0,0,0,0.1-0.1,0.1c-0.2,0.1-0.6,0.1-0.8,0
				c-0.1-0.1-0.1-0.1,0-0.2C-40.1-1.3-39.9-1.3-39.8-1.4z"/>
			<path class="st9" d="M-47.2,18c-0.1,0-0.3-0.2-0.3-0.3c0-0.1,0.2-0.3,0.4-0.3c0.2,0,0.3,0.1,0.3,0.3C-46.8,17.9-47,18-47.2,18z"
				/>
			<path class="st9" d="M-28.6-3.4c0,0-0.1-0.1-0.2-0.2c0-0.1,0.2-0.3,0.4-0.3c0.1,0,0.3,0,0.3,0.2C-28.1-3.5-28.3-3.4-28.6-3.4z"/>
			<path class="st7" d="M-32.6-2.7c-0.1,0-0.2,0-0.2-0.2c0-0.2,0.2-0.3,0.4-0.3c0.1,0,0.3,0,0.3,0.2C-32.2-2.8-32.4-2.7-32.6-2.7z"
				/>
			<path class="st9" d="M-36.4-2.5c0,0,0.1,0.1,0.2,0.2c0,0.2-0.2,0.3-0.4,0.3c-0.1,0-0.2,0-0.2-0.2C-36.9-2.3-36.7-2.5-36.4-2.5z"
				/>
			<path class="st7" d="M-30.4,14.9c0,0.2-0.2,0.4-0.4,0.4c-0.1,0-0.2-0.1-0.2-0.2c0-0.2,0.2-0.4,0.4-0.4
				C-30.5,14.7-30.4,14.8-30.4,14.9z"/>
			<path class="st10" d="M-45.7,1.2c0-0.1-0.1-0.2-0.1-0.3c0.1-0.2,0.4-0.4,0.6-0.4c0.1,0,0.1,0,0.1,0.1c0,0,0,0.1-0.1,0.1
				C-45.2,1-45.4,1.1-45.7,1.2z"/>
			<path class="st7" d="M-23.3,9.3c0.1,0,0.3,0,0.3,0.2c0,0.1-0.2,0.3-0.4,0.3c-0.1,0-0.2-0.1-0.3-0.2C-23.7,9.4-23.5,9.3-23.3,9.3z
				"/>
			<path class="st10" d="M-23.5,6.4c0,0-0.1-0.1-0.2-0.2c0-0.1,0.2-0.3,0.3-0.3c0.2,0,0.3,0.1,0.3,0.2C-23.1,6.3-23.3,6.4-23.5,6.4z
				"/>
			<path class="st7" d="M-38.6-1.4c0.2-0.3,0.5-0.3,0.7-0.2c0.1,0,0.1,0.1,0.1,0.2c0,0.1-0.1,0.1-0.2,0.1
				C-38.2-1.3-38.4-1.3-38.6-1.4z"/>
			<path class="st9" d="M-23.4,2.6c0.1,0.1,0.2,0.1,0.2,0.2c0,0.1-0.2,0.3-0.4,0.3c-0.1,0-0.2,0-0.3-0.2
				C-23.8,2.8-23.6,2.7-23.4,2.6z"/>
			<path class="st10" d="M-23.6-3c0,0-0.2-0.1-0.2-0.2c0-0.1,0.2-0.3,0.4-0.3c0.1,0,0.2,0.1,0.3,0.2C-23.1-3.2-23.3-3.1-23.6-3z"/>
			<path class="st9" d="M-23.6,0c0,0-0.1-0.1-0.2-0.2c0-0.1,0.2-0.3,0.3-0.3c0.1,0,0.2,0.1,0.3,0.2C-23.1-0.2-23.3,0-23.6,0z"/>
			<path class="st10" d="M-47.2,2.9c0-0.3,0.4-0.6,0.6-0.4c0.1,0.1,0.1,0.2,0,0.2C-46.8,2.9-47,2.9-47.2,2.9z"/>
			<path class="st9" d="M-24.4-4.1c0,0-0.1-0.1-0.2-0.2c0-0.1,0.2-0.3,0.4-0.3c0.1,0,0.2,0.1,0.3,0.2C-23.9-4.2-24.2-4.1-24.4-4.1z"
				/>
			<path class="st9" d="M-49.8,13.2c0,0-0.1-0.1-0.1-0.2c0-0.2,0.1-0.3,0.3-0.3c0.1,0,0.2,0.1,0.2,0.2C-49.4,13-49.6,13.2-49.8,13.2
				z"/>
			<path class="st11" d="M-44.6-0.4c0.1-0.2,0.6-0.4,0.9-0.4C-43.7-0.5-44.3-0.2-44.6-0.4z"/>
			<path class="st9" d="M-49.4,8.9c0,0-0.1-0.1-0.1-0.2c0-0.1,0.2-0.3,0.4-0.3c0.1,0,0.2,0.1,0.2,0.1C-48.9,8.7-49.1,8.9-49.4,8.9z"
				/>
			<path class="st9" d="M-23.4,13.4c-0.1-0.1-0.3-0.2-0.3-0.3c0-0.1,0.1-0.2,0.3-0.2c0.1,0,0.3,0,0.3,0.2
				C-23.1,13.2-23.2,13.2-23.4,13.4z"/>
			<path class="st11" d="M-49.8,17.3c-0.2-0.1-0.3-0.1-0.3-0.3c0-0.1,0.2-0.2,0.2-0.2c0.1,0,0.2,0.1,0.2,0.2
				C-49.6,17.1-49.7,17.2-49.8,17.3z"/>
			<path class="st11" d="M-34.9-2.8C-35-2.9-35.1-3-35.2-3c0-0.1,0.1-0.3,0.3-0.2c0.1,0,0.2,0.1,0.2,0.2C-34.7-3-34.8-2.9-34.9-2.8z
				"/>
			<path class="st12" d="M-41.9-1.3C-42-1.1-42.5-1-42.7-1.1C-42.6-1.3-42.1-1.4-41.9-1.3z"/>
			<path class="st9" d="M-43-1.5c0,0-0.1-0.1-0.1-0.1c0-0.1,0.2-0.3,0.3-0.2c0.1,0,0.2,0.1,0.2,0.1C-42.6-1.7-42.8-1.5-43-1.5z"/>
			<path class="st10" d="M-39-2.1c-0.1-0.1-0.1-0.2-0.2-0.3c0.1-0.1,0.2-0.2,0.3-0.2c0.1,0,0.1,0.1,0.2,0.1
				C-38.7-2.4-38.8-2.3-39-2.1z"/>
			<path class="st12" d="M-30.9-3.5c-0.1-0.1-0.1-0.1-0.2-0.2c0.1-0.1,0.2-0.2,0.3-0.2c0,0,0.1,0.1,0.2,0.1
				C-30.7-3.7-30.8-3.6-30.9-3.5z"/>
			<path class="st10" d="M-48.5,5.1c0-0.1,0-0.1,0-0.2c0,0,0,0,0.1-0.1c0.1-0.1,0.2-0.2,0.4-0.1c0,0,0.1,0.1,0,0.1
				C-48.2,4.9-48.3,5-48.5,5.1C-48.5,5.1-48.5,5.1-48.5,5.1z"/>
			<path class="st12" d="M-26.8-4.2C-26.9-4.3-27-4.4-27-4.4c0.1-0.1,0.2-0.2,0.3-0.2c0.1,0,0.2,0.1,0.2,0.1
				C-26.6-4.4-26.7-4.3-26.8-4.2z"/>
			<path class="st11" d="M-32.5,16.2c0,0,0.1,0.1,0.1,0.1c-0.1,0.1-0.2,0.2-0.3,0.3c-0.1-0.1-0.1-0.1-0.2-0.2
				C-32.8,16.3-32.7,16.2-32.5,16.2z"/>
			<path class="st11" d="M-38.1,17.9c-0.1-0.1-0.2-0.2-0.2-0.3c0.1-0.1,0.2-0.2,0.3-0.2c0,0,0.1,0.1,0.2,0.1
				C-37.9,17.7-38,17.8-38.1,17.9z"/>
			<path class="st11" d="M-46.2,0.4c0.1-0.2,0.4-0.4,0.7-0.3C-45.6,0.3-45.9,0.4-46.2,0.4z"/>
			<path class="st10" d="M-25.2,13.8c0.1,0.1,0.2,0.2,0.2,0.2c-0.1,0.1-0.2,0.2-0.3,0.2c0,0-0.2-0.1-0.2-0.2
				C-25.4,14-25.3,13.9-25.2,13.8z"/>
			<path class="st12" d="M-27.8,13.9c0.1-0.1,0.1-0.2,0.2-0.3c0,0,0.1,0,0.1,0c0,0.1,0,0.2,0,0.3c0,0.1-0.1,0.1-0.2,0.1
				C-27.7,14-27.7,14-27.8,13.9z"/>
			<path class="st10" d="M-44,18.6c-0.1-0.1-0.2-0.2-0.2-0.3c0.1-0.1,0.2-0.2,0.2-0.2c0.1,0,0.1,0.1,0.2,0.2
				C-43.8,18.4-43.9,18.5-44,18.6z"/>
			<path class="st11" d="M-40.2-1.7c-0.2,0.2-0.5,0.1-0.7,0.1C-40.7-1.8-40.4-1.9-40.2-1.7z"/>
			<path class="st10" d="M-22.5,7.1c0.1,0.1,0.2,0.2,0.2,0.2c-0.1,0.1-0.2,0.2-0.3,0.2c0,0-0.2-0.1-0.2-0.2
				C-22.7,7.3-22.6,7.2-22.5,7.1z"/>
			<path class="st11" d="M-22.6,0.6c0.1,0.1,0.2,0.1,0.2,0.2C-22.4,0.9-22.5,1-22.6,1c0,0-0.2-0.1-0.2-0.2
				C-22.7,0.8-22.7,0.7-22.6,0.6z"/>
			<path class="st9" d="M-22.3,4.1c-0.1,0.1-0.2,0.1-0.3,0.2c0,0-0.1-0.1-0.2-0.2c0-0.1,0.1-0.2,0.2-0.2C-22.4,3.9-22.4,4-22.3,4.1
				C-22.3,4-22.3,4-22.3,4.1z"/>
			<path class="st11" d="M-22.6-2.4c0.1,0.1,0.2,0.1,0.2,0.2c-0.1,0.1-0.2,0.2-0.3,0.2c0,0-0.2-0.1-0.1-0.1
				C-22.8-2.3-22.7-2.3-22.6-2.4z"/>
			<path class="st12" d="M-22.4,10.6c0.1,0.1,0.1,0.1,0.2,0.2c-0.1,0.1-0.1,0.2-0.2,0.2c0,0-0.1-0.1-0.2-0.1
				C-22.6,10.7-22.5,10.7-22.4,10.6z"/>
			<path class="st12" d="M-44.9-0.9c0.2-0.2,0.4-0.3,0.7-0.2C-44.4-1-44.6-0.9-44.9-0.9z"/>
			<path class="st12" d="M-47,1.8C-47.2,1.9-47.3,2-47.6,2C-47.5,1.8-47.3,1.7-47,1.8z"/>
			<path class="st11" d="M-48.7,18.5c-0.1,0.1-0.2,0.2-0.2,0.2c-0.1,0-0.1-0.1-0.2-0.2c0,0,0.1-0.1,0.1-0.1
				C-48.9,18.4-48.8,18.5-48.7,18.5z"/>
			<path class="st12" d="M-28.9,15.1c0.1-0.1,0.2-0.1,0.2-0.2c0,0,0.1,0.1,0.1,0.1c-0.1,0.1-0.1,0.2-0.2,0.3
				C-28.8,15.2-28.8,15.2-28.9,15.1z"/>
			<path class="st12" d="M-50.6,15.7c-0.1-0.1-0.1-0.2-0.1-0.2c0-0.1,0.1-0.1,0.2-0.1c0,0,0.1,0.1,0.1,0.1
				C-50.5,15.6-50.5,15.6-50.6,15.7z"/>
			<path class="st11" d="M-50.4,11.6c-0.1-0.1-0.1-0.2-0.1-0.2c0.1-0.1,0.1-0.1,0.2-0.2c0,0,0.1,0.1,0.1,0.1
				C-50.3,11.4-50.3,11.5-50.4,11.6z"/>
			<path class="st13" d="M-37.4-3.3c0.1,0,0.2,0,0.3-0.1c0,0,0,0.1,0,0.1C-37.2-3.1-37.3-3.1-37.4-3.3z"/>
			<path class="st12" d="M-33.2-4.1C-33.2-4-33.1-4-33.1-4c-0.1,0.1-0.1,0.1-0.2,0.1c0,0-0.1-0.1-0.1-0.1C-33.4-4-33.3-4-33.2-4.1z"
				/>
			<path class="st12" d="M-49.7,7.2c0,0.1,0.1,0.1,0.1,0.1c-0.1,0.1-0.2,0.1-0.2,0.2c0,0-0.1-0.1-0.1-0.1
				C-49.8,7.4-49.7,7.3-49.7,7.2z"/>
			<path class="st13" d="M-34.6,17.8c-0.1,0-0.2,0.1-0.3,0.1c0,0,0-0.1,0-0.1C-34.9,17.7-34.8,17.6-34.6,17.8z"/>
			<path class="st13" d="M-22.4-5.2c-0.1,0.1-0.2,0.1-0.3,0.1c0,0-0.1-0.1-0.1-0.1c0.1,0,0.1-0.1,0.2-0.1
				C-22.6-5.3-22.5-5.2-22.4-5.2z"/>
			<path class="st10" d="M-29.4-4.6c0.1-0.1,0.2-0.2,0.3-0.1c0,0,0,0.1,0,0.1C-29.2-4.5-29.3-4.5-29.4-4.6z"/>
			<path class="st13" d="M-41.2-2.4c-0.1-0.1-0.2-0.1-0.2-0.2c0.1-0.1,0.1-0.1,0.2-0.1c0,0,0.1,0.1,0.1,0.1
				C-41.1-2.5-41.2-2.5-41.2-2.4z"/>
			<path class="st13" d="M-44.9-1.9c-0.1,0.1-0.2,0.1-0.3,0.1c0,0-0.1-0.1-0.1-0.1c0.1,0,0.1-0.1,0.2-0.1C-45.1-2-45-2-44.9-1.9z"/>
			<path class="st12" d="M-46.1-0.3c-0.1,0.1-0.3,0.1-0.4,0.2c0,0,0-0.1,0-0.1c0.1-0.1,0.3-0.1,0.4-0.2C-46.1-0.4-46.1-0.3-46.1-0.3
				z"/>
			<path class="st13" d="M-49,3.9c0.1-0.1,0.2-0.1,0.3-0.2c0,0,0,0.1,0.1,0.1C-48.7,3.9-48.8,4-48.9,4C-48.9,4-48.9,4-49,3.9z"/>
			<path class="st13" d="M-27.1,15.2c-0.1-0.1-0.1-0.1-0.1-0.2c0-0.1,0.1-0.1,0.1-0.1c0,0,0.1,0.1,0.1,0.1
				C-26.9,15.1-27,15.2-27.1,15.2z"/>
			<path class="st11" d="M-25-5.4c-0.1,0.1-0.2,0.2-0.3,0.1C-25.2-5.5-25.1-5.5-25-5.4z"/>
			<path class="st5" d="M-31.7,2.1c0.1,0.1,0.1,0.2,0.2,0.3c-0.1,0-0.2,0-0.3-0.1c-0.1-0.1-0.1-0.2-0.2-0.2c0.1,0,0.2,0.1,0.2,0.1
				C-31.7,2.2-31.7,2.2-31.7,2.1z"/>
			<path class="st12" d="M-21.4,8.6c-0.1,0.1-0.1,0.1-0.2,0.1c0,0-0.1-0.1-0.1-0.1c0.1,0,0.1-0.1,0.2-0.1
				C-21.5,8.5-21.5,8.5-21.4,8.6z"/>
			<path class="st13" d="M-21.7,2.2C-21.8,2.1-21.8,2-21.8,2c0,0,0.1-0.1,0.2-0.1c0,0,0.1,0.1,0.1,0.1C-21.6,2-21.6,2.1-21.7,2.2z"
				/>
			<path class="st12" d="M-21.4,5.2c-0.1,0.1-0.2,0.1-0.2,0.1c0,0-0.1,0-0.1-0.1c0,0,0.1-0.1,0.1-0.1C-21.6,5.1-21.5,5.1-21.4,5.2z"
				/>
			<path class="st5" d="M-30.8,2.7c0.1,0,0.2,0,0.3,0C-30.7,2.7-30.8,2.7-30.8,2.7z"/>
			<path class="st5" d="M-30.9,3.2c0,0-0.1-0.1-0.1-0.1C-31,3.2-31,3.2-30.9,3.2z"/>
			<path class="st5" d="M-30.5,2.7C-30.5,2.6-30.5,2.6-30.5,2.7C-30.5,2.6-30.5,2.6-30.5,2.7C-30.5,2.6-30.5,2.7-30.5,2.7z"/>
			<path class="st5" d="M-31.3,2.5c0,0,0.1,0,0.1,0.1C-31.3,2.6-31.3,2.6-31.3,2.5z"/>
			<path class="st5" d="M-30.2,2C-30.2,2-30.3,2-30.2,2C-30.3,2-30.2,2-30.2,2C-30.2,2-30.2,2-30.2,2z"/>
			<path class="st5" d="M-33.5,1c-0.1,0-0.1,0-0.2,0C-33.6,1-33.6,1-33.5,1z"/>
			<path class="st5" d="M-31.3,1.6C-31.3,1.7-31.3,1.7-31.3,1.6C-31.3,1.7-31.3,1.7-31.3,1.6z"/>
			<path class="st5" d="M-31.7,1.9c0,0.1,0,0.1,0,0.2C-31.7,2-31.7,2-31.7,1.9z"/>
			<path class="st5" d="M-31.4,2.8C-31.4,2.7-31.4,2.7-31.4,2.8C-31.4,2.7-31.4,2.7-31.4,2.8C-31.4,2.7-31.4,2.7-31.4,2.8z"/>
			<path class="st5" d="M-32.5,1.9C-32.5,1.8-32.5,1.8-32.5,1.9C-32.5,1.8-32.5,1.8-32.5,1.9z"/>
			<path class="st5" d="M-30.3,1.8C-30.3,1.8-30.4,1.7-30.3,1.8C-30.4,1.7-30.3,1.8-30.3,1.8z"/>
			<path class="st5" d="M-31.5,1.8C-31.5,1.8-31.6,1.8-31.5,1.8C-31.6,1.8-31.5,1.8-31.5,1.8z"/>
			<path class="st5" d="M-30.3,2.5C-30.3,2.4-30.3,2.4-30.3,2.5C-30.3,2.4-30.3,2.4-30.3,2.5z"/>
			<path class="st5" d="M-30.4,2.5C-30.4,2.5-30.3,2.5-30.4,2.5C-30.3,2.5-30.4,2.5-30.4,2.5z"/>
			<path class="st5" d="M-32.4,1.7C-32.4,1.6-32.4,1.6-32.4,1.7C-32.4,1.6-32.4,1.6-32.4,1.7z"/>
			<path class="st5" d="M-32.4,1.6C-32.4,1.6-32.4,1.6-32.4,1.6C-32.4,1.6-32.4,1.6-32.4,1.6C-32.4,1.6-32.4,1.6-32.4,1.6z"/>
			<path class="st5" d="M-30.3,1.8C-30.3,1.8-30.3,1.8-30.3,1.8C-30.3,1.8-30.3,1.8-30.3,1.8z"/>
			<path class="st5" d="M-31.6,1.8C-31.6,1.8-31.6,1.8-31.6,1.8C-31.6,1.8-31.6,1.8-31.6,1.8z"/>
			<path class="st5" d="M-30.3,2.4C-30.3,2.4-30.3,2.3-30.3,2.4C-30.3,2.3-30.3,2.4-30.3,2.4z"/>
			<path class="st5" d="M-31,2.7C-31,2.7-30.9,2.7-31,2.7C-30.9,2.7-31,2.7-31,2.7L-31,2.7z"/>
			<path class="st5" d="M-33.9,1.1C-33.9,1.1-33.9,1.2-33.9,1.1C-33.9,1.2-33.9,1.1-33.9,1.1z"/>
			<path class="st5" d="M-33.8,1C-33.8,1.1-33.8,1.1-33.8,1C-33.8,1.1-33.8,1.1-33.8,1z"/>
			<path class="st5" d="M-33.3,1C-33.3,1-33.3,1-33.3,1C-33.3,1-33.3,1-33.3,1L-33.3,1z"/>
			<path class="st5" d="M-33.5,1C-33.5,1-33.5,1-33.5,1C-33.5,1-33.5,1-33.5,1z"/>
			<path class="st5" d="M-30.5,3.8C-30.5,3.8-30.5,3.7-30.5,3.8C-30.5,3.7-30.5,3.8-30.5,3.8z"/>
			<path class="st5" d="M-30.5,3.8C-30.5,3.8-30.5,3.8-30.5,3.8C-30.5,3.8-30.5,3.8-30.5,3.8z"/>
			<path class="st5" d="M-30.5,4C-30.5,3.9-30.5,3.9-30.5,4C-30.5,3.9-30.5,3.9-30.5,4z"/>
			<path class="st5" d="M-30.8,3.2C-30.8,3.2-30.8,3.2-30.8,3.2C-30.8,3.2-30.8,3.2-30.8,3.2z"/>
			<path class="st5" d="M-32.1,3.5C-32.1,3.5-32.1,3.4-32.1,3.5C-32,3.5-32,3.5-32.1,3.5C-32.1,3.5-32.1,3.5-32.1,3.5z"/>
			<path class="st5" d="M-32.8,1.9c0,0-0.1,0-0.1,0C-32.9,1.8-32.9,1.8-32.8,1.9z"/>
			<path class="st5" d="M-33.7,2c0,0.1,0,0.1,0,0.2c0,0-0.1,0-0.1,0C-33.8,2.1-33.7,2.1-33.7,2z"/>
			<path class="st5" d="M-30.7,3.5C-30.7,3.5-30.7,3.4-30.7,3.5C-30.6,3.5-30.6,3.5-30.7,3.5C-30.6,3.5-30.7,3.5-30.7,3.5z"/>
			<path class="st5" d="M-33,2.4c0,0,0-0.1,0-0.1C-33,2.3-33,2.3-33,2.4z"/>
			<path class="st5" d="M-32.8,1.9C-32.8,1.9-32.8,1.9-32.8,1.9C-32.8,1.9-32.8,1.9-32.8,1.9C-32.8,1.9-32.8,1.9-32.8,1.9z"/>
			<path class="st5" d="M-33.7,1.6C-33.7,1.6-33.7,1.5-33.7,1.6C-33.7,1.5-33.7,1.6-33.7,1.6z"/>
			<path class="st5" d="M-33.7,1.7C-33.7,1.8-33.7,1.8-33.7,1.7C-33.7,1.8-33.7,1.8-33.7,1.7z"/>
			<path class="st5" d="M-33.3,1.8C-33.3,1.8-33.3,1.7-33.3,1.8C-33.3,1.7-33.3,1.8-33.3,1.8z"/>
			<path class="st5" d="M-33.7,1.6C-33.7,1.7-33.7,1.7-33.7,1.6C-33.7,1.7-33.7,1.7-33.7,1.6z"/>
			<path class="st5" d="M-33.6,1.6C-33.6,1.6-33.6,1.6-33.6,1.6C-33.6,1.6-33.6,1.6-33.6,1.6z"/>
			<path class="st5" d="M-33.7,1.5C-33.8,1.5-33.8,1.5-33.7,1.5C-33.8,1.5-33.8,1.5-33.7,1.5z"/>
			<path class="st5" d="M-32.6,3.1C-32.6,3.1-32.6,3.1-32.6,3.1C-32.6,3.1-32.6,3.1-32.6,3.1z"/>
		</g>
	</g>
</g>
</svg>
